<svg width="400" height="160" viewBox="0 0 400 160" fill="none" xmlns="http://www.w3.org/2000/svg">
<path d="M164.959 70.3868H176.911C174.917 57.7925 163.915 49.0202 149.596 49.0202C132.654 49.0202 119.941 61.3649 119.941 82.0399C119.941 102.346 132.082 114.94 149.942 114.94C165.971 114.94 177.446 104.722 177.446 88.1811V80.4748H151.175V89.5591H166.097C165.908 98.711 159.743 104.504 150.005 104.504C139.165 104.504 131.736 96.4542 131.736 81.9151C131.736 67.4697 139.291 59.4513 149.753 59.4513C157.561 59.4513 162.902 63.5853 164.959 70.3868Z" fill="#171321"/>
<path d="M185.348 114.061H196.791V65.9617H185.348V114.061ZM191.119 58.3177C194.756 58.3177 197.725 55.5566 197.725 52.1766C197.725 48.7966 194.756 46.0042 191.119 46.0042C187.483 46.0042 184.482 48.7602 184.482 52.1766C184.482 55.593 187.431 58.3177 191.098 58.3177H191.119Z" fill="#171321"/>
<path d="M231.059 65.9617H221.478V54.4074H210.034V65.9617H203.145V74.734H210.034V101.493C209.971 110.546 216.614 115.013 225.208 114.748C227.498 114.703 229.768 114.322 231.945 113.619L230.014 104.748C228.921 105.029 227.797 105.178 226.667 105.19C223.786 105.19 221.478 104.187 221.478 99.6106V74.708H231.059V65.9617Z" fill="#171321"/>
<path d="M239.915 114.061H280.158V104.317H251.647V49.8938H239.915V114.061Z" fill="#171321"/>
<path d="M302.08 115.034C309.698 115.034 314.247 111.493 316.336 107.452H316.713V114.061H327.732V81.8527C327.732 69.1336 317.27 65.3117 308.004 65.3117C297.793 65.3117 289.954 69.82 287.426 78.5924L298.113 80.1004C299.247 76.8088 302.473 73.9904 308.082 73.9904C313.397 73.9904 316.304 76.684 316.304 81.4159V81.6031C316.304 84.8583 312.857 85.0195 304.289 85.9243C294.871 86.9279 285.862 89.7151 285.862 100.557C285.83 110.021 292.814 115.034 302.08 115.034ZM305.842 106.714C301.067 106.714 297.652 104.551 297.652 100.385C297.652 96.0278 301.477 94.213 306.571 93.4903C309.578 93.0847 315.585 92.3307 317.065 91.1451V96.813C317.096 102.153 312.731 106.698 305.842 106.698V106.714Z" fill="#171321"/>
<path d="M336.158 114.061H347.413V106.48H348.074C349.879 109.99 353.641 114.909 361.989 114.909C373.432 114.909 382 105.913 382 90.0635C382 74.0216 373.18 65.3117 361.957 65.3117C353.389 65.3117 349.816 70.418 348.074 73.8968H347.591V49.8938H336.158V114.061ZM347.381 90.0011C347.381 80.6412 351.427 74.6144 358.793 74.6144C366.412 74.6144 370.336 81.0364 370.336 90.0011C370.336 98.9658 366.354 105.601 358.793 105.601C351.49 105.601 347.381 99.335 347.381 90.0011Z" fill="#171321"/>
<path d="M98.3656 71.874L98.2554 71.5828L87.1321 42.8271C86.9069 42.2624 86.5063 41.7835 85.9883 41.4595C85.6017 41.2142 85.1626 41.0621 84.706 41.0154C84.2495 40.9687 83.7882 41.0286 83.3592 41.1904C82.9302 41.3521 82.5455 41.6112 82.2358 41.9469C81.926 42.2826 81.7 42.6856 81.5757 43.1235L74.0674 65.9045H43.6619L36.1537 43.1235C36.0284 42.6862 35.8018 42.284 35.4919 41.949C35.1821 41.6139 34.7975 41.3553 34.3688 41.1937C33.9402 41.032 33.4794 40.9719 33.0232 41.018C32.5669 41.0642 32.1279 41.2153 31.7411 41.4595C31.223 41.7835 30.8224 42.2624 30.5972 42.8271L19.4792 71.588L19.3637 71.874C17.763 76.02 17.5658 80.5693 18.8019 84.8361C20.0379 89.1028 22.6401 92.8556 26.2161 95.5286L26.2581 95.5598L26.3525 95.6326L43.2736 108.201L51.6686 114.488L56.7685 118.31C57.3669 118.758 58.0964 119 58.8463 119C59.5962 119 60.3257 118.758 60.9241 118.31L66.024 114.488L74.419 108.201L91.4607 95.5598L91.508 95.5235C95.0838 92.8514 97.6863 89.0998 98.9232 84.8341C100.16 80.5684 99.9644 76.0199 98.3656 71.874Z" fill="#E24329"/>
<path d="M98.3656 71.874L98.2554 71.5828C92.8359 72.685 87.7295 74.9615 83.3019 78.2492L58.8778 96.553L74.4295 108.201L91.4712 95.5598L91.5185 95.5234C95.0925 92.85 97.6929 89.0978 98.9279 84.8322C100.163 80.5666 99.9656 76.0188 98.3656 71.874Z" fill="#FC6D26"/>
<path d="M43.2737 108.201L51.6686 114.488L56.7686 118.31C57.367 118.758 58.0964 119 58.8463 119C59.5963 119 60.3257 118.758 60.9241 118.31L66.024 114.488L74.419 108.201L58.8673 96.553L43.2737 108.201Z" fill="#FCA326"/>
<path d="M34.4274 78.2492C30.0015 74.9631 24.8967 72.6884 19.4792 71.588L19.3637 71.874C17.763 76.02 17.5658 80.5693 18.8019 84.836C20.0379 89.1028 22.6401 92.8556 26.2161 95.5286L26.2581 95.5598L26.3525 95.6326L43.2736 108.201L58.8358 96.553L34.4274 78.2492Z" fill="#FC6D26"/>
</svg>
