<svg width="60" height="60" viewBox="0 0 60 60" fill="none" xmlns="http://www.w3.org/2000/svg">
<mask id="mask0" mask-type="alpha" maskUnits="userSpaceOnUse" x="0" y="5" width="60" height="50">
<path fill-rule="evenodd" clip-rule="evenodd" d="M4 7C4 5.89543 4.89543 5 6 5H58C59.1046 5 60 5.89543 60 7V43C60 44.1046 59.1046 45 58 45H39.05C39.2848 53 40.3792 53 43 53V55H21V53C23.6207 53 24.7152 53 24.95 45H20V46C20 47.6569 18.6569 49 17 49H3C1.34315 49 0 47.6569 0 46V20C0 18.3431 1.34315 17 3 17H4V7Z" fill="url(#paint0_linear)"/>
</mask>
<g mask="url(#mask0)">
<path d="M25 41H39C39 53 40 53 43 53V55H21V53C24 53 25 53 25 41Z" fill="url(#paint1_linear)"/>
<g filter="url(#filter0_i)">
<rect x="4" y="5" width="56" height="40" rx="2" fill="url(#paint2_linear)"/>
<rect x="4" y="5" width="56" height="40" rx="2" fill="url(#paint3_linear)"/>
<rect x="4" y="5" width="56" height="40" rx="2" fill="url(#paint4_linear)"/>
<rect x="4" y="5" width="56" height="40" rx="2" fill="url(#paint5_linear)"/>
</g>
<path d="M4 41H60V43C60 44.1046 59.1046 45 58 45H6C4.89543 45 4 44.1046 4 43V41Z" fill="url(#paint6_linear)"/>
<g filter="url(#filter1_d)">
<g filter="url(#filter2_ddi)">
<rect y="49" width="32" height="20" rx="3" transform="rotate(-90 0 49)" fill="url(#paint7_linear)"/>
</g>
</g>
<g filter="url(#filter3_d)">
<path d="M13.2403 32.5659C13.5762 32.7578 13.5762 33.2422 13.2403 33.4341L7.74807 36.5725C7.41474 36.763 7 36.5223 7 36.1384V29.8616C7 29.4777 7.41474 29.237 7.74807 29.4275L13.2403 32.5659Z" fill="url(#paint8_linear)"/>
</g>
</g>
<defs>
<filter id="filter0_i" x="4" y="5" width="56" height="40.5" filterUnits="userSpaceOnUse" color-interpolation-filters="sRGB">
<feFlood flood-opacity="0" result="BackgroundImageFix"/>
<feBlend mode="normal" in="SourceGraphic" in2="BackgroundImageFix" result="shape"/>
<feColorMatrix in="SourceAlpha" type="matrix" values="0 0 0 0 0 0 0 0 0 0 0 0 0 0 0 0 0 0 127 0" result="hardAlpha"/>
<feOffset dy="0.5"/>
<feGaussianBlur stdDeviation="0.25"/>
<feComposite in2="hardAlpha" operator="arithmetic" k2="-1" k3="1"/>
<feColorMatrix type="matrix" values="0 0 0 0 1 0 0 0 0 1 0 0 0 0 1 0 0 0 0.56 0"/>
<feBlend mode="normal" in2="shape" result="effect1_innerShadow"/>
</filter>
<filter id="filter1_d" x="-4" y="13" width="28" height="40" filterUnits="userSpaceOnUse" color-interpolation-filters="sRGB">
<feFlood flood-opacity="0" result="BackgroundImageFix"/>
<feColorMatrix in="SourceAlpha" type="matrix" values="0 0 0 0 0 0 0 0 0 0 0 0 0 0 0 0 0 0 127 0"/>
<feOffset/>
<feGaussianBlur stdDeviation="2"/>
<feColorMatrix type="matrix" values="0 0 0 0 0 0 0 0 0 0 0 0 0 0 0 0 0 0 0.48 0"/>
<feBlend mode="normal" in2="BackgroundImageFix" result="effect1_dropShadow"/>
<feBlend mode="normal" in="SourceGraphic" in2="effect1_dropShadow" result="shape"/>
</filter>
<filter id="filter2_ddi" x="-4" y="15" width="28" height="40" filterUnits="userSpaceOnUse" color-interpolation-filters="sRGB">
<feFlood flood-opacity="0" result="BackgroundImageFix"/>
<feColorMatrix in="SourceAlpha" type="matrix" values="0 0 0 0 0 0 0 0 0 0 0 0 0 0 0 0 0 0 127 0"/>
<feOffset dy="1"/>
<feGaussianBlur stdDeviation="1"/>
<feColorMatrix type="matrix" values="0 0 0 0 0 0 0 0 0 0 0 0 0 0 0.266667 0 0 0 0.32 0"/>
<feBlend mode="normal" in2="BackgroundImageFix" result="effect1_dropShadow"/>
<feColorMatrix in="SourceAlpha" type="matrix" values="0 0 0 0 0 0 0 0 0 0 0 0 0 0 0 0 0 0 127 0"/>
<feOffset dy="2"/>
<feGaussianBlur stdDeviation="2"/>
<feColorMatrix type="matrix" values="0 0 0 0 0 0 0 0 0 0 0 0 0 0 0.266667 0 0 0 0.16 0"/>
<feBlend mode="normal" in2="effect1_dropShadow" result="effect2_dropShadow"/>
<feBlend mode="normal" in="SourceGraphic" in2="effect2_dropShadow" result="shape"/>
<feColorMatrix in="SourceAlpha" type="matrix" values="0 0 0 0 0 0 0 0 0 0 0 0 0 0 0 0 0 0 127 0" result="hardAlpha"/>
<feOffset dy="0.5"/>
<feGaussianBlur stdDeviation="0.25"/>
<feComposite in2="hardAlpha" operator="arithmetic" k2="-1" k3="1"/>
<feColorMatrix type="matrix" values="0 0 0 0 1 0 0 0 0 1 0 0 0 0 1 0 0 0 0.48 0"/>
<feBlend mode="normal" in2="shape" result="effect3_innerShadow"/>
</filter>
<filter id="filter3_d" x="6.25" y="29.1113" width="7.49222" height="8.2783" filterUnits="userSpaceOnUse" color-interpolation-filters="sRGB">
<feFlood flood-opacity="0" result="BackgroundImageFix"/>
<feColorMatrix in="SourceAlpha" type="matrix" values="0 0 0 0 0 0 0 0 0 0 0 0 0 0 0 0 0 0 127 0"/>
<feOffset dx="-0.25" dy="0.25"/>
<feGaussianBlur stdDeviation="0.25"/>
<feColorMatrix type="matrix" values="0 0 0 0 0 0 0 0 0 0 0 0 0 0 0 0 0 0 0.16 0"/>
<feBlend mode="normal" in2="BackgroundImageFix" result="effect1_dropShadow"/>
<feBlend mode="normal" in="SourceGraphic" in2="effect1_dropShadow" result="shape"/>
</filter>
<linearGradient id="paint0_linear" x1="8.8134e-07" y1="48" x2="24.116" y2="26.2956" gradientUnits="userSpaceOnUse">
<stop stop-color="#1C1D1F"/>
<stop offset="1" stop-color="#43464D"/>
</linearGradient>
<linearGradient id="paint1_linear" x1="32" y1="40.9863" x2="32" y2="54.9863" gradientUnits="userSpaceOnUse">
<stop stop-color="#252629"/>
<stop offset="0.857143" stop-color="#5A5E66"/>
<stop offset="0.857143" stop-color="#83878F"/>
<stop offset="1" stop-color="#8D9199"/>
</linearGradient>
<linearGradient id="paint2_linear" x1="32" y1="5" x2="32" y2="45" gradientUnits="userSpaceOnUse">
<stop stop-color="#2F3033"/>
<stop offset="1" stop-color="#1C1D1F"/>
</linearGradient>
<linearGradient id="paint3_linear" x1="4" y1="5" x2="52.3848" y2="50.1591" gradientUnits="userSpaceOnUse">
<stop stop-color="#252629"/>
<stop offset="1" stop-color="#5A5E66"/>
</linearGradient>
<linearGradient id="paint4_linear" x1="60" y1="45" x2="22.1622" y2="-7.97297" gradientUnits="userSpaceOnUse">
<stop stop-color="#02B5FC"/>
<stop offset="1" stop-color="#0274C3"/>
</linearGradient>
<linearGradient id="paint5_linear" x1="4" y1="5" x2="53.5575" y2="48.3628" gradientUnits="userSpaceOnUse">
<stop stop-color="#1F8FFF"/>
<stop offset="1" stop-color="#9175FF"/>
</linearGradient>
<linearGradient id="paint6_linear" x1="32" y1="41" x2="32" y2="45" gradientUnits="userSpaceOnUse">
<stop stop-color="#A2A9B8"/>
<stop offset="1" stop-color="#9DA4B2"/>
</linearGradient>
<linearGradient id="paint7_linear" x1="0" y1="49" x2="24.1996" y2="74.8129" gradientUnits="userSpaceOnUse">
<stop stop-color="#1C1D1F"/>
<stop offset="1" stop-color="#43464D"/>
</linearGradient>
<linearGradient id="paint8_linear" x1="13.2612" y1="29.8441" x2="8.18398" y2="35.9524" gradientUnits="userSpaceOnUse">
<stop stop-color="white"/>
<stop offset="1" stop-color="#F5F5F5"/>
</linearGradient>
</defs>
</svg>
