<svg width="60" height="60" viewBox="0 0 60 60" fill="none" xmlns="http://www.w3.org/2000/svg">
<mask id="mask0" mask-type="alpha" maskUnits="userSpaceOnUse" x="0" y="0" width="60" height="60">
<path fill-rule="evenodd" clip-rule="evenodd" d="M9.6655 0C8.94521 0 8.28056 0.387308 7.92545 1.01397L0.558784 14.014C0.212177 14.6256 0.212176 15.3744 0.558783 15.986L7.92545 28.986C8.28056 29.6127 8.94521 30 9.6655 30C8.94521 30 8.28056 30.3873 7.92545 31.014L0.558784 44.014C0.212177 44.6256 0.212176 45.3744 0.558783 45.986L7.92545 58.986C8.28056 59.6127 8.94521 60 9.6655 60H24.3346C25.0549 60 25.7195 59.6127 26.0746 58.986L33.4413 45.986C33.7879 45.3744 33.7879 44.6256 33.4413 44.014L33.4302 43.9944C33.7864 44.6162 34.4484 45 35.1655 45H49.8346C50.5549 45 51.2195 44.6127 51.5746 43.9861L58.9413 30.9861C59.2879 30.3744 59.2879 29.6257 58.9413 29.014L51.5746 16.014C51.2195 15.3874 50.5549 15 49.8346 15L35.1655 15C34.4452 15 33.7806 15.3874 33.4255 16.014L33.4413 15.986C33.7879 15.3744 33.7879 14.6256 33.4413 14.014L26.0746 1.01398C25.7195 0.387311 25.0549 0 24.3346 0H9.6655ZM26.0746 28.986C25.7195 29.6127 25.0549 30 24.3346 30C25.0517 30 25.7136 30.3839 26.0699 31.0057L26.0588 30.9861C25.7122 30.3744 25.7122 29.6257 26.0588 29.014L26.0746 28.986Z" fill="url(#paint0_linear)"/>
<path fill-rule="evenodd" clip-rule="evenodd" d="M9.6655 0C8.94521 0 8.28056 0.387308 7.92545 1.01397L0.558784 14.014C0.212177 14.6256 0.212176 15.3744 0.558783 15.986L7.92545 28.986C8.28056 29.6127 8.94521 30 9.6655 30C8.94521 30 8.28056 30.3873 7.92545 31.014L0.558784 44.014C0.212177 44.6256 0.212176 45.3744 0.558783 45.986L7.92545 58.986C8.28056 59.6127 8.94521 60 9.6655 60H24.3346C25.0549 60 25.7195 59.6127 26.0746 58.986L33.4413 45.986C33.7879 45.3744 33.7879 44.6256 33.4413 44.014L33.4302 43.9944C33.7864 44.6162 34.4484 45 35.1655 45H49.8346C50.5549 45 51.2195 44.6127 51.5746 43.9861L58.9413 30.9861C59.2879 30.3744 59.2879 29.6257 58.9413 29.014L51.5746 16.014C51.2195 15.3874 50.5549 15 49.8346 15L35.1655 15C34.4452 15 33.7806 15.3874 33.4255 16.014L33.4413 15.986C33.7879 15.3744 33.7879 14.6256 33.4413 14.014L26.0746 1.01398C25.7195 0.387311 25.0549 0 24.3346 0H9.6655ZM26.0746 28.986C25.7195 29.6127 25.0549 30 24.3346 30C25.0517 30 25.7136 30.3839 26.0699 31.0057L26.0588 30.9861C25.7122 30.3744 25.7122 29.6257 26.0588 29.014L26.0746 28.986Z" fill="url(#paint1_linear)"/>
<path fill-rule="evenodd" clip-rule="evenodd" d="M9.6655 0C8.94521 0 8.28056 0.387308 7.92545 1.01397L0.558784 14.014C0.212177 14.6256 0.212176 15.3744 0.558783 15.986L7.92545 28.986C8.28056 29.6127 8.94521 30 9.6655 30C8.94521 30 8.28056 30.3873 7.92545 31.014L0.558784 44.014C0.212177 44.6256 0.212176 45.3744 0.558783 45.986L7.92545 58.986C8.28056 59.6127 8.94521 60 9.6655 60H24.3346C25.0549 60 25.7195 59.6127 26.0746 58.986L33.4413 45.986C33.7879 45.3744 33.7879 44.6256 33.4413 44.014L33.4302 43.9944C33.7864 44.6162 34.4484 45 35.1655 45H49.8346C50.5549 45 51.2195 44.6127 51.5746 43.9861L58.9413 30.9861C59.2879 30.3744 59.2879 29.6257 58.9413 29.014L51.5746 16.014C51.2195 15.3874 50.5549 15 49.8346 15L35.1655 15C34.4452 15 33.7806 15.3874 33.4255 16.014L33.4413 15.986C33.7879 15.3744 33.7879 14.6256 33.4413 14.014L26.0746 1.01398C25.7195 0.387311 25.0549 0 24.3346 0H9.6655ZM26.0746 28.986C25.7195 29.6127 25.0549 30 24.3346 30C25.0517 30 25.7136 30.3839 26.0699 31.0057L26.0588 30.9861C25.7122 30.3744 25.7122 29.6257 26.0588 29.014L26.0746 28.986Z" fill="url(#paint2_linear)"/>
<path fill-rule="evenodd" clip-rule="evenodd" d="M9.6655 0C8.94521 0 8.28056 0.387308 7.92545 1.01397L0.558784 14.014C0.212177 14.6256 0.212176 15.3744 0.558783 15.986L7.92545 28.986C8.28056 29.6127 8.94521 30 9.6655 30C8.94521 30 8.28056 30.3873 7.92545 31.014L0.558784 44.014C0.212177 44.6256 0.212176 45.3744 0.558783 45.986L7.92545 58.986C8.28056 59.6127 8.94521 60 9.6655 60H24.3346C25.0549 60 25.7195 59.6127 26.0746 58.986L33.4413 45.986C33.7879 45.3744 33.7879 44.6256 33.4413 44.014L33.4302 43.9944C33.7864 44.6162 34.4484 45 35.1655 45H49.8346C50.5549 45 51.2195 44.6127 51.5746 43.9861L58.9413 30.9861C59.2879 30.3744 59.2879 29.6257 58.9413 29.014L51.5746 16.014C51.2195 15.3874 50.5549 15 49.8346 15L35.1655 15C34.4452 15 33.7806 15.3874 33.4255 16.014L33.4413 15.986C33.7879 15.3744 33.7879 14.6256 33.4413 14.014L26.0746 1.01398C25.7195 0.387311 25.0549 0 24.3346 0H9.6655ZM26.0746 28.986C25.7195 29.6127 25.0549 30 24.3346 30C25.0517 30 25.7136 30.3839 26.0699 31.0057L26.0588 30.9861C25.7122 30.3744 25.7122 29.6257 26.0588 29.014L26.0746 28.986Z" fill="url(#paint3_linear)"/>
</mask>
<g mask="url(#mask0)">
<g filter="url(#filter0_i)">
<path d="M34 15L51 15L59.5 30L51 45H34L25.5 30L34 15Z" fill="url(#paint4_linear)"/>
</g>
<g filter="url(#filter1_d)">
<path d="M41.3622 35.1717H40.6242C39.8322 35.1717 39.1062 35.0337 38.4462 34.7577C37.7862 34.4817 37.2162 34.1037 36.7362 33.6237C36.2682 33.1317 35.9022 32.5557 35.6382 31.8957C35.3742 31.2357 35.2422 30.5217 35.2422 29.7537C35.2422 28.9857 35.3682 28.2717 35.6202 27.6117C35.8842 26.9517 36.2502 26.3757 36.7182 25.8837C37.1862 25.3917 37.7502 25.0077 38.4102 24.7317C39.0702 24.4437 39.8082 24.2997 40.6242 24.2997H41.3622V22.6797H44.1342V24.2997H44.8722C45.6882 24.2997 46.4262 24.4437 47.0862 24.7317C47.7462 25.0077 48.3102 25.3917 48.7782 25.8837C49.2462 26.3757 49.6062 26.9517 49.8582 27.6117C50.1222 28.2717 50.2542 28.9857 50.2542 29.7537C50.2542 30.5217 50.1222 31.2357 49.8582 31.8957C49.5942 32.5557 49.2222 33.1317 48.7422 33.6237C48.2742 34.1037 47.7102 34.4817 47.0502 34.7577C46.3902 35.0337 45.6642 35.1717 44.8722 35.1717H44.1342V36.7917H41.3622V35.1717ZM41.4162 32.9217V26.5497H40.6242C40.1682 26.5497 39.7782 26.6217 39.4542 26.7657C39.1302 26.8977 38.8662 27.0837 38.6622 27.3237C38.4582 27.5517 38.3022 27.8277 38.1942 28.1517C38.0982 28.4637 38.0502 28.8057 38.0502 29.1777V30.2937C38.0502 31.0497 38.2602 31.6797 38.6802 32.1837C39.1122 32.6757 39.7602 32.9217 40.6242 32.9217H41.4162ZM44.8722 32.9217C45.7362 32.9217 46.3782 32.6757 46.7982 32.1837C47.2302 31.6797 47.4462 31.0497 47.4462 30.2937V29.1777C47.4462 28.8057 47.3922 28.4637 47.2842 28.1517C47.1882 27.8277 47.0382 27.5517 46.8342 27.3237C46.6302 27.0837 46.3602 26.8977 46.0242 26.7657C45.7002 26.6217 45.3162 26.5497 44.8722 26.5497H44.0802V32.9217H44.8722Z" fill="url(#paint5_linear)"/>
</g>
<path d="M8.5 30L25.5 30L34 45L25.5 60H8.5L-9.53674e-07 45L8.5 30Z" fill="url(#paint6_linear)"/>
<path d="M8.5 30L25.5 30L34 45L25.5 60H8.5L-9.53674e-07 45L8.5 30Z" fill="url(#paint7_linear)"/>
<path d="M8.5 30L25.5 30L34 45L25.5 60H8.5L-9.53674e-07 45L8.5 30Z" fill="url(#paint8_linear)"/>
<g filter="url(#filter2_d)">
<path d="M17.0006 53.216C16.1726 53.216 15.4166 53.078 14.7326 52.802C14.0486 52.526 13.4666 52.118 12.9866 51.578C12.5066 51.026 12.1346 50.348 11.8706 49.544C11.6066 48.728 11.4746 47.786 11.4746 46.718C11.4746 45.65 11.6066 44.714 11.8706 43.91C12.1346 43.094 12.5066 42.416 12.9866 41.876C13.4666 41.324 14.0486 40.91 14.7326 40.634C15.4166 40.358 16.1726 40.22 17.0006 40.22C17.8286 40.22 18.5846 40.358 19.2686 40.634C19.9526 40.91 20.5346 41.324 21.0146 41.876C21.4946 42.416 21.8666 43.094 22.1306 43.91C22.3946 44.714 22.5266 45.65 22.5266 46.718C22.5266 47.786 22.3946 48.728 22.1306 49.544C21.8666 50.348 21.4946 51.026 21.0146 51.578C20.5346 52.118 19.9526 52.526 19.2686 52.802C18.5846 53.078 17.8286 53.216 17.0006 53.216ZM17.0006 50.786C17.8286 50.786 18.4706 50.516 18.9266 49.976C19.3946 49.436 19.6286 48.662 19.6286 47.654V45.782C19.6286 44.774 19.3946 44 18.9266 43.46C18.4706 42.92 17.8286 42.65 17.0006 42.65C16.1726 42.65 15.5246 42.92 15.0566 43.46C14.6006 44 14.3726 44.774 14.3726 45.782V47.654C14.3726 48.662 14.6006 49.436 15.0566 49.976C15.5246 50.516 16.1726 50.786 17.0006 50.786ZM15.0206 39.302C14.4806 39.302 14.1026 39.194 13.8866 38.978C13.6826 38.75 13.5806 38.48 13.5806 38.168V37.718C13.5806 37.406 13.6826 37.142 13.8866 36.926C14.1026 36.698 14.4806 36.584 15.0206 36.584C15.5606 36.584 15.9326 36.698 16.1366 36.926C16.3526 37.142 16.4606 37.406 16.4606 37.718V38.168C16.4606 38.48 16.3526 38.75 16.1366 38.978C15.9326 39.194 15.5606 39.302 15.0206 39.302ZM18.9806 39.302C18.4406 39.302 18.0626 39.194 17.8466 38.978C17.6426 38.75 17.5406 38.48 17.5406 38.168V37.718C17.5406 37.406 17.6426 37.142 17.8466 36.926C18.0626 36.698 18.4406 36.584 18.9806 36.584C19.5206 36.584 19.8926 36.698 20.0966 36.926C20.3126 37.142 20.4206 37.406 20.4206 37.718V38.168C20.4206 38.48 20.3126 38.75 20.0966 38.978C19.8926 39.194 19.5206 39.302 18.9806 39.302Z" fill="url(#paint9_linear)"/>
<path d="M17.0006 53.216C16.1726 53.216 15.4166 53.078 14.7326 52.802C14.0486 52.526 13.4666 52.118 12.9866 51.578C12.5066 51.026 12.1346 50.348 11.8706 49.544C11.6066 48.728 11.4746 47.786 11.4746 46.718C11.4746 45.65 11.6066 44.714 11.8706 43.91C12.1346 43.094 12.5066 42.416 12.9866 41.876C13.4666 41.324 14.0486 40.91 14.7326 40.634C15.4166 40.358 16.1726 40.22 17.0006 40.22C17.8286 40.22 18.5846 40.358 19.2686 40.634C19.9526 40.91 20.5346 41.324 21.0146 41.876C21.4946 42.416 21.8666 43.094 22.1306 43.91C22.3946 44.714 22.5266 45.65 22.5266 46.718C22.5266 47.786 22.3946 48.728 22.1306 49.544C21.8666 50.348 21.4946 51.026 21.0146 51.578C20.5346 52.118 19.9526 52.526 19.2686 52.802C18.5846 53.078 17.8286 53.216 17.0006 53.216ZM17.0006 50.786C17.8286 50.786 18.4706 50.516 18.9266 49.976C19.3946 49.436 19.6286 48.662 19.6286 47.654V45.782C19.6286 44.774 19.3946 44 18.9266 43.46C18.4706 42.92 17.8286 42.65 17.0006 42.65C16.1726 42.65 15.5246 42.92 15.0566 43.46C14.6006 44 14.3726 44.774 14.3726 45.782V47.654C14.3726 48.662 14.6006 49.436 15.0566 49.976C15.5246 50.516 16.1726 50.786 17.0006 50.786ZM15.0206 39.302C14.4806 39.302 14.1026 39.194 13.8866 38.978C13.6826 38.75 13.5806 38.48 13.5806 38.168V37.718C13.5806 37.406 13.6826 37.142 13.8866 36.926C14.1026 36.698 14.4806 36.584 15.0206 36.584C15.5606 36.584 15.9326 36.698 16.1366 36.926C16.3526 37.142 16.4606 37.406 16.4606 37.718V38.168C16.4606 38.48 16.3526 38.75 16.1366 38.978C15.9326 39.194 15.5606 39.302 15.0206 39.302ZM18.9806 39.302C18.4406 39.302 18.0626 39.194 17.8466 38.978C17.6426 38.75 17.5406 38.48 17.5406 38.168V37.718C17.5406 37.406 17.6426 37.142 17.8466 36.926C18.0626 36.698 18.4406 36.584 18.9806 36.584C19.5206 36.584 19.8926 36.698 20.0966 36.926C20.3126 37.142 20.4206 37.406 20.4206 37.718V38.168C20.4206 38.48 20.3126 38.75 20.0966 38.978C19.8926 39.194 19.5206 39.302 18.9806 39.302Z" fill="url(#paint10_linear)"/>
<path d="M17.0006 53.216C16.1726 53.216 15.4166 53.078 14.7326 52.802C14.0486 52.526 13.4666 52.118 12.9866 51.578C12.5066 51.026 12.1346 50.348 11.8706 49.544C11.6066 48.728 11.4746 47.786 11.4746 46.718C11.4746 45.65 11.6066 44.714 11.8706 43.91C12.1346 43.094 12.5066 42.416 12.9866 41.876C13.4666 41.324 14.0486 40.91 14.7326 40.634C15.4166 40.358 16.1726 40.22 17.0006 40.22C17.8286 40.22 18.5846 40.358 19.2686 40.634C19.9526 40.91 20.5346 41.324 21.0146 41.876C21.4946 42.416 21.8666 43.094 22.1306 43.91C22.3946 44.714 22.5266 45.65 22.5266 46.718C22.5266 47.786 22.3946 48.728 22.1306 49.544C21.8666 50.348 21.4946 51.026 21.0146 51.578C20.5346 52.118 19.9526 52.526 19.2686 52.802C18.5846 53.078 17.8286 53.216 17.0006 53.216ZM17.0006 50.786C17.8286 50.786 18.4706 50.516 18.9266 49.976C19.3946 49.436 19.6286 48.662 19.6286 47.654V45.782C19.6286 44.774 19.3946 44 18.9266 43.46C18.4706 42.92 17.8286 42.65 17.0006 42.65C16.1726 42.65 15.5246 42.92 15.0566 43.46C14.6006 44 14.3726 44.774 14.3726 45.782V47.654C14.3726 48.662 14.6006 49.436 15.0566 49.976C15.5246 50.516 16.1726 50.786 17.0006 50.786ZM15.0206 39.302C14.4806 39.302 14.1026 39.194 13.8866 38.978C13.6826 38.75 13.5806 38.48 13.5806 38.168V37.718C13.5806 37.406 13.6826 37.142 13.8866 36.926C14.1026 36.698 14.4806 36.584 15.0206 36.584C15.5606 36.584 15.9326 36.698 16.1366 36.926C16.3526 37.142 16.4606 37.406 16.4606 37.718V38.168C16.4606 38.48 16.3526 38.75 16.1366 38.978C15.9326 39.194 15.5606 39.302 15.0206 39.302ZM18.9806 39.302C18.4406 39.302 18.0626 39.194 17.8466 38.978C17.6426 38.75 17.5406 38.48 17.5406 38.168V37.718C17.5406 37.406 17.6426 37.142 17.8466 36.926C18.0626 36.698 18.4406 36.584 18.9806 36.584C19.5206 36.584 19.8926 36.698 20.0966 36.926C20.3126 37.142 20.4206 37.406 20.4206 37.718V38.168C20.4206 38.48 20.3126 38.75 20.0966 38.978C19.8926 39.194 19.5206 39.302 18.9806 39.302Z" fill="url(#paint11_linear)"/>
<path d="M17.0006 53.216C16.1726 53.216 15.4166 53.078 14.7326 52.802C14.0486 52.526 13.4666 52.118 12.9866 51.578C12.5066 51.026 12.1346 50.348 11.8706 49.544C11.6066 48.728 11.4746 47.786 11.4746 46.718C11.4746 45.65 11.6066 44.714 11.8706 43.91C12.1346 43.094 12.5066 42.416 12.9866 41.876C13.4666 41.324 14.0486 40.91 14.7326 40.634C15.4166 40.358 16.1726 40.22 17.0006 40.22C17.8286 40.22 18.5846 40.358 19.2686 40.634C19.9526 40.91 20.5346 41.324 21.0146 41.876C21.4946 42.416 21.8666 43.094 22.1306 43.91C22.3946 44.714 22.5266 45.65 22.5266 46.718C22.5266 47.786 22.3946 48.728 22.1306 49.544C21.8666 50.348 21.4946 51.026 21.0146 51.578C20.5346 52.118 19.9526 52.526 19.2686 52.802C18.5846 53.078 17.8286 53.216 17.0006 53.216ZM17.0006 50.786C17.8286 50.786 18.4706 50.516 18.9266 49.976C19.3946 49.436 19.6286 48.662 19.6286 47.654V45.782C19.6286 44.774 19.3946 44 18.9266 43.46C18.4706 42.92 17.8286 42.65 17.0006 42.65C16.1726 42.65 15.5246 42.92 15.0566 43.46C14.6006 44 14.3726 44.774 14.3726 45.782V47.654C14.3726 48.662 14.6006 49.436 15.0566 49.976C15.5246 50.516 16.1726 50.786 17.0006 50.786ZM15.0206 39.302C14.4806 39.302 14.1026 39.194 13.8866 38.978C13.6826 38.75 13.5806 38.48 13.5806 38.168V37.718C13.5806 37.406 13.6826 37.142 13.8866 36.926C14.1026 36.698 14.4806 36.584 15.0206 36.584C15.5606 36.584 15.9326 36.698 16.1366 36.926C16.3526 37.142 16.4606 37.406 16.4606 37.718V38.168C16.4606 38.48 16.3526 38.75 16.1366 38.978C15.9326 39.194 15.5606 39.302 15.0206 39.302ZM18.9806 39.302C18.4406 39.302 18.0626 39.194 17.8466 38.978C17.6426 38.75 17.5406 38.48 17.5406 38.168V37.718C17.5406 37.406 17.6426 37.142 17.8466 36.926C18.0626 36.698 18.4406 36.584 18.9806 36.584C19.5206 36.584 19.8926 36.698 20.0966 36.926C20.3126 37.142 20.4206 37.406 20.4206 37.718V38.168C20.4206 38.48 20.3126 38.75 20.0966 38.978C19.8926 39.194 19.5206 39.302 18.9806 39.302Z" fill="url(#paint12_linear)"/>
<path d="M17.0006 53.216C16.1726 53.216 15.4166 53.078 14.7326 52.802C14.0486 52.526 13.4666 52.118 12.9866 51.578C12.5066 51.026 12.1346 50.348 11.8706 49.544C11.6066 48.728 11.4746 47.786 11.4746 46.718C11.4746 45.65 11.6066 44.714 11.8706 43.91C12.1346 43.094 12.5066 42.416 12.9866 41.876C13.4666 41.324 14.0486 40.91 14.7326 40.634C15.4166 40.358 16.1726 40.22 17.0006 40.22C17.8286 40.22 18.5846 40.358 19.2686 40.634C19.9526 40.91 20.5346 41.324 21.0146 41.876C21.4946 42.416 21.8666 43.094 22.1306 43.91C22.3946 44.714 22.5266 45.65 22.5266 46.718C22.5266 47.786 22.3946 48.728 22.1306 49.544C21.8666 50.348 21.4946 51.026 21.0146 51.578C20.5346 52.118 19.9526 52.526 19.2686 52.802C18.5846 53.078 17.8286 53.216 17.0006 53.216ZM17.0006 50.786C17.8286 50.786 18.4706 50.516 18.9266 49.976C19.3946 49.436 19.6286 48.662 19.6286 47.654V45.782C19.6286 44.774 19.3946 44 18.9266 43.46C18.4706 42.92 17.8286 42.65 17.0006 42.65C16.1726 42.65 15.5246 42.92 15.0566 43.46C14.6006 44 14.3726 44.774 14.3726 45.782V47.654C14.3726 48.662 14.6006 49.436 15.0566 49.976C15.5246 50.516 16.1726 50.786 17.0006 50.786ZM15.0206 39.302C14.4806 39.302 14.1026 39.194 13.8866 38.978C13.6826 38.75 13.5806 38.48 13.5806 38.168V37.718C13.5806 37.406 13.6826 37.142 13.8866 36.926C14.1026 36.698 14.4806 36.584 15.0206 36.584C15.5606 36.584 15.9326 36.698 16.1366 36.926C16.3526 37.142 16.4606 37.406 16.4606 37.718V38.168C16.4606 38.48 16.3526 38.75 16.1366 38.978C15.9326 39.194 15.5606 39.302 15.0206 39.302ZM18.9806 39.302C18.4406 39.302 18.0626 39.194 17.8466 38.978C17.6426 38.75 17.5406 38.48 17.5406 38.168V37.718C17.5406 37.406 17.6426 37.142 17.8466 36.926C18.0626 36.698 18.4406 36.584 18.9806 36.584C19.5206 36.584 19.8926 36.698 20.0966 36.926C20.3126 37.142 20.4206 37.406 20.4206 37.718V38.168C20.4206 38.48 20.3126 38.75 20.0966 38.978C19.8926 39.194 19.5206 39.302 18.9806 39.302Z" fill="url(#paint13_linear)"/>
<path d="M17.0006 53.216C16.1726 53.216 15.4166 53.078 14.7326 52.802C14.0486 52.526 13.4666 52.118 12.9866 51.578C12.5066 51.026 12.1346 50.348 11.8706 49.544C11.6066 48.728 11.4746 47.786 11.4746 46.718C11.4746 45.65 11.6066 44.714 11.8706 43.91C12.1346 43.094 12.5066 42.416 12.9866 41.876C13.4666 41.324 14.0486 40.91 14.7326 40.634C15.4166 40.358 16.1726 40.22 17.0006 40.22C17.8286 40.22 18.5846 40.358 19.2686 40.634C19.9526 40.91 20.5346 41.324 21.0146 41.876C21.4946 42.416 21.8666 43.094 22.1306 43.91C22.3946 44.714 22.5266 45.65 22.5266 46.718C22.5266 47.786 22.3946 48.728 22.1306 49.544C21.8666 50.348 21.4946 51.026 21.0146 51.578C20.5346 52.118 19.9526 52.526 19.2686 52.802C18.5846 53.078 17.8286 53.216 17.0006 53.216ZM17.0006 50.786C17.8286 50.786 18.4706 50.516 18.9266 49.976C19.3946 49.436 19.6286 48.662 19.6286 47.654V45.782C19.6286 44.774 19.3946 44 18.9266 43.46C18.4706 42.92 17.8286 42.65 17.0006 42.65C16.1726 42.65 15.5246 42.92 15.0566 43.46C14.6006 44 14.3726 44.774 14.3726 45.782V47.654C14.3726 48.662 14.6006 49.436 15.0566 49.976C15.5246 50.516 16.1726 50.786 17.0006 50.786ZM15.0206 39.302C14.4806 39.302 14.1026 39.194 13.8866 38.978C13.6826 38.75 13.5806 38.48 13.5806 38.168V37.718C13.5806 37.406 13.6826 37.142 13.8866 36.926C14.1026 36.698 14.4806 36.584 15.0206 36.584C15.5606 36.584 15.9326 36.698 16.1366 36.926C16.3526 37.142 16.4606 37.406 16.4606 37.718V38.168C16.4606 38.48 16.3526 38.75 16.1366 38.978C15.9326 39.194 15.5606 39.302 15.0206 39.302ZM18.9806 39.302C18.4406 39.302 18.0626 39.194 17.8466 38.978C17.6426 38.75 17.5406 38.48 17.5406 38.168V37.718C17.5406 37.406 17.6426 37.142 17.8466 36.926C18.0626 36.698 18.4406 36.584 18.9806 36.584C19.5206 36.584 19.8926 36.698 20.0966 36.926C20.3126 37.142 20.4206 37.406 20.4206 37.718V38.168C20.4206 38.48 20.3126 38.75 20.0966 38.978C19.8926 39.194 19.5206 39.302 18.9806 39.302Z" fill="url(#paint14_linear)"/>
</g>
<g filter="url(#filter3_ddi)">
<path d="M8.5 0L25.5 8.60323e-07L34 15L25.5 30H8.5L-9.53674e-07 15L8.5 0Z" fill="url(#paint15_linear)"/>
<path d="M8.5 0L25.5 8.60323e-07L34 15L25.5 30H8.5L-9.53674e-07 15L8.5 0Z" fill="url(#paint16_linear)"/>
<path d="M8.5 0L25.5 8.60323e-07L34 15L25.5 30H8.5L-9.53674e-07 15L8.5 0Z" fill="url(#paint17_linear)"/>
<path d="M8.5 0L25.5 8.60323e-07L34 15L25.5 30H8.5L-9.53674e-07 15L8.5 0Z" fill="url(#paint18_linear)"/>
</g>
<g filter="url(#filter4_d)">
<path d="M16.3384 21.2157C15.2344 21.2157 14.2984 21.0297 13.5304 20.6577C12.7624 20.2737 12.1084 19.7817 11.5684 19.1817L13.3684 17.3637C14.2204 18.3237 15.2704 18.8037 16.5184 18.8037C17.1904 18.8037 17.6884 18.6657 18.0124 18.3897C18.3364 18.1137 18.4984 17.7477 18.4984 17.2917C18.4984 16.9437 18.4024 16.6557 18.2104 16.4277C18.0184 16.1877 17.6284 16.0257 17.0404 15.9417L15.7984 15.7797C14.4664 15.6117 13.4884 15.2097 12.8644 14.5737C12.2524 13.9377 11.9464 13.0917 11.9464 12.0357C11.9464 11.4717 12.0544 10.9557 12.2704 10.4877C12.4864 10.0197 12.7924 9.61773 13.1884 9.28173C13.5964 8.94573 14.0884 8.68773 14.6644 8.50773C15.2524 8.31573 15.9184 8.21973 16.6624 8.21973C17.6104 8.21973 18.4444 8.36973 19.1644 8.66973C19.8844 8.96973 20.5024 9.40773 21.0184 9.98373L19.2004 11.8197C18.9004 11.4717 18.5344 11.1897 18.1024 10.9737C17.6824 10.7457 17.1484 10.6317 16.5004 10.6317C15.8884 10.6317 15.4324 10.7397 15.1324 10.9557C14.8324 11.1717 14.6824 11.4717 14.6824 11.8557C14.6824 12.2877 14.7964 12.5997 15.0244 12.7917C15.2644 12.9837 15.6484 13.1217 16.1764 13.2057L17.4184 13.4037C18.7144 13.6077 19.6744 14.0097 20.2984 14.6097C20.9224 15.1977 21.2344 16.0377 21.2344 17.1297C21.2344 17.7297 21.1264 18.2817 20.9104 18.7857C20.6944 19.2897 20.3764 19.7217 19.9564 20.0817C19.5484 20.4417 19.0384 20.7237 18.4264 20.9277C17.8144 21.1197 17.1184 21.2157 16.3384 21.2157Z" fill="url(#paint19_linear)"/>
<path d="M16.3384 21.2157C15.2344 21.2157 14.2984 21.0297 13.5304 20.6577C12.7624 20.2737 12.1084 19.7817 11.5684 19.1817L13.3684 17.3637C14.2204 18.3237 15.2704 18.8037 16.5184 18.8037C17.1904 18.8037 17.6884 18.6657 18.0124 18.3897C18.3364 18.1137 18.4984 17.7477 18.4984 17.2917C18.4984 16.9437 18.4024 16.6557 18.2104 16.4277C18.0184 16.1877 17.6284 16.0257 17.0404 15.9417L15.7984 15.7797C14.4664 15.6117 13.4884 15.2097 12.8644 14.5737C12.2524 13.9377 11.9464 13.0917 11.9464 12.0357C11.9464 11.4717 12.0544 10.9557 12.2704 10.4877C12.4864 10.0197 12.7924 9.61773 13.1884 9.28173C13.5964 8.94573 14.0884 8.68773 14.6644 8.50773C15.2524 8.31573 15.9184 8.21973 16.6624 8.21973C17.6104 8.21973 18.4444 8.36973 19.1644 8.66973C19.8844 8.96973 20.5024 9.40773 21.0184 9.98373L19.2004 11.8197C18.9004 11.4717 18.5344 11.1897 18.1024 10.9737C17.6824 10.7457 17.1484 10.6317 16.5004 10.6317C15.8884 10.6317 15.4324 10.7397 15.1324 10.9557C14.8324 11.1717 14.6824 11.4717 14.6824 11.8557C14.6824 12.2877 14.7964 12.5997 15.0244 12.7917C15.2644 12.9837 15.6484 13.1217 16.1764 13.2057L17.4184 13.4037C18.7144 13.6077 19.6744 14.0097 20.2984 14.6097C20.9224 15.1977 21.2344 16.0377 21.2344 17.1297C21.2344 17.7297 21.1264 18.2817 20.9104 18.7857C20.6944 19.2897 20.3764 19.7217 19.9564 20.0817C19.5484 20.4417 19.0384 20.7237 18.4264 20.9277C17.8144 21.1197 17.1184 21.2157 16.3384 21.2157Z" fill="url(#paint20_linear)"/>
<path d="M16.3384 21.2157C15.2344 21.2157 14.2984 21.0297 13.5304 20.6577C12.7624 20.2737 12.1084 19.7817 11.5684 19.1817L13.3684 17.3637C14.2204 18.3237 15.2704 18.8037 16.5184 18.8037C17.1904 18.8037 17.6884 18.6657 18.0124 18.3897C18.3364 18.1137 18.4984 17.7477 18.4984 17.2917C18.4984 16.9437 18.4024 16.6557 18.2104 16.4277C18.0184 16.1877 17.6284 16.0257 17.0404 15.9417L15.7984 15.7797C14.4664 15.6117 13.4884 15.2097 12.8644 14.5737C12.2524 13.9377 11.9464 13.0917 11.9464 12.0357C11.9464 11.4717 12.0544 10.9557 12.2704 10.4877C12.4864 10.0197 12.7924 9.61773 13.1884 9.28173C13.5964 8.94573 14.0884 8.68773 14.6644 8.50773C15.2524 8.31573 15.9184 8.21973 16.6624 8.21973C17.6104 8.21973 18.4444 8.36973 19.1644 8.66973C19.8844 8.96973 20.5024 9.40773 21.0184 9.98373L19.2004 11.8197C18.9004 11.4717 18.5344 11.1897 18.1024 10.9737C17.6824 10.7457 17.1484 10.6317 16.5004 10.6317C15.8884 10.6317 15.4324 10.7397 15.1324 10.9557C14.8324 11.1717 14.6824 11.4717 14.6824 11.8557C14.6824 12.2877 14.7964 12.5997 15.0244 12.7917C15.2644 12.9837 15.6484 13.1217 16.1764 13.2057L17.4184 13.4037C18.7144 13.6077 19.6744 14.0097 20.2984 14.6097C20.9224 15.1977 21.2344 16.0377 21.2344 17.1297C21.2344 17.7297 21.1264 18.2817 20.9104 18.7857C20.6944 19.2897 20.3764 19.7217 19.9564 20.0817C19.5484 20.4417 19.0384 20.7237 18.4264 20.9277C17.8144 21.1197 17.1184 21.2157 16.3384 21.2157Z" fill="url(#paint21_linear)"/>
<path d="M16.3384 21.2157C15.2344 21.2157 14.2984 21.0297 13.5304 20.6577C12.7624 20.2737 12.1084 19.7817 11.5684 19.1817L13.3684 17.3637C14.2204 18.3237 15.2704 18.8037 16.5184 18.8037C17.1904 18.8037 17.6884 18.6657 18.0124 18.3897C18.3364 18.1137 18.4984 17.7477 18.4984 17.2917C18.4984 16.9437 18.4024 16.6557 18.2104 16.4277C18.0184 16.1877 17.6284 16.0257 17.0404 15.9417L15.7984 15.7797C14.4664 15.6117 13.4884 15.2097 12.8644 14.5737C12.2524 13.9377 11.9464 13.0917 11.9464 12.0357C11.9464 11.4717 12.0544 10.9557 12.2704 10.4877C12.4864 10.0197 12.7924 9.61773 13.1884 9.28173C13.5964 8.94573 14.0884 8.68773 14.6644 8.50773C15.2524 8.31573 15.9184 8.21973 16.6624 8.21973C17.6104 8.21973 18.4444 8.36973 19.1644 8.66973C19.8844 8.96973 20.5024 9.40773 21.0184 9.98373L19.2004 11.8197C18.9004 11.4717 18.5344 11.1897 18.1024 10.9737C17.6824 10.7457 17.1484 10.6317 16.5004 10.6317C15.8884 10.6317 15.4324 10.7397 15.1324 10.9557C14.8324 11.1717 14.6824 11.4717 14.6824 11.8557C14.6824 12.2877 14.7964 12.5997 15.0244 12.7917C15.2644 12.9837 15.6484 13.1217 16.1764 13.2057L17.4184 13.4037C18.7144 13.6077 19.6744 14.0097 20.2984 14.6097C20.9224 15.1977 21.2344 16.0377 21.2344 17.1297C21.2344 17.7297 21.1264 18.2817 20.9104 18.7857C20.6944 19.2897 20.3764 19.7217 19.9564 20.0817C19.5484 20.4417 19.0384 20.7237 18.4264 20.9277C17.8144 21.1197 17.1184 21.2157 16.3384 21.2157Z" fill="url(#paint22_linear)"/>
<path d="M16.3384 21.2157C15.2344 21.2157 14.2984 21.0297 13.5304 20.6577C12.7624 20.2737 12.1084 19.7817 11.5684 19.1817L13.3684 17.3637C14.2204 18.3237 15.2704 18.8037 16.5184 18.8037C17.1904 18.8037 17.6884 18.6657 18.0124 18.3897C18.3364 18.1137 18.4984 17.7477 18.4984 17.2917C18.4984 16.9437 18.4024 16.6557 18.2104 16.4277C18.0184 16.1877 17.6284 16.0257 17.0404 15.9417L15.7984 15.7797C14.4664 15.6117 13.4884 15.2097 12.8644 14.5737C12.2524 13.9377 11.9464 13.0917 11.9464 12.0357C11.9464 11.4717 12.0544 10.9557 12.2704 10.4877C12.4864 10.0197 12.7924 9.61773 13.1884 9.28173C13.5964 8.94573 14.0884 8.68773 14.6644 8.50773C15.2524 8.31573 15.9184 8.21973 16.6624 8.21973C17.6104 8.21973 18.4444 8.36973 19.1644 8.66973C19.8844 8.96973 20.5024 9.40773 21.0184 9.98373L19.2004 11.8197C18.9004 11.4717 18.5344 11.1897 18.1024 10.9737C17.6824 10.7457 17.1484 10.6317 16.5004 10.6317C15.8884 10.6317 15.4324 10.7397 15.1324 10.9557C14.8324 11.1717 14.6824 11.4717 14.6824 11.8557C14.6824 12.2877 14.7964 12.5997 15.0244 12.7917C15.2644 12.9837 15.6484 13.1217 16.1764 13.2057L17.4184 13.4037C18.7144 13.6077 19.6744 14.0097 20.2984 14.6097C20.9224 15.1977 21.2344 16.0377 21.2344 17.1297C21.2344 17.7297 21.1264 18.2817 20.9104 18.7857C20.6944 19.2897 20.3764 19.7217 19.9564 20.0817C19.5484 20.4417 19.0384 20.7237 18.4264 20.9277C17.8144 21.1197 17.1184 21.2157 16.3384 21.2157Z" fill="url(#paint23_linear)"/>
<path d="M16.3384 21.2157C15.2344 21.2157 14.2984 21.0297 13.5304 20.6577C12.7624 20.2737 12.1084 19.7817 11.5684 19.1817L13.3684 17.3637C14.2204 18.3237 15.2704 18.8037 16.5184 18.8037C17.1904 18.8037 17.6884 18.6657 18.0124 18.3897C18.3364 18.1137 18.4984 17.7477 18.4984 17.2917C18.4984 16.9437 18.4024 16.6557 18.2104 16.4277C18.0184 16.1877 17.6284 16.0257 17.0404 15.9417L15.7984 15.7797C14.4664 15.6117 13.4884 15.2097 12.8644 14.5737C12.2524 13.9377 11.9464 13.0917 11.9464 12.0357C11.9464 11.4717 12.0544 10.9557 12.2704 10.4877C12.4864 10.0197 12.7924 9.61773 13.1884 9.28173C13.5964 8.94573 14.0884 8.68773 14.6644 8.50773C15.2524 8.31573 15.9184 8.21973 16.6624 8.21973C17.6104 8.21973 18.4444 8.36973 19.1644 8.66973C19.8844 8.96973 20.5024 9.40773 21.0184 9.98373L19.2004 11.8197C18.9004 11.4717 18.5344 11.1897 18.1024 10.9737C17.6824 10.7457 17.1484 10.6317 16.5004 10.6317C15.8884 10.6317 15.4324 10.7397 15.1324 10.9557C14.8324 11.1717 14.6824 11.4717 14.6824 11.8557C14.6824 12.2877 14.7964 12.5997 15.0244 12.7917C15.2644 12.9837 15.6484 13.1217 16.1764 13.2057L17.4184 13.4037C18.7144 13.6077 19.6744 14.0097 20.2984 14.6097C20.9224 15.1977 21.2344 16.0377 21.2344 17.1297C21.2344 17.7297 21.1264 18.2817 20.9104 18.7857C20.6944 19.2897 20.3764 19.7217 19.9564 20.0817C19.5484 20.4417 19.0384 20.7237 18.4264 20.9277C17.8144 21.1197 17.1184 21.2157 16.3384 21.2157Z" fill="url(#paint24_linear)"/>
</g>
</g>
<defs>
<filter id="filter0_i" x="25.5" y="15" width="34" height="30.5" filterUnits="userSpaceOnUse" color-interpolation-filters="sRGB">
<feFlood flood-opacity="0" result="BackgroundImageFix"/>
<feBlend mode="normal" in="SourceGraphic" in2="BackgroundImageFix" result="shape"/>
<feColorMatrix in="SourceAlpha" type="matrix" values="0 0 0 0 0 0 0 0 0 0 0 0 0 0 0 0 0 0 127 0" result="hardAlpha"/>
<feOffset dy="0.5"/>
<feGaussianBlur stdDeviation="0.25"/>
<feComposite in2="hardAlpha" operator="arithmetic" k2="-1" k3="1"/>
<feColorMatrix type="matrix" values="0 0 0 0 1 0 0 0 0 1 0 0 0 0 1 0 0 0 0.56 0"/>
<feBlend mode="normal" in2="shape" result="effect1_innerShadow"/>
</filter>
<filter id="filter1_d" x="33.7422" y="22.1797" width="17.012" height="16.112" filterUnits="userSpaceOnUse" color-interpolation-filters="sRGB">
<feFlood flood-opacity="0" result="BackgroundImageFix"/>
<feColorMatrix in="SourceAlpha" type="matrix" values="0 0 0 0 0 0 0 0 0 0 0 0 0 0 0 0 0 0 127 0"/>
<feOffset dx="-0.5" dy="0.5"/>
<feGaussianBlur stdDeviation="0.5"/>
<feColorMatrix type="matrix" values="0 0 0 0 0 0 0 0 0 0 0 0 0 0 0 0 0 0 0.16 0"/>
<feBlend mode="normal" in2="BackgroundImageFix" result="effect1_dropShadow"/>
<feBlend mode="normal" in="SourceGraphic" in2="effect1_dropShadow" result="shape"/>
</filter>
<filter id="filter2_d" x="9.97461" y="36.084" width="13.052" height="18.632" filterUnits="userSpaceOnUse" color-interpolation-filters="sRGB">
<feFlood flood-opacity="0" result="BackgroundImageFix"/>
<feColorMatrix in="SourceAlpha" type="matrix" values="0 0 0 0 0 0 0 0 0 0 0 0 0 0 0 0 0 0 127 0"/>
<feOffset dx="-0.5" dy="0.5"/>
<feGaussianBlur stdDeviation="0.5"/>
<feColorMatrix type="matrix" values="0 0 0 0 0 0 0 0 0 0 0 0 0 0 0 0 0 0 0.16 0"/>
<feBlend mode="normal" in2="BackgroundImageFix" result="effect1_dropShadow"/>
<feBlend mode="normal" in="SourceGraphic" in2="effect1_dropShadow" result="shape"/>
</filter>
<filter id="filter3_ddi" x="-6" y="-3" width="46" height="42" filterUnits="userSpaceOnUse" color-interpolation-filters="sRGB">
<feFlood flood-opacity="0" result="BackgroundImageFix"/>
<feColorMatrix in="SourceAlpha" type="matrix" values="0 0 0 0 0 0 0 0 0 0 0 0 0 0 0 0 0 0 127 0"/>
<feOffset dy="1"/>
<feGaussianBlur stdDeviation="1.5"/>
<feColorMatrix type="matrix" values="0 0 0 0 0 0 0 0 0 0 0 0 0 0 0 0 0 0 0.4 0"/>
<feBlend mode="normal" in2="BackgroundImageFix" result="effect1_dropShadow"/>
<feColorMatrix in="SourceAlpha" type="matrix" values="0 0 0 0 0 0 0 0 0 0 0 0 0 0 0 0 0 0 127 0"/>
<feOffset dy="3"/>
<feGaussianBlur stdDeviation="3"/>
<feColorMatrix type="matrix" values="0 0 0 0 0 0 0 0 0 0 0 0 0 0 0 0 0 0 0.24 0"/>
<feBlend mode="normal" in2="effect1_dropShadow" result="effect2_dropShadow"/>
<feBlend mode="normal" in="SourceGraphic" in2="effect2_dropShadow" result="shape"/>
<feColorMatrix in="SourceAlpha" type="matrix" values="0 0 0 0 0 0 0 0 0 0 0 0 0 0 0 0 0 0 127 0" result="hardAlpha"/>
<feOffset dy="0.5"/>
<feGaussianBlur stdDeviation="0.25"/>
<feComposite in2="hardAlpha" operator="arithmetic" k2="-1" k3="1"/>
<feColorMatrix type="matrix" values="0 0 0 0 1 0 0 0 0 1 0 0 0 0 1 0 0 0 0.64 0"/>
<feBlend mode="normal" in2="shape" result="effect3_innerShadow"/>
</filter>
<filter id="filter4_d" x="10.0684" y="7.71973" width="11.666" height="14.996" filterUnits="userSpaceOnUse" color-interpolation-filters="sRGB">
<feFlood flood-opacity="0" result="BackgroundImageFix"/>
<feColorMatrix in="SourceAlpha" type="matrix" values="0 0 0 0 0 0 0 0 0 0 0 0 0 0 0 0 0 0 127 0"/>
<feOffset dx="-0.5" dy="0.5"/>
<feGaussianBlur stdDeviation="0.5"/>
<feColorMatrix type="matrix" values="0 0 0 0 0 0 0 0 0 0 0 0 0 0 0 0 0 0 0.16 0"/>
<feBlend mode="normal" in2="BackgroundImageFix" result="effect1_dropShadow"/>
<feBlend mode="normal" in="SourceGraphic" in2="effect1_dropShadow" result="shape"/>
</filter>
<linearGradient id="paint0_linear" x1="-1.88593e-08" y1="30" x2="33.9669" y2="-0.0377064" gradientUnits="userSpaceOnUse">
<stop stop-color="#CCCCCC"/>
<stop offset="1" stop-color="#E6E6E6"/>
</linearGradient>
<linearGradient id="paint1_linear" x1="7.64831e-08" y1="-7.94028e-08" x2="34.9914" y2="26.4379" gradientUnits="userSpaceOnUse">
<stop stop-color="#1C1D1F"/>
<stop offset="1" stop-color="#43464D"/>
</linearGradient>
<linearGradient id="paint2_linear" x1="17" y1="0" x2="17" y2="30" gradientUnits="userSpaceOnUse">
<stop stop-color="#FFAC05"/>
<stop offset="1" stop-color="#F57A00"/>
</linearGradient>
<linearGradient id="paint3_linear" x1="26.6333" y1="7.84669e-07" x2="-1.99176" y2="15.6522" gradientUnits="userSpaceOnUse">
<stop stop-color="#47D4FF"/>
<stop offset="1" stop-color="#1690E0"/>
</linearGradient>
<linearGradient id="paint4_linear" x1="25.5" y1="15" x2="60.4914" y2="41.4379" gradientUnits="userSpaceOnUse">
<stop stop-color="#1C1D1F"/>
<stop offset="1" stop-color="#43464D"/>
</linearGradient>
<linearGradient id="paint5_linear" x1="51.25" y1="18.9998" x2="35.0833" y2="37.8946" gradientUnits="userSpaceOnUse">
<stop stop-color="white"/>
<stop offset="1" stop-color="#F5F5F5"/>
</linearGradient>
<linearGradient id="paint6_linear" x1="2.72057e-07" y1="60" x2="33.9669" y2="29.9623" gradientUnits="userSpaceOnUse">
<stop stop-color="#CCCCCC"/>
<stop offset="1" stop-color="#E6E6E6"/>
</linearGradient>
<linearGradient id="paint7_linear" x1="34" y1="78.75" x2="-9.23528" y2="7.47729" gradientUnits="userSpaceOnUse">
<stop stop-color="#47D4FF"/>
<stop offset="1" stop-color="#1690E0"/>
</linearGradient>
<linearGradient id="paint8_linear" x1="2.72057e-07" y1="60" x2="33.9669" y2="29.9623" gradientUnits="userSpaceOnUse">
<stop stop-color="#C21057"/>
<stop offset="1" stop-color="#FF3D4A"/>
</linearGradient>
<linearGradient id="paint9_linear" x1="23.5" y1="36" x2="7.23906" y2="50.5332" gradientUnits="userSpaceOnUse">
<stop stop-color="white"/>
<stop offset="1" stop-color="#F5F5F5"/>
</linearGradient>
<linearGradient id="paint10_linear" x1="10.5" y1="36" x2="28.1941" y2="43.6674" gradientUnits="userSpaceOnUse">
<stop stop-color="#1C1D1F"/>
<stop offset="1" stop-color="#43464D"/>
</linearGradient>
<linearGradient id="paint11_linear" x1="23.5" y1="35.6154" x2="-2.77854" y2="52.4545" gradientUnits="userSpaceOnUse">
<stop stop-color="#38E632"/>
<stop offset="1" stop-color="#1A8F6C"/>
</linearGradient>
<linearGradient id="paint12_linear" x1="23.5" y1="68.5" x2="-8.94894" y2="37.821" gradientUnits="userSpaceOnUse">
<stop stop-color="#47D4FF"/>
<stop offset="1" stop-color="#1690E0"/>
</linearGradient>
<linearGradient id="paint13_linear" x1="17" y1="36" x2="17" y2="56" gradientUnits="userSpaceOnUse">
<stop stop-color="#FFAC05"/>
<stop offset="1" stop-color="#F57A00"/>
</linearGradient>
<linearGradient id="paint14_linear" x1="23.5" y1="36" x2="7.23906" y2="50.5332" gradientUnits="userSpaceOnUse">
<stop stop-color="white"/>
<stop offset="1" stop-color="#F5F5F5"/>
</linearGradient>
<linearGradient id="paint15_linear" x1="2.72057e-07" y1="30" x2="33.9669" y2="-0.0377075" gradientUnits="userSpaceOnUse">
<stop stop-color="#CCCCCC"/>
<stop offset="1" stop-color="#E6E6E6"/>
</linearGradient>
<linearGradient id="paint16_linear" x1="0" y1="0" x2="34.9914" y2="26.4379" gradientUnits="userSpaceOnUse">
<stop stop-color="#1C1D1F"/>
<stop offset="1" stop-color="#43464D"/>
</linearGradient>
<linearGradient id="paint17_linear" x1="17" y1="0" x2="17" y2="30" gradientUnits="userSpaceOnUse">
<stop stop-color="#FFAC05"/>
<stop offset="1" stop-color="#F57A00"/>
</linearGradient>
<linearGradient id="paint18_linear" x1="26.6333" y1="7.75559e-07" x2="-1.99176" y2="15.6522" gradientUnits="userSpaceOnUse">
<stop stop-color="#47D4FF"/>
<stop offset="1" stop-color="#1690E0"/>
</linearGradient>
<linearGradient id="paint19_linear" x1="22.5" y1="3.99976" x2="6.43455" y2="17.2538" gradientUnits="userSpaceOnUse">
<stop stop-color="white"/>
<stop offset="1" stop-color="#F5F5F5"/>
</linearGradient>
<linearGradient id="paint20_linear" x1="10.5" y1="3.99976" x2="27.2241" y2="10.6894" gradientUnits="userSpaceOnUse">
<stop stop-color="#1C1D1F"/>
<stop offset="1" stop-color="#43464D"/>
</linearGradient>
<linearGradient id="paint21_linear" x1="22.5" y1="3.61514" x2="-2.84865" y2="18.6089" gradientUnits="userSpaceOnUse">
<stop stop-color="#38E632"/>
<stop offset="1" stop-color="#1A8F6C"/>
</linearGradient>
<linearGradient id="paint22_linear" x1="22.5" y1="36.4998" x2="-9.70116" y2="8.39692" gradientUnits="userSpaceOnUse">
<stop stop-color="#47D4FF"/>
<stop offset="1" stop-color="#1690E0"/>
</linearGradient>
<linearGradient id="paint23_linear" x1="16.5" y1="3.99976" x2="16.5" y2="23.9998" gradientUnits="userSpaceOnUse">
<stop stop-color="#FFAC05"/>
<stop offset="1" stop-color="#F57A00"/>
</linearGradient>
<linearGradient id="paint24_linear" x1="22.5" y1="3.99976" x2="6.43455" y2="17.2538" gradientUnits="userSpaceOnUse">
<stop stop-color="white"/>
<stop offset="1" stop-color="#F5F5F5"/>
</linearGradient>
</defs>
</svg>
