<svg width="100" height="40" viewBox="0 0 100 40" fill="none" xmlns="http://www.w3.org/2000/svg">
<path fill-rule="evenodd" clip-rule="evenodd" d="M77.2675 23.8985C76.0473 24.3957 75.0844 26.1134 73.62 27.0896C73.5292 27.1502 73.4384 27.1804 73.3779 27.1804C73.2568 27.1804 73.1054 27.0594 73.1054 26.5145C73.1054 24.6379 73.7108 23.7298 74.2254 22.398C76.0112 17.7669 79.0684 13.8017 81.7926 9.47324C82.0044 9.14028 82.1255 8.77706 82.1255 8.38356C82.1255 8.05061 82.0044 7.77819 81.8531 7.44523C81.732 7.17281 81.1872 6.93066 80.5818 6.93066C80.2489 6.93066 79.9462 6.96093 79.5527 6.96093C78.13 6.96093 77.8274 9.04947 77.4944 9.59431C75.2243 13.4384 72.6211 18.1906 71.2893 21.5505C70.9973 22.3036 70.6818 23.0568 70.442 23.8298C69.1259 24.2109 68.1399 26.0615 66.5977 27.0896C66.5069 27.1502 66.4161 27.1804 66.3555 27.1804C66.2344 27.1804 66.0831 27.0594 66.0831 26.5145C66.0831 24.6379 66.6885 23.7298 67.203 22.398C68.9889 17.7669 72.046 13.8017 74.7702 9.47324C74.9821 9.14028 75.1032 8.77706 75.1032 8.38356C75.1032 8.05061 74.9821 7.77819 74.8308 7.44523C74.7097 7.17281 74.1648 6.93066 73.5595 6.93066C73.2265 6.93066 72.9238 6.96093 72.5303 6.96093C71.1077 6.96093 70.805 9.04947 70.4721 9.59431C68.2019 13.4384 65.5988 18.1906 64.267 21.5505C64.1611 21.8235 64.0521 22.0966 63.9448 22.3706C63.9117 22.3883 63.8778 22.4075 63.8432 22.4282C62.2995 23.3363 60.998 24.9405 59.1213 26.0302C58.7581 26.2421 57.6381 27.0291 56.7301 27.0291C56.5182 27.0291 56.3366 26.9685 56.155 26.8777C55.8825 26.7567 55.6101 26.1816 55.6101 26C55.6101 25.8486 55.6404 25.8183 55.9431 25.6367C58.6067 24.0325 60.7861 21.7321 62.6627 19.4316C63.3589 18.5841 64.267 16.9193 64.267 15.7086C64.267 14.9216 63.9946 14.0135 63.0562 13.6806C62.3903 13.4384 61.6336 13.3174 61.0282 13.3174C59.424 13.3174 58.2435 14.0438 57.5776 14.74C56.8997 15.4637 56.2439 16.2069 55.6347 16.9762C54.9981 16.4266 54.1003 16.1929 53.2492 16.1929C52.2503 16.1929 50.3736 17.4339 49.405 18.1604C49.2537 18.2814 49.1629 18.342 49.1024 18.342C49.0721 18.342 49.0418 18.3117 49.0418 18.2512C49.0418 18.2209 49.1024 17.9485 49.1024 17.4642C49.1024 17.0404 49.0115 16.4956 48.6181 15.8297C48.5272 15.6783 47.9824 15.3454 47.3165 15.3454C46.4992 15.3454 45.7425 15.7389 45.7425 16.1626C45.7425 16.4653 46.0149 16.5864 46.0149 16.8588C46.0149 17.0101 45.8939 17.7063 45.7123 18.3722C45.1977 20.3094 44.562 22.2164 43.8961 24.1233C43.5329 25.1827 42.3222 26.121 42.3222 27.2712C42.3222 27.6345 42.5643 28.1188 42.8973 28.482C43.4421 29.0874 43.7751 29.2992 44.2594 29.2992C44.4712 29.2992 44.7134 29.2387 44.9253 29.0571C45.3793 28.6636 45.6215 28.2701 45.7425 27.7253C46.5295 24.1536 48.7997 21.7321 51.312 20.1278C52.1595 19.583 53.3097 19.0079 53.461 19.0079C53.6162 19.0079 53.8589 19.0795 54.1035 19.1493C53.4012 20.2948 52.8322 21.5028 52.4622 22.7915C52.3411 23.2152 52.2806 23.6087 52.2806 24.0325C52.2806 24.7287 52.4319 25.4551 52.6741 26.1513C53.007 27.1199 53.5519 27.9674 54.3086 28.3609C55.7009 29.0874 56.6998 29.4809 57.6079 29.4809C58.1224 29.4809 58.5159 29.39 58.9397 29.1479C60.9291 28.0223 62.1489 27.1683 63.0297 26.4098C63.0538 27.1789 63.2054 27.6049 63.7524 28.1793C64.2972 28.7544 65.1448 29.269 66.2647 29.5111C66.4463 29.5414 66.6279 29.5717 66.8095 29.5717C68.0909 29.5717 69.3241 28.5302 70.2749 27.4977C70.385 27.723 70.545 27.9381 70.7747 28.1793C71.3196 28.7544 72.1671 29.269 73.2871 29.5111C73.4687 29.5414 73.6503 29.5717 73.8319 29.5717C75.3329 29.5717 76.7677 28.1426 77.7602 26.9729C78.0909 27.6571 79.0153 28.3335 80.1278 28.8755C80.4305 29.0268 80.7937 29.1176 81.1266 29.1176C82.4282 29.1176 83.3665 28.0582 84.093 27.2712C85.9696 25.213 86.9988 22.6704 87.7858 19.4619C87.8463 19.2198 87.9371 19.129 88.0582 19.129C88.3609 19.129 88.7544 19.129 89.1781 19.0684C89.9954 18.9473 90.631 18.6749 91.3877 18.5538C91.8418 18.463 91.7812 18.3117 92.205 18.1604C92.5077 18.0393 92.7498 17.9182 92.7498 17.6155C92.7498 17.101 91.8115 16.5561 90.3889 16.5561C89.2689 16.5561 88.603 16.6469 88.149 16.6469C87.4528 16.6469 87.2712 16.435 86.8172 15.2546C86.8172 15.2546 87.2712 16.435 86.8172 15.2546C86.7264 15.0124 86.6356 14.8913 86.3631 14.6492C85.7275 14.1043 84.9405 13.9227 84.3049 13.9227C82.7914 13.9227 81.4899 15.4664 80.5818 16.768C80.3699 17.0707 80.0672 17.3128 79.8554 17.6458C78.6085 19.5161 77.4147 21.6252 77.2675 23.8985ZM38.5688 13.5898C39.3256 13.5898 39.7493 13.5292 39.8401 13.5292C39.9309 13.5292 39.9915 13.5595 39.9915 13.6503C39.9915 13.7109 39.9612 13.8017 39.7493 14.2557C37.9029 18.2209 36.6316 22.2466 35.5117 26.6961C35.4814 26.8172 35.3906 27.2712 35.3906 27.7253C35.3906 28.149 35.5117 28.6031 35.9355 28.8452C36.7527 29.3295 37.4186 29.5414 37.8727 29.5414C38.5386 29.5414 38.8715 29.1176 38.8715 28.4214C38.8715 27.8161 38.9018 27.1804 38.9926 26.6961C39.8401 22.2466 41.1114 18.7657 43.0789 15.1335C44.0172 13.4082 44.1383 13.3174 44.1383 13.166C44.1383 13.1055 44.108 13.0147 44.0475 12.9239C45.2582 12.6515 46.7111 12.4698 48.0429 12.4698C48.1943 12.4698 48.7997 12.6817 48.8905 12.7725C49.1023 12.9844 49.3142 13.1963 49.6775 13.1963C49.9801 13.1963 50.4947 12.9844 50.6763 12.8633C51.1001 12.5606 51.312 12.2277 51.312 11.6829C51.312 11.1683 49.405 9.897 48.0732 9.897C46.4387 9.897 44.9555 10.1089 43.5632 10.3813C42.9578 10.5024 40.7785 10.8353 39.2045 10.8353C37.691 10.8353 37.7819 10.6234 37.1462 10.6234C36.783 10.6234 36.6014 10.8051 36.45 10.9564C36.2987 11.1077 36.2079 11.7131 36.2079 12.258C36.2079 12.5304 36.2079 12.7423 36.3592 12.9239C36.8133 13.4687 37.691 13.5898 38.5688 13.5898C38.5688 13.5898 37.691 13.5898 38.5688 13.5898ZM60.998 16.0415C60.998 16.314 60.9071 16.4956 60.5439 17.0707C60.1807 17.6458 60.332 17.6458 59.878 18.2512C59.0002 19.4316 57.9105 20.6121 56.4879 21.9137C56.0944 22.2769 56.0339 22.2769 55.9733 22.2769C55.9431 22.2769 55.8825 22.2466 55.8825 22.1861C55.8825 22.0953 55.9128 21.9742 56.2155 21.3386C57.1538 19.3711 58.304 18.0695 59.5753 16.7983C60.2715 16.1021 60.6953 15.8599 60.8466 15.8599C60.9374 15.8599 60.998 15.8902 60.998 16.0415C60.998 16.0415 60.998 15.8902 60.998 16.0415ZM84.2746 16.8285C84.3049 16.8285 84.3351 16.8588 84.3654 16.9193C84.3957 17.0101 84.4562 17.101 84.6076 17.222C84.7286 17.3128 84.7286 17.7366 84.7286 18.0695C84.7286 21.0056 83.0638 23.4271 81.4293 25.8789C81.0661 26.4237 80.8542 26.5145 80.6726 26.5145C80.5213 26.5145 80.2791 26.121 80.1883 25.8789C80.0672 25.5459 80.037 25.1524 80.037 25.0011C80.037 22.6401 82.2769 19.129 83.76 17.1918C84.0022 16.8588 84.1838 16.8285 84.2746 16.8285C84.2746 16.8285 84.1838 16.8285 84.2746 16.8285Z" fill="#0079BF"/>
<path d="M29.6579 10.2749H15.3261C14.0069 10.2749 12.9375 11.3443 12.9375 12.6635V26.9953C12.9375 28.3145 14.0069 29.3839 15.3261 29.3839H29.6579C30.9771 29.3839 32.0465 28.3145 32.0465 26.9953V12.6635C32.0465 11.3443 30.9771 10.2749 29.6579 10.2749Z" fill="url(#paint0_linear)"/>
<path d="M28.4161 12.7593H24.8809C24.2477 12.7593 23.7344 13.2726 23.7344 13.9058V19.9729C23.7344 20.6062 24.2477 21.1195 24.8809 21.1195H28.4161C29.0493 21.1195 29.5626 20.6062 29.5626 19.9729V13.9058C29.5626 13.2726 29.0493 12.7593 28.4161 12.7593Z" fill="white"/>
<path d="M20.1036 12.7593H16.5684C15.9352 12.7593 15.4219 13.2726 15.4219 13.9058V24.7502C15.4219 25.3834 15.9352 25.8967 16.5684 25.8967H20.1036C20.7368 25.8967 21.2501 25.3834 21.2501 24.7502V13.9058C21.2501 13.2726 20.7368 12.7593 20.1036 12.7593Z" fill="white"/>
<defs>
<linearGradient id="paint0_linear" x1="22.492" y1="10.2749" x2="22.492" y2="29.3839" gradientUnits="userSpaceOnUse">
<stop stop-color="#0079BF"/>
<stop offset="1" stop-color="#0079BF"/>
</linearGradient>
</defs>
</svg>
