<svg width="100" height="40" viewBox="0 0 100 40" fill="none" xmlns="http://www.w3.org/2000/svg">
<g clip-path="url(#clip0)">
<path d="M18.7233 15.0195H20.0802V21.907C20.0802 23.7317 19.2818 24.991 17.4109 24.991C16.8576 24.9993 16.307 24.9124 15.7832 24.734V23.4147C16.23 23.588 16.7055 23.6752 17.1847 23.6717C18.3309 23.6717 18.7267 22.9864 18.7267 21.9978L18.7233 15.0195Z" fill="#253858"/>
<path d="M22.5513 14.4904C22.6723 14.4818 22.7938 14.4992 22.9075 14.5416C23.0212 14.584 23.1244 14.6504 23.2102 14.7362C23.296 14.822 23.3623 14.9252 23.4048 15.0389C23.4471 15.1526 23.4646 15.274 23.4559 15.3951C23.4559 15.635 23.3606 15.8651 23.191 16.0347C23.0213 16.2044 22.7912 16.2997 22.5513 16.2997C22.3114 16.2997 22.0813 16.2044 21.9117 16.0347C21.742 15.8651 21.6467 15.635 21.6467 15.3951C21.638 15.274 21.6555 15.1526 21.6979 15.0389C21.7403 14.9252 21.8067 14.822 21.8924 14.7362C21.9782 14.6504 22.0815 14.584 22.1951 14.5416C22.3088 14.4992 22.4303 14.4818 22.5513 14.4904ZM21.8883 17.3859H23.1852V24.9245H21.8883V17.3859Z" fill="#253858"/>
<path d="M25.1445 17.3839H26.4107V18.71C26.8476 17.8208 27.61 17.1869 29.08 17.2777V18.5438C27.4215 18.3725 26.4107 18.8762 26.4107 20.473V24.9276H25.1445V17.3839Z" fill="#253858"/>
<path d="M35.1549 23.5658C34.6717 24.5612 33.7671 25.0735 32.6072 25.0735C30.6026 25.0735 29.5918 23.3705 29.5918 21.1534C29.5918 19.0272 30.6472 17.2334 32.758 17.2334C33.8579 17.2334 34.7026 17.7302 35.1566 18.7103V17.3842H36.4536V24.9227H35.1566L35.1549 23.5658ZM32.9533 23.8673C34.1149 23.8673 35.1549 23.1289 35.1549 21.455V20.8451C35.1549 19.1712 34.2057 18.4327 33.0989 18.4327C31.6358 18.4327 30.8819 19.3973 30.8819 21.1466C30.8887 22.9627 31.6118 23.8673 32.955 23.8673H32.9533Z" fill="#253858"/>
<path d="M44.1267 25.0729C42.2112 25.0729 41.322 24.6959 40.5527 24.3036V22.9175C41.4728 23.4007 42.8897 23.7468 44.2004 23.7468C45.6927 23.7468 46.2563 23.1591 46.2563 22.2836C46.2563 21.4081 45.7132 20.9421 43.8286 20.4898C41.6013 19.9467 40.6024 19.1774 40.6024 17.5497C40.6024 16.0078 41.7777 14.8667 44.0856 14.8667C45.5179 14.8667 46.4379 15.2094 47.1164 15.5897V16.9467C46.1732 16.4269 45.109 16.1668 44.0325 16.1928C42.7355 16.1928 41.9662 16.6451 41.9662 17.5497C41.9662 18.3635 42.6002 18.7713 44.3477 19.2082C46.4431 19.7359 47.6201 20.4075 47.6201 22.1928C47.6099 23.9113 46.5853 25.0729 44.1267 25.0729Z" fill="#253858"/>
<path d="M48.7559 21.138C48.7559 18.8765 50.0816 17.2334 52.3432 17.2334C54.6049 17.2334 55.902 18.8765 55.902 21.138C55.902 23.3996 54.5894 25.0786 52.3432 25.0786C50.0971 25.0786 48.7559 23.3996 48.7559 21.138ZM50.0219 21.138C50.0219 22.5703 50.7311 23.8673 52.3432 23.8673C53.9554 23.8673 54.636 22.5703 54.636 21.138C54.636 19.7057 53.9418 18.4464 52.3432 18.4464C50.7447 18.4464 50.0287 19.7057 50.0287 21.138H50.0219Z" fill="#253858"/>
<path d="M59.2037 17.3838H61.1483V18.5831H59.2037V24.9223H57.9376V18.5831H56.7109V17.3838H57.9323V16.5614C57.9323 15.1599 58.7173 14.209 60.3308 14.209C60.6265 14.2074 60.9207 14.2478 61.2046 14.329V15.5283C60.9367 15.4773 60.6639 15.452 60.391 15.4529C59.5925 15.4529 59.1915 15.9206 59.1915 16.5991L59.2037 17.3838Z" fill="#253858"/>
<path d="M65.535 23.6566C65.8088 23.6484 66.0816 23.6128 66.3486 23.5503V24.8011C66.0646 24.8824 65.7705 24.9228 65.4748 24.921C63.8608 24.921 63.0763 23.9718 63.0763 22.5686V18.5903H61.8496V17.391H63.071V15.7856H64.3375V17.3842H66.3418V18.5835H64.3375V22.5412C64.3443 23.2043 64.7365 23.6566 65.535 23.6566Z" fill="#253858"/>
<path d="M66.7129 17.3838H68.1454L70.3163 23.7761L72.5158 17.3838H73.7532L75.9546 23.7761L78.127 17.3838H79.5595L76.7857 24.9223H75.127L73.8304 21.2747L73.1449 18.9532L72.4595 21.2747L71.1454 24.9223H69.4867L66.7129 17.3838Z" fill="#253858"/>
<path d="M85.4811 23.5658C84.9981 24.5612 84.0932 25.0735 82.9335 25.0735C80.9287 25.0735 79.918 23.3705 79.918 21.1534C79.918 19.0272 80.9733 17.2334 83.084 17.2334C84.184 17.2334 85.0287 17.7302 85.483 18.7103V17.3842H86.7796V24.9227H85.483L85.4811 23.5658ZM83.2796 23.8673C84.4413 23.8673 85.4811 23.1289 85.4811 21.455V20.8451C85.4811 19.1712 84.5321 18.4327 83.4253 18.4327C81.9689 18.4464 81.2097 19.4042 81.2097 21.1534C81.2097 22.9627 81.9379 23.8673 83.2811 23.8673H83.2796Z" fill="#253858"/>
<path d="M88.7383 17.3839H90.0048V18.71C90.4417 17.8208 91.2038 17.1869 92.6742 17.2777V18.5438C91.0155 18.3725 90.0048 18.8762 90.0048 20.473V24.9276H88.7383V17.3839Z" fill="#253858"/>
<path d="M97.2409 25.0733C94.421 25.0733 93.1855 23.4456 93.1855 21.1326C93.1855 18.8557 94.4516 17.228 96.7438 17.228C99.0656 17.228 99.9991 18.842 99.9991 21.1326V21.7203H94.4977C94.6792 23.0019 95.5088 23.8311 97.287 23.8311C98.069 23.8304 98.8452 23.6924 99.5797 23.4234V24.6227C98.9608 24.9568 98.0103 25.0733 97.2409 25.0733ZM94.4826 20.6187H98.685C98.6098 19.2172 97.9758 18.4171 96.6807 18.4171C95.3118 18.4102 94.6176 19.3028 94.4826 20.6101V20.6187Z" fill="#253858"/>
<path d="M12.4039 19.6043L6.81851 14.0189L6.2771 13.4775L2.07265 17.682L0.150319 19.6043C0.0540648 19.7007 -4.85437e-10 19.8314 0 19.9675C-4.85437e-10 20.1037 0.0540648 20.2344 0.150319 20.3308L3.99155 24.172L6.2771 26.4576L10.4816 22.2531L10.5467 22.188L12.4039 20.3308C12.5002 20.2344 12.5542 20.1037 12.5542 19.9675C12.5542 19.8314 12.5002 19.7007 12.4039 19.6043ZM6.2771 21.8865L4.3582 19.9675L6.2771 18.0486L8.19603 19.9675L6.2771 21.8865Z" fill="#2684FF"/>
<path d="M6.2775 18.0488C5.67395 17.4453 5.33376 16.6274 5.33119 15.7738C5.32861 14.9203 5.6639 14.1004 6.26376 13.4932L2.06445 17.6908L4.35001 19.9763L6.2775 18.0488Z" fill="url(#paint0_linear)"/>
<path d="M8.20137 19.9624L6.27734 21.8864C6.57759 22.1865 6.81579 22.5428 6.97827 22.935C7.14079 23.3271 7.22443 23.7474 7.22443 24.172C7.22443 24.5965 7.14079 25.0168 6.97827 25.409C6.81579 25.8011 6.57759 26.1574 6.27734 26.4575L10.4869 22.2479L8.20137 19.9624Z" fill="url(#paint1_linear)"/>
</g>
<defs>
<linearGradient id="paint0_linear" x1="5.93483" y1="16.1077" x2="3.2552" y2="18.7873" gradientUnits="userSpaceOnUse">
<stop offset="0.18" stop-color="#0052CC"/>
<stop offset="1" stop-color="#2684FF"/>
</linearGradient>
<linearGradient id="paint1_linear" x1="169.526" y1="411.489" x2="262.074" y2="351.508" gradientUnits="userSpaceOnUse">
<stop offset="0.18" stop-color="#0052CC"/>
<stop offset="1" stop-color="#2684FF"/>
</linearGradient>
<clipPath id="clip0">
<rect width="100" height="40" fill="white"/>
</clipPath>
</defs>
</svg>
