<svg width="100" height="40" viewBox="0 0 100 40" fill="none" xmlns="http://www.w3.org/2000/svg">
<path d="M49 6.25V23.75H34.75L49 6.25Z" fill="#03363D"/>
<path d="M49 0C49 1.92282 48.2493 3.76689 46.9131 5.12652C45.5769 6.48616 43.7647 7.25 41.875 7.25C39.9853 7.25 38.1731 6.48616 36.8369 5.12652C35.5007 3.76689 34.75 1.92282 34.75 0H49Z" fill="#03363D"/>
<path d="M51.25 23.75C51.25 21.7609 52.027 19.8532 53.4101 18.4467C54.7932 17.0402 56.669 16.25 58.625 16.25C60.581 16.25 62.4568 17.0402 63.8399 18.4467C65.223 19.8532 66 21.7609 66 23.75H51.25Z" fill="#03363D"/>
<path d="M51.25 17.5V0H66L51.25 17.5Z" fill="#03363D"/>
<path d="M59.3769 38.5393C60.1026 38.5558 60.8052 38.2803 61.3316 37.773L62.3007 38.8351C61.6607 39.5034 60.7732 40 59.3935 40C57.0282 40 55.5007 38.4075 55.5007 36.251C55.4911 35.7571 55.5796 35.2663 55.7609 34.8078C55.9422 34.3494 56.2125 33.9328 56.5558 33.5827C56.8991 33.2327 57.3083 32.9565 57.759 32.7705C58.2098 32.5846 58.6928 32.4927 59.1792 32.5004C61.5279 32.5004 62.8592 34.3152 62.743 36.8319H57.1913C57.3875 37.8772 58.1105 38.5439 59.3754 38.5439L59.3769 38.5393ZM61.0675 35.6318C60.9166 34.6554 60.3445 33.9366 59.1943 33.9366C58.1271 33.9366 57.383 34.5497 57.1913 35.6318H61.0675Z" fill="#03363D"/>
<path d="M21.75 38.53L26.3205 33.9397H21.8582V32.5H28.4387V33.97L23.8682 38.5587H28.5V40H21.75V38.53Z" fill="#03363D"/>
<path d="M33.528 38.5393C34.3287 38.5558 35.104 38.2803 35.6849 37.773L36.7542 38.8351C36.048 39.5034 35.0687 40 33.5463 40C30.9363 40 29.2508 38.4075 29.2508 36.251C29.2402 35.7571 29.3378 35.2663 29.5379 34.8078C29.7379 34.3494 30.0362 33.9328 30.415 33.5827C30.7938 33.2327 31.2454 32.9565 31.7427 32.7705C32.2401 32.5846 32.773 32.4927 33.3098 32.5004C35.9014 32.5004 37.3705 34.3152 37.2422 36.8319H31.1162C31.3328 37.8772 32.1306 38.5439 33.5263 38.5439L33.528 38.5393ZM35.3934 35.6318C35.2269 34.6554 34.5956 33.9366 33.3265 33.9366C32.1489 33.9366 31.3278 34.5497 31.1162 35.6318H35.3934Z" fill="#03363D"/>
<path d="M46.25 36.2234C46.25 33.9046 48.0168 32.4453 49.9614 32.4453C50.4283 32.4392 50.891 32.5336 51.3169 32.7219C51.7428 32.9101 52.1216 33.1877 52.4267 33.5351V29.25H54V39.8561H52.4267V38.8529C52.1274 39.2146 51.7492 39.5055 51.32 39.704C50.8908 39.9026 50.4216 40.0037 49.9472 39.9999C48.0593 39.9999 46.25 38.5329 46.25 36.2234ZM52.5148 36.2095C52.5024 35.7561 52.3543 35.3163 52.0889 34.9452C51.8235 34.5741 51.4526 34.2881 51.0226 34.1231C50.5927 33.958 50.1227 33.9211 49.6716 34.0171C49.2204 34.1131 48.8081 34.3376 48.4861 34.6627C48.1642 34.9877 47.9469 35.3988 47.8615 35.8445C47.7761 36.2903 47.8263 36.7509 48.0059 37.1687C48.1855 37.5865 48.4865 37.943 48.8713 38.1936C49.256 38.4443 49.7074 38.5779 50.169 38.5777C51.5205 38.5777 52.5148 37.5173 52.5148 36.2095Z" fill="#03363D"/>
<path d="M63.75 38.3302L65.1745 37.6103C65.3629 37.9374 65.6393 38.2081 65.9741 38.3933C66.3088 38.5785 66.6891 38.6711 67.0739 38.6611C67.9638 38.6611 68.4245 38.2153 68.4245 37.7114C68.4245 37.1354 67.5645 37.0052 66.6289 36.8183C65.3711 36.5595 64.0613 36.1551 64.0613 34.6738C64.0613 33.5357 65.173 32.4848 66.9245 32.5002C68.3035 32.5002 69.3286 33.0332 69.912 33.8956L68.5912 34.6018C68.4087 34.3385 68.1604 34.1249 67.8695 33.9813C67.5787 33.8376 67.2551 33.7686 66.9292 33.7808C66.0833 33.7808 65.6525 34.1836 65.6525 34.6447C65.6525 35.1624 66.3349 35.3064 67.4041 35.5377C68.6211 35.7966 70 36.1857 70 37.6823C70 38.6749 69.1101 40.0137 67.0031 39.9999C65.4607 39.9999 64.3774 39.3948 63.7531 38.3302" fill="#03363D"/>
<path d="M74.3603 36.7316L73.0953 38.0869V40H71.5V29.25H73.0953V36.2898L76.482 32.6375H78.425L75.4881 35.7884L78.5 40H76.6942L74.3603 36.7316Z" fill="#03363D"/>
<path d="M41.753 32.5C39.9828 32.5 38.5 33.7062 38.5 35.7056V40H40.0171V35.9043C40.0171 34.6981 40.6766 33.9768 41.8036 33.9768C42.9306 33.9768 43.4904 34.6981 43.4904 35.9043V40H45V35.7056C45 33.7062 43.5112 32.5 41.747 32.5" fill="#03363D"/>
</svg>
