<svg width="100" height="40" viewBox="0 0 100 40" fill="none" xmlns="http://www.w3.org/2000/svg">
<path d="M28.4824 18.6371H22.5999C22.4481 18.6371 22.3251 18.7604 22.3251 18.9121V21.7881C22.3251 21.9399 22.4481 22.0635 22.5999 22.0635H24.8947V25.6365C24.8947 25.6365 24.3795 25.8122 22.9552 25.8122C21.2745 25.8122 18.9268 25.1981 18.9268 20.0355C18.9268 14.8719 21.3714 14.1925 23.6665 14.1925C25.6533 14.1925 26.5092 14.5423 27.0537 14.7108C27.2249 14.7632 27.3831 14.5928 27.3831 14.441L28.0392 11.6623C28.0392 11.5911 28.0151 11.5056 27.9343 11.4475C27.7129 11.2897 26.3638 10.5347 22.9552 10.5347C19.028 10.5347 15 12.2055 15 20.2368C15 28.2683 19.6118 29.4651 23.4982 29.4651C26.7159 29.4651 28.6682 28.0901 28.6682 28.0901C28.7486 28.0456 28.7572 27.9333 28.7572 27.8818V18.9121C28.7572 18.7604 28.6341 18.6371 28.4824 18.6371Z" fill="#100E0F"/>
<path d="M58.798 11.4968C58.798 11.3438 58.6768 11.2202 58.525 11.2202H55.2129C55.0617 11.2202 54.9387 11.3438 54.9387 11.4968C54.9387 11.4974 54.9397 17.8976 54.9397 17.8976H49.7769V11.4968C49.7769 11.3438 49.6552 11.2202 49.5037 11.2202H46.1916C46.0408 11.2202 45.918 11.3438 45.918 11.4968V28.8281C45.918 28.9811 46.0408 29.1055 46.1916 29.1055H49.5037C49.655 29.1055 49.7769 28.9811 49.7769 28.8281V21.4148H54.9397C54.9397 21.4148 54.9306 28.8276 54.9306 28.8281C54.9306 28.9811 55.0534 29.1055 55.2048 29.1055H58.5248C58.6764 29.1055 58.7977 28.9811 58.798 28.8281V11.4968Z" fill="#100E0F"/>
<path d="M34.7321 13.7715C34.7321 12.5788 33.7759 11.6152 32.5962 11.6152C31.4179 11.6152 30.4609 12.5788 30.4609 13.7715C30.4609 14.9628 31.4177 15.9293 32.5962 15.9293C33.7761 15.9291 34.7321 14.9628 34.7321 13.7715Z" fill="#100E0F"/>
<path d="M34.4954 25.1727C34.4954 24.7286 34.4954 17.1725 34.4954 17.1725C34.4954 17.0207 34.373 16.8965 34.2214 16.8965H30.9199C30.7685 16.8965 30.6328 17.0527 30.6328 17.2045C30.6328 17.2045 30.6328 26.8312 30.6328 28.6665C30.6328 29.0033 30.8427 29.1035 31.1144 29.1035C31.1144 29.1035 32.5236 29.1035 34.0891 29.1035C34.4156 29.1035 34.4954 28.9432 34.4954 28.6612C34.4954 28.0467 34.4954 25.6401 34.4954 25.1727Z" fill="#100E0F"/>
<path d="M71.3845 16.9224H68.098C67.9471 16.9224 67.8245 17.0465 67.8245 17.1995V25.6977C67.8245 25.6977 66.9894 26.3087 65.8043 26.3087C64.6192 26.3087 64.3047 25.7709 64.3047 24.6105C64.3047 23.4487 64.3047 17.1997 64.3047 17.1997C64.3047 17.0467 64.1823 16.9226 64.0315 16.9226H60.6957C60.5453 16.9226 60.4219 17.0467 60.4219 17.1997C60.4219 17.1997 60.4219 21.7252 60.4219 25.1718C60.4219 28.6185 62.3428 29.4618 64.9853 29.4618C67.1532 29.4618 68.9012 28.264 68.9012 28.264C68.9012 28.264 68.9846 28.8952 69.0221 28.9699C69.0596 29.0445 69.1577 29.1199 69.2638 29.1199L71.3859 29.1106C71.5363 29.1106 71.6597 28.9862 71.6597 28.8338L71.6586 17.1997C71.6588 17.0466 71.5361 16.9224 71.3845 16.9224Z" fill="#100E0F"/>
<path d="M80.3681 16.5325C78.5016 16.5325 77.2317 17.3654 77.2317 17.3654V11.4968C77.2317 11.3438 77.1093 11.2202 76.9585 11.2202H73.6369C73.4859 11.2202 73.3633 11.3438 73.3633 11.4968V28.8281C73.3633 28.9811 73.4859 29.1055 73.6373 29.1055C73.6377 29.1055 75.9411 29.1055 75.9417 29.1055C76.0454 29.1055 76.124 29.0518 76.1821 28.9584C76.2394 28.8653 76.322 28.1592 76.322 28.1592C76.322 28.1592 77.6801 29.4464 80.2513 29.4464C83.2697 29.4464 85.0007 27.9153 85.0007 22.5731C85.0009 17.2306 82.2361 16.5325 80.3681 16.5325ZM79.0718 26.2974C77.9318 26.2626 77.1585 25.7452 77.1585 25.7452V20.2569C77.1585 20.2569 77.9213 19.7893 78.8572 19.7057C80.0408 19.5998 81.1812 19.9572 81.1812 22.7807C81.1812 25.7579 80.6666 26.3456 79.0718 26.2974Z" fill="#100E0F"/>
<path d="M44.0142 16.8945H41.5297C41.5297 16.8945 41.526 13.6129 41.526 13.6122C41.526 13.4878 41.4619 13.4258 41.3183 13.4258H37.9327C37.8012 13.4258 37.7304 13.4837 37.7304 13.6102V17.0019C37.7304 17.0019 36.0336 17.4114 35.9189 17.4447C35.8049 17.4777 35.7207 17.583 35.7207 17.7088V19.8402C35.7207 19.9935 35.8431 20.1171 35.9945 20.1171H37.7304C37.7304 20.1171 37.7304 22.3465 37.7304 25.2447C37.7304 29.0533 40.4019 29.4272 42.2045 29.4272C43.0281 29.4272 44.0134 29.1627 44.1763 29.1027C44.2746 29.0665 44.3318 28.9647 44.3318 28.8541L44.3345 26.5095C44.3345 26.3566 44.2055 26.2328 44.0599 26.2328C43.9151 26.2328 43.5447 26.2917 43.1634 26.2917C41.9431 26.2917 41.5295 25.7244 41.5295 24.9898C41.5295 24.2559 41.5293 20.1169 41.5293 20.1169H44.014C44.1654 20.1169 44.2883 19.9933 44.2883 19.84V17.1702C44.2883 17.0177 44.1656 16.8945 44.0142 16.8945Z" fill="#100E0F"/>
</svg>
