<svg width="400" height="160" viewBox="0 0 400 160" fill="none" xmlns="http://www.w3.org/2000/svg">
<path d="M208.088 60.5144H212.322L203.854 91.9277H199.728L192.997 71.2198H192.834L185.995 91.9277H181.869L173.021 60.5144H177.256L183.932 85.1692H184.095L190.935 64.7317H194.734L201.574 85.1692H201.737L208.088 60.5144Z" fill="#5F6368"/>
<path d="M211.887 81.1682C211.887 77.8701 212.919 75.1667 215.036 73.004C217.153 70.8413 219.812 69.76 223.069 69.76C226.326 69.76 228.932 70.8413 230.995 73.004C233.112 75.1667 234.143 77.8701 234.143 81.1682C234.143 84.5204 233.112 87.2778 230.995 89.4406C228.878 91.6033 226.272 92.6846 223.069 92.6846C219.867 92.6846 217.207 91.6033 215.036 89.4406C212.919 87.2238 211.887 84.5204 211.887 81.1682ZM215.904 81.1682C215.904 83.4931 216.61 85.3855 217.967 86.8453C219.324 88.3051 221.007 89.008 223.015 89.008C225.023 89.008 226.652 88.3051 228.063 86.8453C229.42 85.3855 230.126 83.5472 230.072 81.1682C230.072 78.8974 229.42 77.0591 228.063 75.5993C226.706 74.1394 225.023 73.4365 223.015 73.4365C221.007 73.4365 219.378 74.1394 217.967 75.5993C216.61 77.005 215.904 78.8974 215.904 81.1682ZM241.037 91.9277H236.966V70.4088H240.82V73.9772H240.982C241.417 72.7877 242.285 71.8145 243.588 71.0035C244.891 70.2466 246.194 69.814 247.388 69.76C248.528 69.76 249.505 69.9222 250.373 70.3006L249.125 74.2476C248.636 74.0854 247.876 73.9772 246.791 73.9772C245.216 73.9772 243.859 74.572 242.719 75.7615C241.58 76.951 240.982 78.4108 240.982 80.0869V91.9277H241.037ZM271.326 91.9277H266.387L259.71 81.763L256.399 85.0611V91.8736H252.327V60.5144H256.399V79.9247L265.789 70.4088H270.946V70.571L262.478 78.8974L271.326 91.7114V91.9277Z" fill="#5F6368"/>
<path d="M288.914 85.9803C288.914 87.8186 288.1 89.4406 286.471 90.7382C284.843 92.0358 282.726 92.6846 280.175 92.6306C278.003 92.6306 276.104 92.0358 274.475 90.9004C272.901 89.8191 271.652 88.3052 270.947 86.5209L274.529 85.007C275.072 86.2506 275.832 87.2238 276.755 87.9808C277.732 88.6836 278.872 89.0621 280.066 89.0621C281.369 89.0621 282.455 88.7918 283.323 88.2511C284.192 87.7104 284.626 87.0616 284.68 86.2506C284.68 84.8989 283.649 83.8716 281.532 83.2228L277.732 82.3037C273.552 81.2223 271.435 79.1678 271.435 76.194C271.435 74.1935 272.25 72.6256 273.878 71.4361C275.506 70.2466 277.515 69.6519 280.012 69.6519C281.912 69.6519 283.649 70.1385 285.223 71.1117C286.797 72.0849 287.883 73.2744 288.48 74.6801L284.897 76.194C284.517 75.2749 283.812 74.5179 282.889 74.0313C281.912 73.5447 280.826 73.2744 279.74 73.3285C278.709 73.2744 277.732 73.5447 276.864 74.0313C276.049 74.572 275.615 75.2208 275.615 76.0318C275.615 77.2754 276.809 78.1405 279.143 78.6271L282.4 79.5462C286.743 80.5735 288.914 82.6821 288.914 85.9803ZM302.973 92.6306C301.399 92.6306 299.988 92.3062 298.631 91.6574C297.328 91.0086 296.297 90.0894 295.645 88.954H295.482L295.645 91.9277V101.444H291.574V70.4088H295.428V73.4366H295.591C296.242 72.3012 297.219 71.382 298.576 70.7332C299.879 70.0844 301.345 69.76 302.973 69.76C305.796 69.76 308.184 70.8414 310.193 73.0581C312.256 75.2749 313.233 77.9783 313.233 81.1142C313.233 84.3582 312.201 87.0616 310.193 89.2784C308.184 91.4952 305.796 92.5765 302.973 92.5765M302.322 88.954C304.33 88.954 305.959 88.2511 307.262 86.7913C308.564 85.3315 309.27 83.4932 309.27 81.1142C309.27 78.8974 308.619 77.0591 307.262 75.5452C305.959 74.0313 304.276 73.3284 302.322 73.3825C300.313 73.3825 298.685 74.0854 297.382 75.5452C296.134 77.0591 295.482 78.8974 295.482 81.1142C295.482 83.4391 296.134 85.3315 297.382 86.7913C298.685 88.2511 300.313 88.954 302.322 88.954ZM324.415 69.76C327.4 69.76 329.789 70.5169 331.526 72.0849C333.263 73.6529 334.131 75.8156 334.131 78.6271V91.9277H330.223V88.954H330.06C328.377 91.387 326.152 92.6306 323.329 92.6306C320.995 92.6306 318.987 91.9277 317.358 90.576C315.73 89.2243 314.915 87.4401 314.915 85.2774C314.915 83.0606 315.73 81.2764 317.412 79.9788C319.095 78.6811 321.375 77.9783 324.252 77.9783C326.64 77.9783 328.649 78.4108 330.223 79.2218V78.3567C330.223 76.8969 329.626 75.7074 328.486 74.7883C327.4 73.8691 326.043 73.3285 324.632 73.3285C322.352 73.3285 320.561 74.3017 319.204 76.194L315.621 73.9773C317.629 71.1657 320.561 69.76 324.415 69.76ZM319.149 85.3855C319.149 86.4669 319.584 87.3319 320.506 87.9808C321.429 88.6296 322.461 89.008 323.655 89.0621C325.338 89.0621 326.857 88.4133 328.16 87.1697C329.463 85.9262 330.169 84.4664 330.223 82.7903C328.974 81.763 327.183 81.2764 324.903 81.2764C323.275 81.2764 321.918 81.6549 320.778 82.4659C319.638 83.1688 319.095 84.142 319.149 85.3855ZM347.919 92.6306C344.662 92.6306 342.002 91.5492 339.885 89.3865C337.768 87.1697 336.737 84.4123 336.737 81.1142C336.737 77.8161 337.768 75.1127 339.885 72.95C342.002 70.7873 344.662 69.7059 347.919 69.7059C350.144 69.7059 352.044 70.2466 353.673 71.328C355.301 72.4093 356.55 73.9232 357.364 75.9237L353.673 77.4376C352.533 74.7342 350.524 73.3825 347.647 73.3825C345.802 73.3825 344.173 74.1395 342.762 75.5993C341.459 77.1132 340.754 78.8974 340.754 81.0601C340.754 83.2228 341.405 85.0611 342.762 86.6291C344.119 88.143 345.748 88.8458 347.647 88.8458C350.579 88.8458 352.641 87.4942 353.89 84.7908L357.581 86.3047C356.767 88.3052 355.464 89.8191 353.781 90.9004C352.099 91.9818 350.144 92.6306 347.919 92.6306ZM369.686 92.6306C366.483 92.6306 363.878 91.5492 361.869 89.3865C359.807 87.2238 358.83 84.4664 358.83 81.1142C358.83 77.8701 359.807 75.1668 361.815 72.95C363.824 70.7332 366.375 69.6519 369.469 69.7059C372.726 69.7059 375.277 70.7332 377.123 72.7337C378.968 74.7883 379.945 77.6539 380 81.4386V81.8711H362.955C363.009 83.9798 363.715 85.6559 365.018 87.0075C366.321 88.3052 367.949 88.954 369.903 88.8999C372.509 88.8999 374.517 87.6023 376.037 85.0611L379.62 86.8454C378.697 88.5755 377.286 90.0353 375.549 91.0626C373.866 92.144 371.912 92.6306 369.686 92.6306ZM363.226 78.5189H375.657C375.549 77.005 374.951 75.8156 373.866 74.8423C372.78 73.8691 371.26 73.3825 369.36 73.3825C367.84 73.3825 366.592 73.8151 365.506 74.7342C364.421 75.6534 363.661 76.951 363.226 78.5189Z" fill="#5F6368"/>
<path d="M38.2388 78.1945V73.2743H54.632C54.7949 74.3016 54.9034 75.3289 54.9034 76.3021C54.9034 79.8706 53.9264 84.4663 50.6694 87.6022C47.5211 90.9004 43.5585 92.6305 38.1302 92.6305C28.3052 92.6305 20 84.6285 20 74.8423C20 65.0561 28.3052 57 38.1302 57C43.6127 57 47.5211 59.1627 50.4523 61.9202L46.924 65.3264C43.1785 61.7579 37.6417 60.7847 32.9192 62.8934C28.1966 65.002 25.1568 69.7059 25.3197 74.8423C25.3197 82.0333 31.0193 87.7644 38.1302 87.7644C42.7985 87.7644 45.5126 85.8721 47.2497 84.196C48.6067 82.8443 49.4752 80.8979 49.8552 78.1945H38.2388Z" fill="#4285F4"/>
<path d="M79.8737 81.1684C79.8737 87.8187 74.6626 92.6307 68.2573 92.6307C61.852 92.6307 56.7495 87.7646 56.7495 81.1684C56.7495 74.5181 61.9606 69.7061 68.2573 69.7061C74.5541 69.7061 79.8737 74.5181 79.8737 81.1684ZM74.7169 81.1684C74.7169 77.0592 71.7314 74.2477 68.2031 74.2477C64.6747 74.2477 61.6892 77.0052 61.6892 81.1684C61.6892 85.2775 64.729 88.1431 68.2031 88.1431C71.6771 88.1431 74.7169 85.2775 74.7169 81.1684Z" fill="#EA4335"/>
<path d="M105.115 81.1684C105.115 87.8187 99.9038 92.6307 93.4985 92.6307C87.0932 92.6307 81.9907 87.7646 81.9907 81.1684C81.9907 74.5181 87.2018 69.7061 93.4985 69.7061C99.7953 69.7061 105.115 74.5181 105.115 81.1684ZM99.9581 81.1684C99.9581 77.0592 96.9726 74.2477 93.4443 74.2477C89.9159 74.2477 86.9304 77.0052 86.9304 81.1684C86.9304 85.2775 89.9702 88.1431 93.4443 88.1431C96.9183 88.1431 99.9581 85.2775 99.9581 81.1684Z" fill="#FBBC04"/>
<path d="M129.216 70.3547V91.0085C129.216 99.4431 124.168 102.957 118.251 102.957C112.66 102.957 109.349 99.1727 108.046 96.145L112.443 94.3607C113.257 96.2531 115.157 98.4699 118.197 98.4699C122.051 98.4699 124.439 96.0368 124.439 91.7655V90.0353H124.276C122.702 91.7655 120.476 92.7387 118.142 92.6306C112.443 92.6306 107.177 87.6023 107.177 81.2223C107.177 74.7342 112.497 69.6519 118.142 69.6519C120.911 69.6519 123.082 70.8954 124.276 72.2471H124.439V70.3547H129.216ZM124.819 81.2223C124.819 77.1672 122.105 74.2476 118.577 74.2476C115.157 74.2476 112.171 77.2213 112.171 81.2223C112.171 85.1692 115.157 88.143 118.577 88.143C122.105 88.143 124.819 85.1692 124.819 81.2223Z" fill="#4285F4"/>
<path d="M137.792 58.3518H132.744V91.9818H137.792V58.3518Z" fill="#34A853"/>
<path d="M157.334 84.899L161.297 87.6024C160.048 89.3867 156.954 92.6307 151.635 92.6307C145.067 92.6307 140.181 87.6024 140.181 81.1684C140.181 74.3559 145.121 69.7061 151.092 69.7061C157.063 69.7061 159.994 74.464 160.917 77.0592L161.46 78.3028L146.044 84.6828C147.238 87.0077 149.029 88.1972 151.635 88.1972C154.295 88.1431 155.977 86.8995 157.334 84.899ZM145.284 80.7899L155.543 76.5726C155 75.1128 153.317 74.1396 151.309 74.1396C148.703 74.1396 145.121 76.4104 145.284 80.7899Z" fill="#EA4335"/>
</svg>
