<svg width="100" height="40" viewBox="0 0 100 40" fill="none" xmlns="http://www.w3.org/2000/svg">
<path d="M49.1045 17.5V12.666C49.1045 12.4186 49.124 12.0199 49.1631 11.4697H49.1436C49.098 11.6162 49.0557 11.7432 49.0166 11.8506C48.9808 11.958 48.9466 12.0459 48.9141 12.1143L46.4727 17.5H46.1943L43.748 12.1484C43.6764 11.9857 43.6032 11.7562 43.5283 11.46H43.5088C43.5218 11.6097 43.5299 11.7806 43.5332 11.9727C43.5397 12.1647 43.543 12.3779 43.543 12.6123V17.5H42.9082V10.498H43.6748L46.0527 15.7617C46.1016 15.8724 46.1488 15.9863 46.1943 16.1035C46.2432 16.2174 46.2871 16.3395 46.3262 16.4697H46.3555C46.401 16.3395 46.4417 16.2207 46.4775 16.1133C46.5166 16.0059 46.5638 15.8903 46.6191 15.7666L49.0166 10.498H49.7441V17.5H49.1045Z" fill="black"/>
<path d="M51.7656 11.2354C51.6452 11.2354 51.541 11.193 51.4531 11.1084C51.3652 11.0238 51.3213 10.9163 51.3213 10.7861C51.3213 10.6592 51.3652 10.555 51.4531 10.4736C51.541 10.389 51.6452 10.3467 51.7656 10.3467C51.8275 10.3467 51.8861 10.3581 51.9414 10.3809C51.9967 10.4004 52.0439 10.4297 52.083 10.4688C52.1253 10.5078 52.1579 10.555 52.1807 10.6104C52.2067 10.6624 52.2197 10.721 52.2197 10.7861C52.2197 10.848 52.2083 10.9066 52.1855 10.9619C52.1628 11.0173 52.1302 11.0661 52.0879 11.1084C52.0456 11.1475 51.9967 11.1784 51.9414 11.2012C51.8893 11.224 51.8307 11.2354 51.7656 11.2354ZM51.458 17.5V12.5H52.083V17.5H51.458Z" fill="black"/>
<path d="M57.0195 17.2754C56.6484 17.5 56.1992 17.6156 55.6719 17.6221C55.3138 17.6253 54.9915 17.5635 54.7051 17.4365C54.4186 17.3096 54.1745 17.1338 53.9727 16.9092C53.7708 16.6813 53.6162 16.4144 53.5088 16.1084C53.4014 15.7992 53.3477 15.4639 53.3477 15.1025C53.3477 14.7282 53.4046 14.3766 53.5186 14.0479C53.6325 13.7158 53.7985 13.4277 54.0166 13.1836C54.2347 12.9362 54.5016 12.7409 54.8174 12.5977C55.1331 12.4544 55.4945 12.3828 55.9014 12.3828C56.3148 12.3828 56.6924 12.4626 57.0342 12.6221V13.2861C56.6696 13.0452 56.2757 12.9248 55.8525 12.9248C55.5563 12.9248 55.2926 12.9818 55.0615 13.0957C54.8304 13.2064 54.6351 13.3594 54.4756 13.5547C54.3193 13.7467 54.1989 13.973 54.1143 14.2334C54.0329 14.4906 53.9922 14.764 53.9922 15.0537C53.9922 15.3206 54.0264 15.5762 54.0947 15.8203C54.1663 16.0645 54.2738 16.2809 54.417 16.4697C54.5635 16.6553 54.7474 16.8034 54.9688 16.9141C55.1901 17.0247 55.4505 17.0801 55.75 17.0801C56.2188 17.0801 56.6419 16.9401 57.0195 16.6602V17.2754Z" fill="black"/>
<path d="M60.7061 13.1396C60.5596 13.0322 60.3708 12.9785 60.1396 12.9785C59.9736 12.9785 59.8271 13.0111 59.7002 13.0762C59.5732 13.138 59.4609 13.2227 59.3633 13.3301C59.2689 13.4375 59.1875 13.5628 59.1191 13.7061C59.054 13.846 59.0003 13.9925 58.958 14.1455C58.9189 14.2985 58.8896 14.4531 58.8701 14.6094C58.8538 14.7656 58.8457 14.9137 58.8457 15.0537V17.5H58.2256V12.5H58.8457V13.5693H58.8652C58.9238 13.387 58.9971 13.2243 59.085 13.0811C59.1761 12.9346 59.2803 12.8125 59.3975 12.7148C59.5146 12.6139 59.6416 12.5374 59.7783 12.4854C59.9183 12.4333 60.0648 12.4072 60.2178 12.4072C60.3187 12.4072 60.4082 12.4137 60.4863 12.4268C60.5677 12.4398 60.641 12.4593 60.7061 12.4854V13.1396Z" fill="black"/>
<path d="M63.5234 17.6172C63.1523 17.6172 62.8187 17.5553 62.5225 17.4316C62.2295 17.3079 61.9788 17.1338 61.7705 16.9092C61.5622 16.6813 61.4027 16.4095 61.292 16.0938C61.1813 15.778 61.126 15.4281 61.126 15.0439C61.126 14.6273 61.1846 14.2546 61.3018 13.9258C61.4189 13.597 61.585 13.3187 61.7998 13.0908C62.0179 12.8597 62.2799 12.6839 62.5859 12.5635C62.8919 12.443 63.2337 12.3828 63.6113 12.3828C63.9727 12.3828 64.2982 12.443 64.5879 12.5635C64.8776 12.6807 65.1234 12.8516 65.3252 13.0762C65.527 13.3008 65.6816 13.5742 65.7891 13.8965C65.8965 14.2188 65.9502 14.585 65.9502 14.9951C65.9502 15.3857 65.8932 15.7422 65.7793 16.0645C65.6686 16.3835 65.5091 16.6585 65.3008 16.8896C65.0924 17.1208 64.8385 17.2998 64.5391 17.4268C64.2396 17.5537 63.901 17.6172 63.5234 17.6172ZM63.5723 12.9248C63.2988 12.9248 63.0514 12.972 62.8301 13.0664C62.6087 13.1608 62.4183 13.2992 62.2588 13.4814C62.1025 13.6605 61.9821 13.8818 61.8975 14.1455C61.8128 14.4059 61.7705 14.7021 61.7705 15.0342C61.7705 15.3467 61.8128 15.6283 61.8975 15.8789C61.9821 16.1296 62.1009 16.3444 62.2539 16.5234C62.4102 16.7025 62.599 16.8408 62.8203 16.9385C63.0417 17.0329 63.2891 17.0801 63.5625 17.0801C63.8424 17.0801 64.0898 17.0345 64.3047 16.9434C64.5195 16.849 64.7018 16.7139 64.8516 16.5381C65.0013 16.359 65.1136 16.141 65.1885 15.8838C65.2666 15.6266 65.3057 15.3337 65.3057 15.0049C65.3057 14.3311 65.1559 13.8167 64.8564 13.4619C64.557 13.1038 64.1289 12.9248 63.5723 12.9248Z" fill="black"/>
<path d="M66.9268 16.6016C67.0212 16.6764 67.1237 16.7432 67.2344 16.8018C67.3451 16.8604 67.459 16.9108 67.5762 16.9531C67.6934 16.9954 67.8105 17.028 67.9277 17.0508C68.0482 17.0703 68.1621 17.0801 68.2695 17.0801C69.0117 17.0801 69.3828 16.8018 69.3828 16.2451C69.3828 16.1182 69.3568 16.0091 69.3047 15.918C69.2526 15.8236 69.1777 15.7389 69.0801 15.6641C68.9824 15.5859 68.8652 15.5143 68.7285 15.4492C68.5918 15.3841 68.4372 15.3158 68.2646 15.2441C68.0335 15.1497 67.835 15.0537 67.6689 14.9561C67.5029 14.8584 67.3662 14.7526 67.2588 14.6387C67.1514 14.5215 67.0716 14.3945 67.0195 14.2578C66.9674 14.1178 66.9414 13.96 66.9414 13.7842C66.9414 13.5628 66.9886 13.3659 67.083 13.1934C67.1807 13.0208 67.3109 12.8743 67.4736 12.7539C67.6364 12.6335 67.8236 12.5423 68.0352 12.4805C68.25 12.4154 68.4746 12.3828 68.709 12.3828C69.1419 12.3828 69.5195 12.4642 69.8418 12.627V13.2861C69.4674 13.0452 69.0638 12.9248 68.6309 12.9248C68.4746 12.9248 68.3314 12.9443 68.2012 12.9834C68.0742 13.0225 67.9652 13.0778 67.874 13.1494C67.7829 13.221 67.7113 13.3073 67.6592 13.4082C67.6104 13.5059 67.5859 13.6149 67.5859 13.7354C67.5859 13.859 67.6055 13.9681 67.6445 14.0625C67.6836 14.1536 67.7438 14.2367 67.8252 14.3115C67.9098 14.3864 68.0173 14.458 68.1475 14.5264C68.2809 14.5947 68.4421 14.668 68.6309 14.7461C68.8717 14.8438 69.0801 14.9414 69.2559 15.0391C69.4316 15.1335 69.5765 15.2376 69.6904 15.3516C69.8044 15.4622 69.889 15.5876 69.9443 15.7275C69.9997 15.8643 70.0273 16.0238 70.0273 16.2061C70.0273 16.4307 69.9801 16.6309 69.8857 16.8066C69.7946 16.9824 69.666 17.1305 69.5 17.251C69.3372 17.3714 69.1452 17.4626 68.9238 17.5244C68.7025 17.5863 68.4616 17.6172 68.2012 17.6172C67.6966 17.6172 67.2718 17.5114 66.9268 17.2998V16.6016Z" fill="black"/>
<path d="M73.3184 17.6172C72.9473 17.6172 72.6136 17.5553 72.3174 17.4316C72.0244 17.3079 71.7738 17.1338 71.5654 16.9092C71.3571 16.6813 71.1976 16.4095 71.0869 16.0938C70.9762 15.778 70.9209 15.4281 70.9209 15.0439C70.9209 14.6273 70.9795 14.2546 71.0967 13.9258C71.2139 13.597 71.3799 13.3187 71.5947 13.0908C71.8128 12.8597 72.0749 12.6839 72.3809 12.5635C72.6868 12.443 73.0286 12.3828 73.4062 12.3828C73.7676 12.3828 74.0931 12.443 74.3828 12.5635C74.6725 12.6807 74.9183 12.8516 75.1201 13.0762C75.3219 13.3008 75.4766 13.5742 75.584 13.8965C75.6914 14.2188 75.7451 14.585 75.7451 14.9951C75.7451 15.3857 75.6882 15.7422 75.5742 16.0645C75.4635 16.3835 75.304 16.6585 75.0957 16.8896C74.8874 17.1208 74.6335 17.2998 74.334 17.4268C74.0345 17.5537 73.696 17.6172 73.3184 17.6172ZM73.3672 12.9248C73.0938 12.9248 72.8464 12.972 72.625 13.0664C72.4036 13.1608 72.2132 13.2992 72.0537 13.4814C71.8975 13.6605 71.777 13.8818 71.6924 14.1455C71.6077 14.4059 71.5654 14.7021 71.5654 15.0342C71.5654 15.3467 71.6077 15.6283 71.6924 15.8789C71.777 16.1296 71.8958 16.3444 72.0488 16.5234C72.2051 16.7025 72.3939 16.8408 72.6152 16.9385C72.8366 17.0329 73.084 17.0801 73.3574 17.0801C73.6374 17.0801 73.8848 17.0345 74.0996 16.9434C74.3145 16.849 74.4967 16.7139 74.6465 16.5381C74.7962 16.359 74.9085 16.141 74.9834 15.8838C75.0615 15.6266 75.1006 15.3337 75.1006 15.0049C75.1006 14.3311 74.9508 13.8167 74.6514 13.4619C74.3519 13.1038 73.9238 12.9248 73.3672 12.9248Z" fill="black"/>
<path d="M79.1484 10.6885C79.0085 10.5973 78.8278 10.5518 78.6064 10.5518C78.0205 10.5518 77.7275 10.9342 77.7275 11.6992V12.5H78.9727V13.0469H77.7275V17.5H77.1025V13.0469H76.2285V12.5H77.1025V11.6602C77.1025 11.4095 77.1335 11.1833 77.1953 10.9814C77.2604 10.7764 77.3548 10.6022 77.4785 10.459C77.6022 10.3125 77.7568 10.2002 77.9424 10.1221C78.1312 10.0439 78.3477 10.0049 78.5918 10.0049C78.8262 10.0049 79.0117 10.0358 79.1484 10.0977V10.6885Z" fill="black"/>
<path d="M82.1025 17.4414C81.8877 17.5488 81.6533 17.6025 81.3994 17.6025C80.5921 17.6025 80.1885 17.137 80.1885 16.2061V13.0469H79.3096V12.5H80.1885V11.2402L80.8135 11.0352V12.5H82.1025V13.0469H80.8135V16.1084C80.8135 16.4469 80.8688 16.6911 80.9795 16.8408C81.0902 16.9906 81.2773 17.0654 81.541 17.0654C81.7363 17.0654 81.9235 17.0068 82.1025 16.8896V17.4414Z" fill="black"/>
<path d="M42.9082 30.75V23.748H46.3213V24.3438H43.5576V26.9121H46.1162V27.498H43.5576V30.1592H46.4775V30.75H42.9082Z" fill="black"/>
<path d="M49.5977 28.2891L51.2383 30.75H50.4863L49.4707 29.0947C49.4316 29.0329 49.391 28.9694 49.3486 28.9043C49.3096 28.8392 49.2689 28.7692 49.2266 28.6943H49.207C49.1908 28.7269 49.1647 28.7708 49.1289 28.8262C49.0964 28.8783 49.0557 28.945 49.0068 29.0264L47.9131 30.75H47.1758L48.8652 28.3037L47.2295 25.75H47.957L48.9971 27.5029C49.0492 27.5908 49.0947 27.6706 49.1338 27.7422C49.1729 27.8105 49.2054 27.8675 49.2314 27.9131H49.251C49.2933 27.8512 49.3324 27.7894 49.3682 27.7275C49.404 27.6624 49.4414 27.5973 49.4805 27.5322L50.584 25.75H51.2871L49.5977 28.2891Z" fill="black"/>
<path d="M55.4863 30.5254C55.1152 30.75 54.666 30.8656 54.1387 30.8721C53.7806 30.8753 53.4583 30.8135 53.1719 30.6865C52.8854 30.5596 52.6413 30.3838 52.4395 30.1592C52.2376 29.9313 52.083 29.6644 51.9756 29.3584C51.8682 29.0492 51.8145 28.7139 51.8145 28.3525C51.8145 27.9782 51.8714 27.6266 51.9854 27.2979C52.0993 26.9658 52.2653 26.6777 52.4834 26.4336C52.7015 26.1862 52.9684 25.9909 53.2842 25.8477C53.5999 25.7044 53.9613 25.6328 54.3682 25.6328C54.7816 25.6328 55.1592 25.7126 55.501 25.8721V26.5361C55.1364 26.2952 54.7425 26.1748 54.3193 26.1748C54.0231 26.1748 53.7594 26.2318 53.5283 26.3457C53.2972 26.4564 53.1019 26.6094 52.9424 26.8047C52.7861 26.9967 52.6657 27.223 52.5811 27.4834C52.4997 27.7406 52.459 28.014 52.459 28.3037C52.459 28.5706 52.4932 28.8262 52.5615 29.0703C52.6331 29.3145 52.7406 29.5309 52.8838 29.7197C53.0303 29.9053 53.2142 30.0534 53.4355 30.1641C53.6569 30.2747 53.9173 30.3301 54.2168 30.3301C54.6855 30.3301 55.1087 30.1901 55.4863 29.9102V30.5254Z" fill="black"/>
<path d="M56.9902 28.3623C56.9935 28.6683 57.0342 28.9434 57.1123 29.1875C57.1904 29.4316 57.3027 29.6383 57.4492 29.8076C57.5957 29.9769 57.7731 30.1071 57.9814 30.1982C58.193 30.2861 58.4307 30.3301 58.6943 30.3301C59.2575 30.3301 59.7897 30.1331 60.291 29.7393V30.3545C59.8125 30.6963 59.2331 30.8672 58.5527 30.8672C58.2174 30.8672 57.9131 30.8086 57.6396 30.6914C57.3662 30.5742 57.1335 30.4049 56.9414 30.1836C56.7493 29.959 56.6012 29.6839 56.4971 29.3584C56.3929 29.0329 56.3408 28.6618 56.3408 28.2451C56.3408 27.8708 56.3978 27.5241 56.5117 27.2051C56.6257 26.8861 56.7835 26.611 56.9854 26.3799C57.1872 26.1455 57.4264 25.9632 57.7031 25.833C57.9798 25.6995 58.2826 25.6328 58.6113 25.6328C58.9336 25.6328 59.2184 25.6898 59.4658 25.8037C59.7132 25.9144 59.9199 26.0739 60.0859 26.2822C60.2552 26.4906 60.3838 26.7445 60.4717 27.0439C60.5596 27.3434 60.6035 27.6787 60.6035 28.0498V28.3623H56.9902ZM59.959 27.8154C59.9492 27.2946 59.8255 26.891 59.5879 26.6045C59.3503 26.318 59.0199 26.1748 58.5967 26.1748C58.3851 26.1748 58.1882 26.2122 58.0059 26.2871C57.8268 26.362 57.6689 26.471 57.5322 26.6143C57.3955 26.7542 57.2816 26.9268 57.1904 27.1318C57.1025 27.3337 57.0407 27.5615 57.0049 27.8154H59.959Z" fill="black"/>
<path d="M61.8291 30.75V23.3477H62.4541V30.75H61.8291Z" fill="black"/>
<path d="M22.7791 7.09424H12.8588C12.53 7.09424 12.2147 7.22485 11.9822 7.45734C11.7498 7.68982 11.6191 8.00514 11.6191 8.33393V13.6042L22.7791 20.1142L28.3591 22.469L33.9391 20.1142V13.6042L22.7791 7.09424Z" fill="#21A366"/>
<path d="M11.6191 13.6045H22.7791V20.1145H11.6191V13.6045Z" fill="#107C41"/>
<path d="M32.6996 7.09424H22.7793V13.6042H33.9393V8.33393C33.9393 8.00514 33.8087 7.68982 33.5762 7.45733C33.3437 7.22485 33.0284 7.09424 32.6996 7.09424Z" fill="#33C481"/>
<path d="M22.7791 20.1143H11.6191V31.8946C11.6191 32.2234 11.7498 32.5387 11.9822 32.7712C12.2147 33.0037 12.53 33.1343 12.8588 33.1343H32.6994C33.0282 33.1343 33.3436 33.0037 33.576 32.7712C33.8085 32.5387 33.9391 32.2234 33.9391 31.8946V26.6243L22.7791 20.1143Z" fill="#185C37"/>
<path d="M22.7793 20.1143H33.9393V26.6243H22.7793V20.1143Z" fill="#107C41"/>
<path opacity="0.1" d="M19.6795 11.7441H11.6191V29.4141H19.6795C20.0079 29.4132 20.3227 29.2822 20.555 29.05C20.7872 28.8177 20.9182 28.5029 20.9191 28.1744V12.9838C20.9182 12.6553 20.7872 12.3406 20.555 12.1083C20.3227 11.876 20.0079 11.7451 19.6795 11.7441Z" fill="black"/>
<path opacity="0.2" d="M18.7494 12.6743H11.6191V30.3443H18.7494C19.0779 30.3433 19.3927 30.2124 19.625 29.9801C19.8572 29.7479 19.9882 29.4331 19.9891 29.1046V13.914C19.9882 13.5855 19.8572 13.2708 19.625 13.0385C19.3927 12.8062 19.0779 12.6753 18.7494 12.6743Z" fill="black"/>
<path opacity="0.2" d="M18.7494 12.6743H11.6191V28.4843H18.7494C19.0779 28.4833 19.3927 28.3524 19.625 28.1201C19.8572 27.8879 19.9882 27.5731 19.9891 27.2446V13.914C19.9882 13.5855 19.8572 13.2708 19.625 13.0385C19.3927 12.8062 19.0779 12.6753 18.7494 12.6743Z" fill="black"/>
<path opacity="0.2" d="M17.8194 12.6743H11.6191V28.4843H17.8194C18.1479 28.4833 18.4627 28.3524 18.695 28.1201C18.9272 27.8879 19.0582 27.5731 19.0591 27.2446V13.914C19.0582 13.5855 18.9272 13.2708 18.695 13.0385C18.4627 12.8062 18.1479 12.6753 17.8194 12.6743Z" fill="black"/>
<path d="M5.41938 12.6743H17.82C18.1488 12.6743 18.4641 12.8049 18.6966 13.0374C18.9291 13.2699 19.0597 13.5852 19.0597 13.914V26.3146C19.0597 26.6434 18.9291 26.9587 18.6966 27.1912C18.4641 27.4237 18.1488 27.5543 17.82 27.5543H5.41938C5.09059 27.5543 4.77527 27.4237 4.54278 27.1912C4.3103 26.9587 4.17969 26.6434 4.17969 26.3146V13.914C4.17969 13.5852 4.3103 13.2699 4.54278 13.0374C4.77527 12.8049 5.09059 12.6743 5.41938 12.6743Z" fill="#107C41"/>
<path d="M7.46484 24.7644L10.4743 20.1013L7.7178 15.4644H9.93585L11.4406 18.4283C11.5789 18.7091 11.674 18.9187 11.7261 19.0569H11.7456C11.8448 18.8325 11.9487 18.6143 12.0572 18.4022L13.6652 15.4644H15.7009L12.8737 20.0753L15.7725 24.7644H13.6056L11.8675 21.5094C11.7856 21.3707 11.7162 21.2251 11.6601 21.0741H11.634C11.5833 21.2217 11.5159 21.3631 11.4332 21.4954L9.64476 24.7644H7.46484Z" fill="white"/>
</svg>
