<svg width="100" height="40" viewBox="0 0 100 40" fill="none" xmlns="http://www.w3.org/2000/svg">
<path d="M6.25 28.4726V11.5367L21.2316 6L29.3735 8.60552V31.4036L21.2316 33.8579L6.25 28.4724L21.2316 30.2753V10.5598L11.4608 12.8396V26.1929L6.25 28.4726Z" fill="#EB3C00"/>
<path d="M45.3291 28.5912C42.9708 28.5912 41.0822 27.8141 39.6634 26.26C38.2446 24.7058 37.5352 22.6839 37.5352 20.194C37.5352 17.5187 38.2581 15.3847 39.704 13.792C41.1499 12.1992 43.1177 11.4028 45.6074 11.4028C47.9038 11.4028 49.7537 12.176 51.1571 13.7224C52.5604 15.2689 53.2622 17.2908 53.2622 19.7883C53.2622 22.5023 52.543 24.6479 51.1049 26.2254C49.6667 27.8027 47.7414 28.5914 45.329 28.5914L45.3291 28.5912ZM45.4683 13.1654C43.7208 13.1654 42.302 13.7956 41.2118 15.0559C40.1216 16.3162 39.5764 17.971 39.5764 20.0199C39.5764 22.0689 40.108 23.7178 41.1711 24.9665C42.2343 26.2153 43.6202 26.8396 45.3291 26.8396C47.1539 26.8396 48.592 26.2443 49.6436 25.0535C50.6951 23.8628 51.2209 22.1965 51.2209 20.0547C51.2209 17.8588 50.7106 16.1616 49.69 14.9632C48.6693 13.7647 47.262 13.1655 45.4682 13.1654H45.4683Z" fill="#EB3C00"/>
<path d="M60.1935 10.4737C59.1187 10.4737 58.2257 10.8398 57.5065 11.5627C56.7875 12.2857 56.4277 13.2694 56.4277 14.5142V16.4378H54.4023V18.0663H56.4277V28.3151H58.3207V18.0663H62.9516V28.3151H64.8447V18.0663H67.6232V16.4378H64.8447V14.6058C64.8447 12.928 65.5096 12.0919 66.8395 12.0919C67.3112 12.0919 67.7304 12.1885 68.1016 12.3973V10.6874C67.7614 10.5482 67.3074 10.4737 66.7276 10.4737C65.6528 10.4737 64.7496 10.8397 64.0305 11.5627C63.3114 12.2856 62.9516 13.2694 62.9516 14.5142V16.4378H58.3207V14.6058C58.3207 12.9279 58.9856 12.0919 60.3156 12.0919C60.7872 12.0919 61.2065 12.1885 61.5776 12.3972V10.6874C61.2374 10.5482 60.7734 10.4737 60.1934 10.4736L60.1935 10.4737Z" fill="#EB3C00"/>
<path d="M70.3895 13.4191C70.0493 13.4191 69.7594 13.3032 69.5197 13.0712C69.28 12.8392 69.1602 12.5454 69.1602 12.1897C69.1602 11.8341 69.28 11.5383 69.5197 11.3025C69.7594 11.0667 70.0493 10.9487 70.3895 10.9487C70.7375 10.9487 71.0332 11.0667 71.2767 11.3025C71.5203 11.5383 71.6421 11.8341 71.6421 12.1897C71.6421 12.53 71.5203 12.8199 71.2767 13.0596C71.0332 13.2993 70.7374 13.4191 70.3895 13.4191V13.4191ZM71.3174 28.311H69.4153V16.4346H71.3174V28.311Z" fill="#EB3C00"/>
<path d="M82.1223 27.766C81.2099 28.315 80.1274 28.5894 78.8748 28.5894C77.1814 28.5894 75.8148 28.0385 74.7748 26.9367C73.7349 25.8349 73.2148 24.4064 73.2148 22.6512C73.2148 20.695 73.7754 19.1235 74.8966 17.9365C76.0177 16.7496 77.5138 16.1562 79.385 16.1562C80.4289 16.1563 81.349 16.3496 82.1454 16.7362V18.6846C81.2639 18.0661 80.3206 17.7568 79.3155 17.7568C78.1015 17.7568 77.106 18.1917 76.3289 19.0616C75.5518 19.9314 75.1633 21.0739 75.1633 22.4888C75.1633 23.8806 75.5286 24.9786 76.2593 25.7827C76.99 26.5869 77.97 26.989 79.1995 26.9889C80.2356 26.9889 81.2098 26.6448 82.1222 25.9566L82.1223 27.766Z" fill="#EB3C00"/>
<path d="M93.7496 22.8488H85.3643C85.3952 24.171 85.7508 25.1916 86.4313 25.9107C87.1117 26.6297 88.0473 26.9893 89.2381 26.9893C90.5757 26.9893 91.8051 26.5486 92.9262 25.6671V27.4532C91.8824 28.2109 90.5023 28.5899 88.7857 28.5899C87.1079 28.5899 85.7896 28.0505 84.8308 26.9719C83.872 25.8933 83.3926 24.3759 83.3926 22.4197C83.3926 20.5717 83.9164 19.0659 84.9641 17.9022C86.0118 16.7386 87.3128 16.1567 88.8669 16.1567C90.4211 16.1568 91.6234 16.6593 92.474 17.6645C93.3245 18.6697 93.7497 20.0653 93.7497 21.8514L93.7496 22.8488ZM91.8012 21.2367C91.7935 20.1388 91.5286 19.2844 91.0067 18.6735C90.4848 18.0627 89.7599 17.7572 88.8321 17.7572C87.9352 17.7573 87.1735 18.0781 86.5472 18.7199C85.9209 19.3617 85.5343 20.2006 85.3874 21.2367H91.8012Z" fill="#EB3C00"/>
</svg>
