<svg width="100" height="40" viewBox="0 0 100 40" fill="none" xmlns="http://www.w3.org/2000/svg">
<path d="M10.8164 10.8061L12.7195 13.1404C12.8011 13.2516 12.693 13.3336 12.693 13.3336C11.9304 13.767 11.3786 14.4215 10.9064 15.1713C10.8128 15.3203 10.7118 15.212 10.7118 15.212L8.30014 13.3099C8.30014 13.3099 8.19653 13.2458 8.28719 13.119C8.99333 12.1313 9.63493 11.4347 10.6606 10.7773C10.6606 10.777 10.7383 10.6999 10.8164 10.8061Z" fill="#D02D1C"/>
<path d="M7.31346 14.5163L10.1653 15.9339C10.3008 15.9879 10.2331 16.1148 10.2331 16.1148C9.839 17.0792 9.59896 17.8932 9.41372 18.8796C9.38271 19.0448 9.27373 18.992 9.27373 18.992L6.06588 17.5594C6.06588 17.5594 5.96965 17.5225 6.0098 17.3953C6.15212 16.9441 6.87777 15.1424 7.16901 14.5538C7.16901 14.5536 7.2202 14.4643 7.31346 14.5163Z" fill="#C61E05"/>
<path d="M5.67063 19.0096C6.33562 19.2141 9.1257 19.8554 9.1257 19.8554C9.29286 19.9068 9.24306 20.032 9.24306 20.032C9.05056 21.5446 9.09235 22.6989 9.09235 23.0978C9.09235 23.2746 8.9633 23.2487 8.9633 23.2487C8.23898 23.2487 4.89175 23.2487 4.89175 23.2487C4.71484 23.2487 4.7536 23.0896 4.7536 23.0896C4.78694 22.5857 4.93246 21.152 5.49372 19.0965C5.49372 19.0963 5.52166 18.9638 5.67063 19.0096Z" fill="#AE1400"/>
<path d="M19.041 10.8061L17.0321 13.1404C16.9461 13.2516 17.0602 13.3336 17.0602 13.3336C17.8651 13.767 18.4476 14.4215 18.946 15.1713C19.0448 15.3203 19.1515 15.212 19.1515 15.212L21.6971 13.3099C21.6971 13.3099 21.8064 13.2458 21.7107 13.119C20.9654 12.1313 20.2881 11.4347 19.2055 10.7773C19.2057 10.777 19.1235 10.6999 19.041 10.8061Z" fill="#D02D1C"/>
<path d="M14.8751 12.6681C15.1995 12.6681 15.8 12.699 16.0832 12.7461C16.2313 12.7705 16.2678 12.6728 16.2678 12.6728L17.4807 10.1406C17.4807 10.1406 17.5617 10.0452 17.3919 9.98317C16.4866 9.65226 16.0052 9.5 14.8751 9.5C13.7584 9.5 13.2634 9.65226 12.3581 9.98317C12.1883 10.0452 12.2693 10.1406 12.2693 10.1406L13.4822 12.6728C13.4822 12.6728 13.5187 12.7705 13.6668 12.7461C13.9503 12.699 14.5508 12.6681 14.8751 12.6681Z" fill="#D94A3A"/>
<path d="M22.4365 14.5163L19.5847 15.9339C19.4492 15.9879 19.5169 16.1148 19.5169 16.1148C19.911 17.0792 20.1511 17.8932 20.3363 18.8796C20.3673 19.0448 20.4762 18.992 20.4762 18.992L23.6841 17.5594C23.6841 17.5594 23.7804 17.5225 23.7402 17.3953C23.5979 16.9441 22.8722 15.1424 22.581 14.5538C22.5808 14.5536 22.5298 14.4643 22.4365 14.5163Z" fill="#C61E05"/>
<path d="M24.0794 19.0096C23.4144 19.2141 20.6243 19.8554 20.6243 19.8554C20.4571 19.9068 20.5069 20.032 20.5069 20.032C20.6995 21.5446 20.6577 22.6989 20.6577 23.0978C20.6577 23.2746 20.7867 23.2487 20.7867 23.2487C21.511 23.2487 24.8583 23.2487 24.8583 23.2487C25.0352 23.2487 24.9964 23.0896 24.9964 23.0896C24.9631 22.5857 24.8176 21.152 24.2563 19.0965C24.2563 19.0963 24.2284 18.9638 24.0794 19.0096Z" fill="#AE1400"/>
<path d="M47.5302 29.5V27.9406H47.25V27.5937H47.5302V27.3903C47.5302 27.1485 47.5844 26.9813 47.6933 26.8889C47.8019 26.7962 47.9989 26.75 48.284 26.75C48.3326 26.75 48.3997 26.7521 48.4855 26.756V27.113C48.4204 27.0984 48.3651 27.0909 48.3194 27.0909C48.1104 27.0909 48.006 27.1906 48.006 27.3901V27.5934H48.5V27.9404H48.006V29.4998H47.5302V29.5Z" fill="#7F7F7F"/>
<path d="M49 26.75V29.5H48.5V26.75H49Z" fill="#7F7F7F"/>
<path d="M50.5429 28.8522H50.9996V28.9279C50.9996 29.3091 50.7215 29.5 50.1655 29.5C49.7882 29.5 49.5412 29.4337 49.4247 29.3018C49.3082 29.1699 49.25 28.8899 49.25 28.4623C49.25 28.082 49.3108 27.8268 49.4329 27.6962C49.5549 27.5656 49.7923 27.5 50.146 27.5C50.4849 27.5 50.7121 27.5636 50.8272 27.6909C50.9424 27.8184 51 28.0688 51 28.4415V28.5847H49.715C49.7122 28.628 49.7109 28.6569 49.7109 28.6703C49.7109 28.8625 49.7399 28.9905 49.7973 29.0543C49.855 29.1184 49.9698 29.1506 50.1417 29.1506C50.3085 29.1506 50.4173 29.1319 50.4674 29.0944C50.5176 29.057 50.5429 28.9761 50.5429 28.8522ZM50.5465 28.2989L50.5446 28.2209C50.5446 28.0657 50.5185 27.965 50.4663 27.9186C50.4138 27.8726 50.3004 27.8494 50.1254 27.8494C49.9561 27.8494 49.8456 27.8774 49.7949 27.9332C49.7439 27.9891 49.7185 28.111 49.7185 28.2989H50.5465Z" fill="#7F7F7F"/>
<path d="M52.9335 27.5L52.3384 28.4415L53 29.5H52.4132L52.0021 28.7739L51.6018 29.5H51L51.6703 28.4476L51.0791 27.5H51.6637L52.0021 28.1341L52.349 27.5H52.9335Z" fill="#7F7F7F"/>
<path d="M53.5 26.75V27.1346H53V26.75H53.5ZM53.5 27.574V29.5H53V27.574H53.5Z" fill="#7F7F7F"/>
<path d="M54 29.4776V26.75H54.4492V27.8408L54.4589 27.8451C54.5361 27.6439 54.7317 27.5433 55.0456 27.5433C55.315 27.5433 55.4996 27.6103 55.5999 27.7443C55.6999 27.8781 55.75 28.1262 55.75 28.4885C55.75 28.8844 55.6993 29.1517 55.5978 29.2911C55.4964 29.4302 55.3019 29.5 55.0141 29.5C54.7224 29.5 54.5308 29.3919 54.4393 29.1761H54.4293L54.449 29.4778H54V29.4776ZM54.8925 27.9048C54.6008 27.9048 54.4551 28.0894 54.4551 28.4583C54.4551 28.7474 54.4799 28.9329 54.5296 29.0149C54.5792 29.0968 54.692 29.1377 54.8671 29.1377C55.0502 29.1377 55.1674 29.1 55.2183 29.0249C55.2693 28.9497 55.2949 28.7776 55.2949 28.5086C55.2949 28.258 55.2695 28.0948 55.2194 28.0189C55.1689 27.9429 55.06 27.9048 54.8925 27.9048Z" fill="#7F7F7F"/>
<path d="M56.5 26.75V29.5H56V26.75H56.5Z" fill="#7F7F7F"/>
<path d="M58.0429 28.8522H58.4996V28.9279C58.4996 29.3091 58.2215 29.5 57.6655 29.5C57.2882 29.5 57.0412 29.4337 56.9247 29.3018C56.8082 29.1699 56.75 28.8899 56.75 28.4623C56.75 28.082 56.8108 27.8268 56.9328 27.6962C57.0549 27.5656 57.2923 27.5 57.646 27.5C57.9849 27.5 58.2121 27.5636 58.3273 27.6909C58.4424 27.8184 58.5 28.0688 58.5 28.4415V28.5847H57.215C57.2122 28.628 57.2109 28.6569 57.2109 28.6703C57.2109 28.8625 57.2399 28.9905 57.2972 29.0543C57.355 29.1184 57.4698 29.1506 57.6417 29.1506C57.8085 29.1506 57.9173 29.1319 57.9674 29.0944C58.0176 29.057 58.0429 28.9761 58.0429 28.8522ZM58.0468 28.2989L58.0448 28.2209C58.0448 28.0657 58.0187 27.965 57.9665 27.9186C57.914 27.8726 57.8005 27.8494 57.6257 27.8494C57.4563 27.8494 57.3459 27.8774 57.2951 27.9332C57.2441 27.9891 57.2186 28.111 57.2186 28.2989H58.0468Z" fill="#7F7F7F"/>
<path d="M59.7502 27.5239H60.201L60.1838 27.8072L60.1933 27.8094C60.3006 27.6031 60.4998 27.5 60.7913 27.5C61.061 27.5 61.2465 27.5689 61.3479 27.7066C61.4491 27.8444 61.5 28.0957 61.5 28.4598C61.5 28.8406 61.4495 29.1013 61.3487 29.2422C61.2482 29.3833 61.0616 29.4539 60.7894 29.4539C60.499 29.4539 60.3093 29.3539 60.2202 29.1542H60.2126V30.25H59.75V27.5239H59.7502ZM60.6231 27.861C60.4539 27.861 60.3438 27.9006 60.2922 27.9789C60.2405 28.0574 60.2148 28.2236 60.2148 28.4777C60.2148 28.7251 60.2426 28.8894 60.2978 28.9705C60.3534 29.0518 60.4662 29.0923 60.6364 29.0923C60.8094 29.0923 60.9217 29.0536 60.9734 28.9765C61.0249 28.8996 61.0508 28.7339 61.0508 28.4796C61.0508 28.2187 61.0245 28.0505 60.9724 27.9745C60.92 27.899 60.8038 27.861 60.6231 27.861Z" fill="#7F7F7F"/>
<path d="M61.75 27.5311H62.2206L62.1918 27.807L62.202 27.8093C62.3145 27.6032 62.4912 27.5 62.7323 27.5C63.0775 27.5 63.25 27.7185 63.25 28.1552V28.2931H62.8063C62.8116 28.2395 62.8145 28.2047 62.8145 28.188C62.8145 27.9778 62.733 27.8728 62.57 27.8728C62.3371 27.8728 62.2208 28.0286 62.2208 28.3401V29.5H61.7502V27.5311H61.75Z" fill="#7F7F7F"/>
<path d="M64.3809 27.5C64.7384 27.5 64.9725 27.5604 65.0835 27.681C65.1945 27.8018 65.25 28.0561 65.25 28.4449C65.25 28.8784 65.1958 29.1625 65.0875 29.2974C64.9792 29.4323 64.7507 29.5 64.4022 29.5C64.024 29.5 63.7792 29.4372 63.6675 29.3118C63.5559 29.1863 63.5 28.9102 63.5 28.4834C63.5 28.0733 63.5549 27.8068 63.6644 27.684C63.7744 27.5615 64.0131 27.5 64.3809 27.5ZM64.377 27.8701C64.1925 27.8701 64.0751 27.9051 64.0248 27.9754C63.9743 28.0457 63.9493 28.2097 63.9493 28.4672C63.9493 28.7616 63.973 28.9456 64.0208 29.0193C64.0686 29.0929 64.1882 29.1297 64.3791 29.1297C64.5637 29.1297 64.68 29.0909 64.7286 29.0131C64.7768 28.9355 64.8012 28.7489 64.8012 28.453C64.8012 28.2033 64.7762 28.0442 64.7257 27.9743C64.6754 27.9049 64.5591 27.8701 64.377 27.8701Z" fill="#7F7F7F"/>
<path d="M65.9978 27.5351V29.449C65.9978 29.8163 65.8076 30 65.4267 30C65.3728 30 65.3139 29.9951 65.25 29.9847V29.6716H65.3014C65.4241 29.6716 65.4853 29.5853 65.4853 29.4125V27.5351H65.9978ZM66 26.75V27.1165H65.4873V26.75H66Z" fill="#7F7F7F"/>
<path d="M67.5432 28.8522H68V28.9279C68 29.3091 67.7215 29.5 67.1658 29.5C66.7885 29.5 66.541 29.4337 66.4245 29.3018C66.308 29.1699 66.25 28.8899 66.25 28.4623C66.25 28.082 66.311 27.8268 66.433 27.6962C66.5549 27.5656 66.7921 27.5 67.1458 27.5C67.4849 27.5 67.7124 27.5636 67.8277 27.6909C67.9424 27.8184 68 28.0688 68 28.4415V28.5847H66.7151C66.712 28.628 66.7108 28.6569 66.7108 28.6703C66.7108 28.8625 66.7399 28.9905 66.7976 29.0543C66.8552 29.1184 66.9699 29.1506 67.1416 29.1506C67.3084 29.1506 67.4176 29.1319 67.4673 29.0944C67.5177 29.057 67.5432 28.9761 67.5432 28.8522ZM67.5468 28.2989L67.545 28.2209C67.545 28.0657 67.5189 27.965 67.4661 27.9186C67.414 27.8726 67.3005 27.8494 67.1258 27.8494C66.9559 27.8494 66.8455 27.8774 66.7952 27.9332C66.7442 27.9891 66.7187 28.111 66.7187 28.2989H67.5468Z" fill="#7F7F7F"/>
<path d="M69.5427 28.7311H70V28.7985L69.9718 29.0949C69.9154 29.3649 69.6414 29.5 69.1492 29.5C68.7876 29.5 68.5473 29.4335 68.4284 29.3006C68.3095 29.1677 68.25 28.9004 68.25 28.4979C68.25 28.1054 68.3095 27.8412 68.4284 27.7045C68.5473 27.5686 68.779 27.5 69.1229 27.5C69.4545 27.5 69.6794 27.5496 69.7971 27.6483C69.9148 27.747 69.9736 27.935 69.9736 28.2116H69.5182C69.5182 27.9842 69.3889 27.8702 69.1308 27.8702C68.9475 27.8702 68.8323 27.9064 68.7857 27.9787C68.7385 28.0509 68.7152 28.228 68.7152 28.5103C68.7152 28.7827 68.741 28.9541 68.7925 29.0244C68.844 29.0945 68.9702 29.1298 69.1713 29.1298C69.3288 29.1298 69.4299 29.1057 69.4747 29.0573C69.5201 29.0086 69.5427 28.8999 69.5427 28.7311Z" fill="#7F7F7F"/>
<path d="M71.4228 27.4528V27.8207H70.6963V28.836C70.6963 29.0235 70.7627 29.1174 70.8959 29.1174C71.0418 29.1174 71.1148 29.0039 71.1148 28.7767V28.6963H71.5V28.7977C71.5 28.8908 71.497 28.9705 71.4922 29.0367C71.4668 29.3456 71.2528 29.5 70.8483 29.5C70.4455 29.5 70.2448 29.3021 70.2448 28.9058V27.8205H70V27.4525H70.2448V27H70.6963V27.4525H71.4228V27.4528Z" fill="#7F7F7F"/>
<path d="M72.5 27.5229H72.977L72.9649 27.827L72.9751 27.829C73.0725 27.6098 73.2756 27.5 73.5838 27.5C73.9443 27.5 74.1442 27.6222 74.1844 27.8662H74.1926C74.2862 27.6222 74.4907 27.5 74.8078 27.5C75.2695 27.5 75.5 27.7302 75.5 28.191V29.5H75.0224V28.2943C75.0224 28.0144 74.9065 27.8745 74.6741 27.8745C74.3837 27.8745 74.2385 28.0309 74.2385 28.3437V29.5H73.7609V28.2757C73.7609 28.1119 73.7392 28.0038 73.6953 27.952C73.652 27.9006 73.559 27.8745 73.417 27.8745C73.1234 27.8745 72.977 28.0345 72.977 28.3542V29.5H72.5V27.5229Z" fill="#7F7F7F"/>
<path d="M76.2955 28.0889H75.8281C75.8281 27.8546 75.8812 27.6979 75.988 27.6188C76.0941 27.5397 76.3059 27.5 76.6213 27.5C76.9649 27.5 77.1973 27.5487 77.3182 27.6452C77.4396 27.742 77.5 27.9267 77.5 28.1996V29.4775H77.043L77.0649 29.2095L77.0527 29.2075C76.9649 29.4026 76.7617 29.5 76.4432 29.5C75.9813 29.5 75.75 29.299 75.75 28.8967C75.75 28.4905 75.9868 28.2873 76.4596 28.2873C76.7751 28.2873 76.9667 28.3618 77.035 28.5103H77.043V28.1934C77.043 28.0409 77.0167 27.9397 76.9649 27.8896C76.913 27.8399 76.8062 27.8152 76.6451 27.8152C76.412 27.8152 76.2955 27.9064 76.2955 28.0889ZM76.6012 28.6025C76.3425 28.6025 76.2137 28.6939 76.2137 28.8765C76.2137 29.0032 76.24 29.0865 76.2931 29.126C76.3468 29.1656 76.4584 29.1852 76.6293 29.1852C76.9075 29.1852 77.0466 29.0892 77.0466 28.897C77.0466 28.7006 76.8984 28.6025 76.6012 28.6025Z" fill="#7F7F7F"/>
<path d="M78.0006 27.5227H78.4606L78.4426 27.8555L78.4525 27.8578C78.5437 27.6192 78.7464 27.5 79.0619 27.5C79.5206 27.5 79.75 27.7182 79.75 28.1536V29.5H79.2851V28.3088V28.2343L79.2752 28.0957C79.2528 27.9483 79.1394 27.8745 78.9342 27.8745C78.6211 27.8745 78.4649 28.0256 78.4649 28.3273V29.5H78V27.5227H78.0006Z" fill="#7F7F7F"/>
<path d="M80.5455 28.0889H80.0781C80.0781 27.8546 80.1312 27.6979 80.238 27.6188C80.3441 27.5397 80.5559 27.5 80.8713 27.5C81.2149 27.5 81.4473 27.5487 81.5682 27.6452C81.6896 27.742 81.75 27.9267 81.75 28.1996V29.4775H81.293L81.3149 29.2095L81.3027 29.2075C81.2149 29.4026 81.0117 29.5 80.6938 29.5C80.2313 29.5 80 29.299 80 28.8967C80 28.4905 80.2368 28.2873 80.7096 28.2873C81.0251 28.2873 81.2167 28.3618 81.285 28.5103H81.293V28.1934C81.293 28.0409 81.2667 27.9397 81.2149 27.8896C81.163 27.8399 81.0562 27.8152 80.8951 27.8152C80.662 27.8152 80.5455 27.9064 80.5455 28.0889ZM80.8512 28.6025C80.5925 28.6025 80.4637 28.6939 80.4637 28.8765C80.4637 29.0032 80.49 29.0865 80.5437 29.126C80.5968 29.1656 80.7084 29.1852 80.8793 29.1852C81.1575 29.1852 81.2966 29.0892 81.2966 28.897C81.2966 28.7006 81.1484 28.6025 80.8512 28.6025Z" fill="#7F7F7F"/>
<path d="M83.75 27.5219V29.4445C83.75 29.7524 83.6881 29.9634 83.5644 30.0783C83.4401 30.1925 83.2119 30.25 82.8792 30.25C82.5567 30.25 82.3411 30.2066 82.2318 30.1198C82.1231 30.033 82.0691 29.861 82.0691 29.6047H82.5051C82.5051 29.7268 82.5279 29.8055 82.5741 29.8404C82.6204 29.8751 82.7225 29.8926 82.881 29.8926C83.1603 29.8926 83.2996 29.7768 83.2996 29.5451V29.1209L83.29 29.1187C83.2101 29.3202 83.0263 29.4208 82.7393 29.4208C82.4546 29.4208 82.2606 29.3519 82.1561 29.2134C82.0522 29.0755 82 28.8175 82 28.4395C82 28.0842 82.0522 27.8391 82.1561 27.7034C82.2606 27.5678 82.4492 27.5 82.7237 27.5C83.0221 27.5 83.2185 27.6112 83.3116 27.8336H83.3212L83.2996 27.5216H83.75V27.5219ZM82.863 27.8574C82.69 27.8574 82.5789 27.8928 82.5297 27.9629C82.481 28.0334 82.4558 28.1936 82.4558 28.4438C82.4558 28.7095 82.4804 28.8794 82.5297 28.953C82.5789 29.027 82.6924 29.0636 82.869 29.0636C83.0462 29.0636 83.1609 29.0257 83.2131 28.9502C83.266 28.8747 83.2918 28.707 83.2918 28.4479C83.2918 28.1994 83.266 28.0387 83.2131 27.9661C83.1609 27.8936 83.0438 27.8574 82.863 27.8574Z" fill="#7F7F7F"/>
<path d="M85.2926 28.8522H85.7494V28.9279C85.7494 29.3091 85.4716 29.5 84.9153 29.5C84.538 29.5 84.2912 29.4337 84.1747 29.3018C84.0582 29.1699 84 28.8899 84 28.4623C84 28.082 84.0607 27.8268 84.1826 27.6962C84.3045 27.5656 84.5423 27.5 84.8959 27.5C85.235 27.5 85.4619 27.5636 85.5771 27.6909C85.6924 27.8184 85.75 28.0688 85.75 28.4415V28.5847H84.4646C84.4622 28.628 84.461 28.6569 84.461 28.6703C84.461 28.8625 84.4895 28.9905 84.5471 29.0543C84.6048 29.1184 84.7194 29.1506 84.8917 29.1506C85.0585 29.1506 85.1671 29.1319 85.2174 29.0944C85.2678 29.057 85.2926 28.9761 85.2926 28.8522ZM85.2963 28.2989L85.2945 28.2209C85.2945 28.0657 85.2684 27.965 85.2162 27.9186C85.1634 27.8726 85.05 27.8494 84.8753 27.8494C84.7061 27.8494 84.5957 27.8774 84.5447 27.9332C84.4938 27.9891 84.4683 28.111 84.4683 28.2989H85.2963Z" fill="#7F7F7F"/>
<path d="M86 27.5229H86.477L86.4649 27.827L86.4751 27.829C86.5725 27.6098 86.7756 27.5 87.0839 27.5C87.4443 27.5 87.6442 27.6222 87.6844 27.8662H87.6926C87.7862 27.6222 87.9907 27.5 88.3078 27.5C88.7695 27.5 89 27.7302 89 28.191V29.5H88.5224V28.2943C88.5224 28.0144 88.4065 27.8745 88.1741 27.8745C87.8837 27.8745 87.7385 28.0309 87.7385 28.3437V29.5H87.2609V28.2757C87.2609 28.1119 87.2392 28.0038 87.1953 27.952C87.152 27.9006 87.059 27.8745 86.917 27.8745C86.6234 27.8745 86.477 28.0345 86.477 28.3542V29.5H86V27.5229Z" fill="#7F7F7F"/>
<path d="M90.5426 28.8522H90.9994V28.9279C90.9994 29.3091 90.721 29.5 90.1653 29.5C89.788 29.5 89.5412 29.4337 89.4247 29.3018C89.3082 29.1699 89.25 28.8899 89.25 28.4623C89.25 28.082 89.3107 27.8268 89.4326 27.6962C89.5545 27.5656 89.7923 27.5 90.1459 27.5C90.4844 27.5 90.7119 27.5636 90.8271 27.6909C90.9424 27.8184 91 28.0688 91 28.4415V28.5847H89.7146C89.7122 28.628 89.7104 28.6569 89.7104 28.6703C89.7104 28.8625 89.7395 28.9905 89.7971 29.0543C89.8548 29.1184 89.9694 29.1506 90.1417 29.1506C90.3085 29.1506 90.4171 29.1319 90.4668 29.0944C90.5172 29.057 90.5426 28.9761 90.5426 28.8522ZM90.5463 28.2989L90.5445 28.2209C90.5445 28.0657 90.5184 27.965 90.4662 27.9186C90.414 27.8726 90.3 27.8494 90.1253 27.8494C89.9561 27.8494 89.8457 27.8774 89.7947 27.9332C89.7438 27.9891 89.7183 28.111 89.7183 28.2989H90.5463Z" fill="#7F7F7F"/>
<path d="M91.2506 27.5227H91.7112L91.6926 27.8555L91.7025 27.8578C91.7937 27.6192 91.9964 27.5 92.3119 27.5C92.7706 27.5 93 27.7182 93 28.1536V29.5H92.5351V28.3088V28.2343L92.5251 28.0957C92.5034 27.9483 92.3894 27.8745 92.1842 27.8745C91.8711 27.8745 91.7149 28.0256 91.7149 28.3273V29.5H91.25V27.5227H91.2506Z" fill="#7F7F7F"/>
<path d="M94.6723 27.4528V27.8207H93.9467V28.836C93.9467 29.0235 94.013 29.1174 94.1455 29.1174C94.292 29.1174 94.3649 29.0039 94.3649 28.7767V28.6963H94.75V28.7977C94.75 28.8908 94.747 28.9705 94.7422 29.0367C94.7169 29.3456 94.5023 29.5 94.0985 29.5C93.696 29.5 93.4947 29.3021 93.4947 28.9058V27.8205H93.25V27.4525H93.4947V27H93.9467V27.4525H94.6723V27.4528Z" fill="#7F7F7F"/>
<path d="M68.8533 23.25V16.5028L69.0107 15.0832L66.136 23.2498H64.3638L61.4888 15.0832L61.6463 16.5028V23.25H59.5V11H62.0205L64.9742 19.3029C65.1709 19.8862 65.2499 20.3918 65.2499 20.3918C65.2499 20.3918 65.3286 19.8667 65.5256 19.3029L68.4794 11H71V23.25H68.8533Z" fill="#D94A3A"/>
<path d="M73.25 23.25V11H75.25V23.25H73.25Z" fill="#D94A3A"/>
<path d="M83.4311 23.2498L79.5099 14.6749C79.5099 14.6749 79.6476 15.4722 79.6476 16.2889V23.25H77.5V11H80.0223L82.781 17.1834C83.0962 17.8834 83.3524 18.9529 83.3524 18.9529C83.3524 17.3778 83.3524 18.8556 83.3524 11H85.5V23.25H83.4311V23.2498Z" fill="#D94A3A"/>
<path d="M87.75 23.25V11H94.5498V12.886H89.9299V15.9194H93.4699V17.825H89.9299V21.3249H94.75V23.25H87.75Z" fill="#D94A3A"/>
<path d="M53.1086 23.25H49.5V11H53.289C56.9174 11 58 14.1501 58 17.1444C58 20.1776 56.6769 23.25 53.1086 23.25ZM53.2086 12.8276H51.6649V21.4222H53.1084C55.4337 21.4222 55.7946 18.9332 55.7946 17.1831C55.7948 15.4916 55.5342 12.8276 53.2086 12.8276Z" fill="#AE1400"/>
<path d="M41.25 23.25V11H47.8072V12.886H43.3522V15.9194H46.7659V17.825H43.3522V21.3249H48V23.25H41.25Z" fill="#AE1400"/>
<path d="M38.0972 23.25L34.1166 18.875V23.25H32V11H34.8155C38.1943 11 39.4757 12.7112 39.4757 14.889C39.4757 16.7361 38.3108 18.6223 36.5243 18.7778L40 22.3944V23.25H38.0972ZM34.8155 12.8276H34.1164V17.0275C34.1164 17.0275 34.7184 17.2803 35.2233 17.2803C36.602 17.2803 37.3205 16.1525 37.3205 14.8691C37.3205 13.6054 36.5826 12.8276 34.8155 12.8276Z" fill="#AE1400"/>
</svg>
