<svg width="100" height="40" viewBox="0 0 100 40" fill="none" xmlns="http://www.w3.org/2000/svg">
<path d="M25.2283 37.9872C23.2181 37.9872 21.5888 36.3141 21.5888 34.2499C21.5888 32.1859 23.2181 30.5125 25.2285 30.5125C27.2387 30.5125 28.8678 32.1859 28.8678 34.2499C28.8678 36.3141 27.2387 37.9872 25.2285 37.9872H25.2283ZM28.8795 38.4612C28.8795 38.8035 29.4633 39.7649 30.1786 39.7649H30.6418C30.8215 39.7649 30.9682 39.6172 30.9682 39.437V29.2091H30.9666C30.9621 29.1255 30.9259 29.0468 30.8655 28.9891C30.8052 28.9314 30.7251 28.8991 30.6418 28.8988H29.2064C29.0327 28.8988 28.8909 29.0369 28.8811 29.2091H28.8795V30.0402C28.0002 28.952 26.6134 28.5002 25.2228 28.5002C22.062 28.5002 19.5 31.0744 19.5 34.2501C19.5 37.4259 22.062 40 25.2228 40C26.6134 40 28.1289 39.458 28.8795 38.46V38.4617V38.4612ZM34.3981 36.9966C35.3562 37.6633 36.4022 37.9872 37.4073 37.9872C38.3652 37.9872 39.3548 37.4883 39.3548 36.6203C39.3548 35.4617 37.1976 35.2812 35.8425 34.8184C34.4867 34.3557 33.3191 33.3989 33.3191 31.8495C33.3191 29.4791 35.4217 28.5 37.3842 28.5C38.6276 28.5 39.9102 28.9117 40.7421 29.5021C41.0287 29.7199 40.854 29.9706 40.854 29.9706L40.0601 31.1096C39.971 31.2379 39.7861 31.3404 39.5909 31.2099C39.056 30.8546 38.4603 30.5123 37.384 30.5123C36.0517 30.5123 35.4658 31.0679 35.4658 31.7564C35.4658 32.5823 36.403 32.8418 37.5007 33.1233C39.4141 33.6411 41.5015 34.2642 41.5015 36.6205C41.5015 38.7092 39.5566 40 37.4073 40C35.7787 40 34.3919 39.5334 33.2288 38.6762C32.9867 38.4325 33.1559 38.2063 33.1559 38.2063L33.9458 37.073C34.1066 36.8609 34.3092 36.9351 34.3981 36.9966ZM52.2668 38.4614C52.2668 38.8035 52.8503 39.7649 53.5654 39.7649H54.0289C54.2085 39.7649 54.3555 39.6172 54.3555 39.437V29.2091H54.3536C54.349 29.1255 54.3128 29.0469 54.2525 28.9892C54.1921 28.9316 54.1121 28.8992 54.0289 28.8988H52.5935C52.4195 28.8988 52.278 29.0369 52.2684 29.2091H52.2668V30.0402C51.3873 28.952 50.0005 28.5002 48.6101 28.5002C45.4493 28.5002 42.8868 31.0744 42.8868 34.2499C42.8868 37.4254 45.4493 39.9998 48.6101 39.9998C50.0005 39.9998 51.5159 39.4578 52.2665 38.4598V38.4614H52.2668ZM48.6156 37.9875C46.6052 37.9875 44.9758 36.3141 44.9758 34.2499C44.9758 32.1859 46.6052 30.5125 48.6156 30.5125C50.6255 30.5125 52.2551 32.1859 52.2551 34.2499C52.2551 36.3141 50.6255 37.9872 48.6156 37.9872V37.9875ZM67.2165 38.8129L67.2161 33.5207C67.2161 30.5374 65.3427 28.5247 62.3551 28.5247C60.9292 28.5247 59.7626 29.3532 59.3497 30.0649V30.0548L59.3473 30.063C59.3463 29.3429 58.7649 28.9235 58.0482 28.9235H57.5873C57.4074 28.9235 57.2607 29.0714 57.2607 29.2519V39.48H57.2626C57.2719 39.6524 57.4139 39.7905 57.5873 39.7905H59.0228C59.0447 39.7905 59.0664 39.7879 59.0871 39.7841C59.0966 39.7819 59.1054 39.7781 59.1147 39.7755C59.1257 39.7723 59.1367 39.7697 59.1467 39.7654C59.1598 39.7601 59.1712 39.753 59.1831 39.7462C59.1888 39.7427 59.195 39.7403 59.2008 39.7367C59.2148 39.727 59.2282 39.7162 59.2408 39.7046C59.2429 39.7024 59.2456 39.701 59.2475 39.6991C59.3075 39.6417 59.3433 39.5632 59.3475 39.48H59.3497V33.4386C59.3497 31.8364 60.6426 30.5372 62.2376 30.5372C63.8325 30.5372 65.1256 31.8364 65.1256 33.4386L65.1266 38.4887L65.127 38.4868C65.127 38.4914 65.128 38.4962 65.128 38.5007V39.48H65.1299C65.1394 39.6524 65.281 39.7905 65.4547 39.7905H66.8901C66.9123 39.7905 66.9335 39.7879 66.9544 39.7841C66.963 39.7822 66.9709 39.7786 66.979 39.7767C66.9909 39.7731 67.0028 39.7699 67.0142 39.7654C67.0259 39.7606 67.0366 39.7537 67.0476 39.7474C67.0545 39.7439 67.0617 39.741 67.0681 39.7367C67.0814 39.7276 67.0936 39.7173 67.1055 39.7067C67.1086 39.7044 67.1119 39.702 67.115 39.6988C67.1284 39.6859 67.1403 39.6716 67.1515 39.6567C67.1892 39.6056 67.2113 39.5445 67.2149 39.481L67.2151 39.48H67.2168V38.8129H67.2165ZM78.4112 38.4614C78.4112 38.8035 78.9943 39.7649 79.7099 39.7649H80.1733C80.3527 39.7649 80.5 39.6172 80.5 39.437V29.2091H80.4983C80.4937 29.1255 80.4574 29.0469 80.397 28.9892C80.3366 28.9316 80.2566 28.8992 80.1733 28.8988H78.7381C78.6548 28.8991 78.5747 28.9313 78.5142 28.989C78.4538 29.0467 78.4176 29.1254 78.4131 29.2091H78.4112V30.0402C77.5313 28.952 76.1449 28.5002 74.7541 28.5002C71.5938 28.5002 69.0313 31.0744 69.0313 34.2499C69.0313 37.4254 71.5938 39.9998 74.7541 39.9998C76.1449 39.9998 77.6602 39.4578 78.4105 38.4598L78.4112 38.4614ZM74.7603 37.9875C72.7499 37.9875 71.1205 36.3141 71.1205 34.2499C71.1205 32.1859 72.7499 30.5125 74.7603 30.5125C76.7697 30.5125 78.3991 32.1859 78.3991 34.2499C78.3991 36.3141 76.7697 37.9872 74.7603 37.9872V37.9875Z" fill="#283343"/>
<path d="M56.5525 11.2499C53.8196 11.2499 51.6045 13.4883 51.6045 16.2496C51.6045 19.0111 53.8196 21.25 56.5525 21.25C59.2849 21.25 61.5 19.0111 61.5 16.2496C61.5 13.4883 59.2849 11.2499 56.5525 11.2499ZM43.6977 11.2501C40.9653 11.2503 38.75 13.4883 38.75 16.2498C38.75 19.0111 40.9653 21.2498 43.6977 21.2498C46.4304 21.2498 48.6457 19.0111 48.6457 16.2498C48.6457 13.4883 46.4304 11.2501 43.6975 11.2501H43.6977ZM55.0727 4.99994C55.0727 7.76122 52.8577 10.0004 50.1252 10.0004C47.3923 10.0004 45.1773 7.76122 45.1773 4.99994C45.1773 2.23867 47.3923 0 50.1252 0C52.8577 0 55.0725 2.23867 55.0725 4.99994H55.0727Z" fill="url(#paint0_radial)"/>
<defs>
<radialGradient id="paint0_radial" cx="0" cy="0" r="1" gradientUnits="userSpaceOnUse" gradientTransform="translate(50.125 11.6135) scale(15.0748 14.0809)">
<stop stop-color="#FFB900"/>
<stop offset="0.6" stop-color="#F95D8F"/>
<stop offset="0.9991" stop-color="#F95353"/>
</radialGradient>
</defs>
</svg>
