<svg width="100" height="40" viewBox="0 0 100 40" fill="none" xmlns="http://www.w3.org/2000/svg">
<path d="M20.8865 30.9829L14.75 13.0342H18.9297L22.6893 25.0843L26.813 13H29.7395L33.8912 25.0843L37.6508 13.0513H41.75L35.589 31H32.2704L28.2763 19.0934L24.2016 30.9829H20.8865Z" fill="#647883"/>
<path d="M42 31V18.0192H45.7247V20.876C46.8765 17.528 50.75 18.0262 50.75 18.0262V21.6111C50.75 21.6111 45.7247 21.2627 45.7247 25.2586V30.9861L42 31Z" fill="#647883"/>
<path d="M52 31V23.1769L56.25 19.75V31H52Z" fill="#647883"/>
<path d="M59 31V16.8619L62.7274 13.25V22.8818L67.2777 18.1828H71.8492L66.1073 23.955L72.75 30.9862H67.948L62.7345 25.4824V30.9862L59 31Z" fill="#647883"/>
<path d="M74.0496 29.3879C72.6942 28.1565 72.0025 26.51 72.0025 24.4833C71.9782 23.6039 72.1287 22.7284 72.445 21.9079C72.7613 21.0874 73.2371 20.3383 73.8446 19.7043C75.0749 18.3962 76.6876 17.7543 78.6582 17.7543C79.4976 17.7209 80.3331 17.882 81.1005 18.225C81.8675 18.568 82.546 19.0837 83.0826 19.7322C84.2028 21.076 84.7946 22.7843 84.7474 24.5356V25.4845H75.5858C75.9681 27.2286 77.6086 28.1565 79.8608 28.1565C81.3007 28.1478 82.7131 27.758 83.9549 27.0263V29.9391C82.8011 30.8111 81.1745 31.2472 79.0892 31.2472C77.2339 31.299 75.4298 30.6334 74.0496 29.3879ZM81.1884 23.1717C81.1835 22.8249 81.1099 22.4827 80.9715 22.165C80.8332 21.8472 80.633 21.5604 80.3828 21.3213C80.1325 21.0822 79.8371 20.8956 79.5142 20.7725C79.1914 20.6493 78.8473 20.5922 78.5018 20.6043C77.7782 20.5666 77.0688 20.8138 76.5242 21.2933C75.9796 21.7728 75.6428 22.4468 75.5858 23.1717H81.1884Z" fill="#647883"/>
<path d="M60.0604 8.5L51.75 16.5944L54.2198 19L65 8.5H60.0604Z" fill="#00A651"/>
<path d="M52.4711 13H47.75L53.8894 19L56.25 16.6931L52.4711 13Z" fill="#A6CE39"/>
</svg>
