<svg width="100" height="30" viewBox="0 0 100 30" fill="none" xmlns="http://www.w3.org/2000/svg">
<g clip-path="url(#clip0_2103_5125)">
<g clip-path="url(#clip1_2103_5125)">
<mask id="mask0_2103_5125" style="mask-type:luminance" maskUnits="userSpaceOnUse" x="1" y="0" width="97" height="30">
<path d="M97.8765 0.375786H1.53845V29.3812H97.8765V0.375786Z" fill="white"/>
</mask>
<g mask="url(#mask0_2103_5125)">
<path fill-rule="evenodd" clip-rule="evenodd" d="M61.3079 23.0603C55.7314 27.183 47.621 29.3799 40.6252 29.3799C31.2937 29.4263 22.2801 25.9919 15.3456 19.7476C14.839 19.2745 15.2775 18.6318 15.9225 19.0045C22.6378 22.8691 30.1564 25.1271 37.8898 25.6019C45.6231 26.0767 53.3614 24.7554 60.4991 21.7415C61.4429 21.3711 62.2206 22.3888 61.3079 23.0603Z" fill="#05073C"/>
<path fill-rule="evenodd" clip-rule="evenodd" d="M63.6397 20.3904C62.9301 19.4777 58.909 19.9508 57.117 20.1873C56.5759 20.2554 56.4743 19.7823 56.982 19.4443C60.1932 17.1804 65.4305 17.8554 66.0397 18.5996C66.649 19.3439 65.8713 24.6158 62.8632 27.1162C62.3901 27.4877 61.9505 27.2846 62.1536 26.7781C62.8286 25.0889 64.3493 21.3366 63.6397 20.3904Z" fill="#05073C"/>
<path fill-rule="evenodd" clip-rule="evenodd" d="M57.2185 3.56026V1.36797C57.2147 1.29589 57.2261 1.22383 57.2519 1.15644C57.2777 1.08905 57.3175 1.02786 57.3685 0.976821C57.4195 0.925788 57.4808 0.88604 57.5482 0.860197C57.6156 0.834355 57.6876 0.822993 57.7597 0.826817H67.557C67.705 0.823065 67.8485 0.877724 67.9565 0.979005C68.0645 1.08029 68.1281 1.22003 68.1339 1.36797V3.2268C68.1339 3.53142 67.8639 3.93643 67.3908 4.61143L62.322 11.8437C64.2536 11.7396 66.1786 12.1464 67.9031 13.023C68.0528 13.1086 68.178 13.2312 68.2667 13.3791C68.3553 13.5271 68.4046 13.6952 68.4097 13.8676V16.1995C68.4097 16.5376 68.0716 16.9091 67.7001 16.706C66.101 15.8784 64.3256 15.4491 62.525 15.455C60.7244 15.4608 58.9518 15.9015 57.3581 16.7395C57.2775 16.7683 57.1911 16.7773 57.1061 16.7655C57.0213 16.7537 56.9406 16.7215 56.8709 16.6718C56.8012 16.622 56.7445 16.5561 56.7058 16.4796C56.6671 16.4033 56.6474 16.3186 56.6485 16.233V13.9991C56.6153 13.4768 56.7451 12.9571 57.0201 12.5118L62.9047 4.0968H57.8012C57.6532 4.10055 57.5096 4.0459 57.4018 3.94461C57.2938 3.84333 57.23 3.70358 57.2243 3.55565L57.2185 3.56026ZM21.4966 17.1756H18.5185C18.3853 17.1623 18.2601 17.1055 18.1622 17.014C18.0645 16.9224 17.9995 16.8012 17.9774 16.6691V1.39797C17.9831 1.25003 18.0468 1.11029 18.1548 1.00901C18.2628 0.907725 18.4063 0.853067 18.5543 0.856818H21.3235C21.4606 0.858682 21.592 0.91162 21.6922 1.00531C21.7922 1.099 21.8538 1.22669 21.8647 1.36335V3.35719H21.9328C22.1958 2.53298 22.7143 1.81376 23.4129 1.30342C24.1116 0.793078 24.9543 0.518037 25.8195 0.518037C26.6846 0.518037 27.5275 0.793078 28.2262 1.30342C28.9247 1.81376 29.443 2.53298 29.7062 3.35719C30.0028 2.50746 30.5621 1.77425 31.3035 1.26388C32.0447 0.753506 32.9293 0.492521 33.8289 0.518741C34.4968 0.505267 35.158 0.651645 35.7578 0.945694C36.3576 1.23974 36.8783 1.67293 37.2766 2.20912C38.2228 3.49335 38.0197 5.3522 38.0197 7.00797V16.6737C38.0139 16.8216 37.9502 16.9614 37.8422 17.0627C37.7342 17.164 37.5908 17.2187 37.4428 17.2149H34.5028C34.362 17.2065 34.2292 17.1467 34.1295 17.047C34.0298 16.9473 33.9701 16.8145 33.9616 16.6737V8.56334C34.007 7.60525 33.9841 6.64515 33.8935 5.69028C33.8316 5.2838 33.6125 4.91789 33.2833 4.67143C32.9542 4.42497 32.5415 4.31766 32.1339 4.37258C31.746 4.38378 31.3698 4.50811 31.0516 4.73034C30.7335 4.95256 30.4871 5.26297 30.3431 5.62333C30.0983 6.58289 30.0071 7.57523 30.0731 8.56334V16.6737C30.0675 16.8216 30.0037 16.9614 29.8957 17.0627C29.7877 17.164 29.6443 17.2187 29.4962 17.2149H26.5228C26.382 17.2065 26.2492 17.1467 26.1495 17.047C26.0498 16.9473 25.9901 16.8145 25.9816 16.6737V8.56334C25.9816 6.87296 26.2516 4.33913 24.1562 4.33913C22.0274 4.33913 22.0943 6.77257 22.0943 8.56334V16.6737C22.0731 16.8182 21.9993 16.9498 21.8871 17.0433C21.7749 17.1368 21.6322 17.1856 21.4862 17.1803L21.4966 17.1756ZM76.5835 0.514128C81.0108 0.514128 83.4108 4.29874 83.4108 9.1322C83.4108 13.796 80.7743 17.5137 76.5835 17.5137C72.2578 17.5137 69.8912 13.7291 69.8912 8.9972C69.8578 4.23181 72.2566 0.514128 76.5835 0.514128ZM76.5835 3.6572C74.3912 3.6572 74.2516 6.66526 74.2516 8.52411C74.2516 10.383 74.2181 14.3706 76.5501 14.3706C78.8485 14.3706 78.9835 11.1595 78.9835 9.20026C79.0251 7.83453 78.8771 6.46964 78.5439 5.14452C78.4516 4.70195 78.2019 4.30783 77.8412 4.03521C77.4806 3.76259 77.0333 3.62996 76.5824 3.66181L76.5835 3.6572ZM89.1212 17.1756H86.1478C86.007 17.1672 85.8742 17.1075 85.7745 17.0076C85.6748 16.908 85.6151 16.7753 85.6066 16.6345V1.3299C85.6253 1.18999 85.6941 1.06157 85.8001 0.968441C85.9062 0.875314 86.0424 0.823761 86.1835 0.82333H88.9528C89.0785 0.827534 89.1996 0.872801 89.2973 0.952173C89.3949 1.03154 89.464 1.14068 89.4939 1.26296V3.59488H89.562C90.4066 1.49949 91.5558 0.519868 93.6178 0.519868C94.3038 0.488698 94.9861 0.637597 95.5967 0.95175C96.2075 1.2659 96.7253 1.73437 97.0989 2.31064C97.8766 3.52795 97.8766 5.58873 97.8766 7.07603V16.7083C97.8562 16.8446 97.7858 16.9685 97.6793 17.056C97.5727 17.1433 97.4373 17.1881 97.2997 17.1814H94.3262C94.1978 17.1693 94.0764 17.117 93.9794 17.0322C93.8822 16.9473 93.8143 16.834 93.7851 16.7083V8.39488C93.7851 6.70565 93.9881 4.27219 91.9262 4.27219C91.5528 4.28961 91.1923 4.41334 90.8868 4.6288C90.5815 4.84424 90.344 5.14245 90.2024 5.48833C89.8409 6.4128 89.6796 7.40348 89.7293 8.39488V16.6414C89.7106 16.7899 89.6386 16.9266 89.5268 17.0261C89.415 17.1257 89.2709 17.1812 89.1212 17.1826V17.1756ZM49.4116 9.87525C49.522 10.9636 49.335 12.0615 48.8705 13.0518C48.6819 13.4432 48.3904 13.7758 48.0272 14.0141C47.6639 14.2524 47.2426 14.3873 46.8085 14.4041C45.6547 14.4041 44.9831 13.5249 44.9831 12.2406C44.9831 9.7022 47.247 9.2326 49.4105 9.2326L49.4116 9.87525ZM52.4197 17.1445C52.3233 17.2286 52.2031 17.2804 52.0758 17.2927C51.9486 17.3049 51.8206 17.2768 51.7101 17.2126C51.0217 16.6555 50.438 15.9804 49.9862 15.2187C49.3969 15.9392 48.6461 16.5105 47.7947 16.8864C46.9433 17.2623 46.0153 17.4321 45.0858 17.3822C44.476 17.418 43.8656 17.3214 43.2967 17.0989C42.7278 16.8765 42.2138 16.5334 41.7899 16.0935C41.3661 15.6535 41.0425 15.1271 40.8414 14.5503C40.6404 13.9734 40.5666 13.3599 40.6251 12.7518C40.59 11.7124 40.8763 10.6875 41.4446 9.81663C42.013 8.94574 42.8361 8.27121 43.8016 7.8849C45.6156 7.28325 47.5028 6.93078 49.4116 6.83719V6.46566C49.5127 5.72346 49.3829 4.96815 49.0401 4.30219C48.8458 4.05026 48.5942 3.84826 48.3062 3.71301C48.0183 3.57777 47.7022 3.51314 47.3843 3.52448C46.8343 3.47648 46.2857 3.63246 45.8431 3.96267C45.4006 4.29289 45.095 4.77428 44.9843 5.31526C44.9162 5.58526 44.7535 5.85641 44.4778 5.85641L41.6047 5.55181C41.5353 5.54206 41.4686 5.5184 41.4085 5.48224C41.3485 5.44608 41.2965 5.39817 41.2554 5.34139C41.2143 5.28461 41.1851 5.2201 41.1697 5.15176C41.1541 5.08343 41.1526 5.01268 41.1651 4.94373C41.8412 1.42911 44.9843 0.381412 47.8228 0.381412C49.4539 0.311659 51.0545 0.840626 52.3228 1.86873C53.7755 3.22103 53.6405 5.04525 53.6405 7.00564V11.636C53.6594 12.6649 54.0565 13.6508 54.7562 14.4053C54.9593 14.6753 54.9928 15.0133 54.7562 15.183C54.1089 15.693 53.0255 16.6391 52.4197 17.1445ZM10.3781 9.87525C10.4886 10.9636 10.3016 12.0615 9.83698 13.0518C9.6485 13.4432 9.35698 13.7758 8.99371 14.0141C8.63045 14.2524 8.20917 14.3873 7.77508 14.4041C6.62123 14.4041 5.9497 13.5249 5.9497 12.2406C5.9497 9.7022 8.21353 9.2326 10.377 9.2326L10.3781 9.87525ZM13.3528 17.1445C13.2564 17.2286 13.1362 17.2804 13.0089 17.2927C12.8816 17.3049 12.7537 17.2768 12.6431 17.2126C11.9548 16.6555 11.3711 15.9804 10.9193 15.2187C10.33 15.9392 9.57922 16.5105 8.72779 16.8864C7.87635 17.2623 6.94829 17.4321 6.01891 17.3822C5.40908 17.418 4.79873 17.3214 4.22981 17.0989C3.66087 16.8765 3.14683 16.5334 2.723 16.0935C2.29918 15.6535 1.97561 15.1271 1.77453 14.5503C1.57346 13.9734 1.49965 13.3599 1.55815 12.7518C1.52312 11.7124 1.80928 10.6875 2.37769 9.81663C2.94611 8.94574 3.76912 8.27121 4.73468 7.8849C6.54861 7.28325 8.43586 6.93078 10.3447 6.83719V6.46566C10.4457 5.72346 10.316 4.96815 9.97316 4.30219C9.77887 4.05026 9.5273 3.84826 9.23935 3.71301C8.95138 3.57777 8.63531 3.51314 8.31736 3.52448C7.76729 3.47648 7.21878 3.63246 6.77622 3.96267C6.33366 4.29289 6.028 4.77428 5.91739 5.31526C5.84931 5.58526 5.68084 5.85641 5.41084 5.85641L2.53777 5.55181C2.46838 5.54206 2.40167 5.5184 2.34165 5.48224C2.28163 5.44608 2.22953 5.39817 2.18848 5.34139C2.14742 5.28461 2.11826 5.2201 2.10273 5.15176C2.08721 5.08343 2.08565 5.01268 2.09814 4.94373C2.77429 1.42911 5.91738 0.381412 8.75584 0.381412C10.387 0.311659 11.9875 0.840626 13.2558 1.86873C14.7085 3.22103 14.5735 5.04525 14.5735 7.00564V11.636C14.5926 12.6648 14.9897 13.6506 15.6893 14.4053C15.8924 14.6753 15.9258 15.0133 15.6893 15.183C15.0466 15.6895 13.9655 16.6356 13.3574 17.1445H13.3528Z" fill="#05073C"/>
</g>
</g>
</g>
<defs>
<clipPath id="clip0_2103_5125">
<rect width="100" height="30" fill="white"/>
</clipPath>
<clipPath id="clip1_2103_5125">
<rect width="96.9231" height="30" fill="white" transform="translate(1.53845)"/>
</clipPath>
</defs>
</svg>
