<svg width="100" height="30" viewBox="0 0 100 30" fill="none" xmlns="http://www.w3.org/2000/svg">
<g clip-path="url(#clip0_2103_5082)">
<g clip-path="url(#clip1_2103_5082)">
<g clip-path="url(#clip2_2103_5082)">
<mask id="mask0_2103_5082" style="mask-type:luminance" maskUnits="userSpaceOnUse" x="0" y="3" width="100" height="25">
<path d="M99.2 3.34419H0V27.0044H99.2V3.34419Z" fill="white"/>
</mask>
<g mask="url(#mask0_2103_5082)">
<path d="M23.2988 25.431H17.7964L16.1096 21.3719H6.94458L5.41084 25.431H0L8.26626 4.92852H14.1892L23.2988 25.431ZM11.3036 9.82732L8.29157 17.7936H14.6048L11.3036 9.82732ZM43.2831 4.92852H47.7325V25.431H42.6217V12.6213L37.0904 19.0539H36.3084L30.7771 12.6213V25.431H25.6626V4.92852H30.1205L36.6988 12.5345L43.2831 4.92852ZM60.6831 4.92852C68.1687 4.92852 72.0157 9.58756 72.0157 15.2093C72.0157 21.1008 68.2879 25.431 60.112 25.431H51.6337V4.92852H60.6831ZM56.747 21.6731H60.0831C65.2241 21.6731 66.7566 18.1792 66.7566 15.1779C66.7566 11.6599 64.8626 8.68515 60.0229 8.68515H56.747V21.6731ZM82.1831 9.78997L75.7385 3.34419H99.2V26.8069L92.7554 20.3623V9.78997H82.1831ZM82.1759 11.0815L75.5422 17.7165V27.0045H84.8289L91.4639 20.3695H82.1759V11.0815Z" fill="#05073C"/>
</g>
</g>
</g>
</g>
<defs>
<clipPath id="clip0_2103_5082">
<rect width="100" height="30" fill="white"/>
</clipPath>
<clipPath id="clip1_2103_5082">
<rect width="100" height="30" fill="white"/>
</clipPath>
<clipPath id="clip2_2103_5082">
<rect width="100" height="24.0964" fill="white" transform="translate(0 2.95181)"/>
</clipPath>
</defs>
</svg>
