<svg width="100" height="30" viewBox="0 0 100 30" fill="none" xmlns="http://www.w3.org/2000/svg">
<g clip-path="url(#clip0_2103_5091)">
<mask id="mask0_2103_5091" style="mask-type:luminance" maskUnits="userSpaceOnUse" x="0" y="5" width="100" height="20">
<path d="M99.6033 5.02105H0V24.4825H99.6033V5.02105Z" fill="white"/>
</mask>
<g mask="url(#mask0_2103_5091)">
<path fill-rule="evenodd" clip-rule="evenodd" d="M3.03356 6.85296C3.77804 6.2061 4.6432 5.713 5.57915 5.40209C6.51511 5.09118 7.50336 4.96862 8.48693 5.04146C9.47045 5.11431 10.4299 5.38112 11.3098 5.82651C12.1897 6.27192 12.9728 6.88709 13.6139 7.63656C14.9924 9.03061 15.7976 10.8912 15.8701 12.8504C15.9427 14.8096 15.2773 16.7247 14.0057 18.2169L8.12782 24.0948C6.95241 23.3111 4.9934 21.7439 5.777 20.1759C7.34422 18.2169 9.3016 16.6513 10.8713 14.6898C12.0467 13.1226 11.2631 9.98738 8.91226 9.59558C8.38472 9.41119 7.81869 9.36533 7.26836 9.46238C6.71804 9.55945 6.20184 9.79618 5.76922 10.1499C5.33661 10.5036 5.00205 10.9625 4.79761 11.4826C4.59316 12.0027 4.52567 12.5665 4.60159 13.1202C4.60159 15.0792 6.16881 16.2546 7.34422 17.4308C6.16881 18.6062 4.60159 19.3898 4.60159 20.9554C3.42618 19.3882 1.46717 18.2128 0.682738 16.2529C-0.0336758 14.649 -0.191405 12.8512 0.234787 11.147C0.660979 9.4428 1.64646 7.93083 3.03356 6.85296Z" fill="#05073C"/>
<path fill-rule="evenodd" clip-rule="evenodd" d="M28.1121 6.85312C28.5039 5.67771 29.6793 6.06951 30.4629 6.06951V20.5638H28.1121V19.3916C27.1687 20.1523 25.9933 20.5671 24.7814 20.5671C23.5695 20.5671 22.3941 20.1523 21.4506 19.3916C20.3654 18.4008 19.7154 17.0215 19.642 15.5539C19.5687 14.0861 20.0778 12.6489 21.0588 11.5548C21.941 10.5947 23.1408 9.98638 24.4366 9.84233C25.7324 9.69829 27.0365 10.0282 28.108 10.7711L28.1121 6.85312ZM24.5875 11.9474C22.6285 12.3392 21.0629 15.0818 22.6285 17.0416C22.9212 17.4686 23.3211 17.8111 23.788 18.0347C24.255 18.2583 24.7725 18.3551 25.2887 18.3153C25.8048 18.2757 26.3015 18.1009 26.7287 17.8085C27.156 17.5161 27.4987 17.1166 27.7228 16.6498C28.8957 14.69 26.9359 11.9466 24.5851 11.9466L24.5875 11.9474Z" fill="#05073C"/>
<path fill-rule="evenodd" clip-rule="evenodd" d="M32.4221 9.9873H34.7729V10.7709C35.5565 9.5955 37.1237 9.5955 38.6917 9.9873C38.2999 10.7709 37.9081 11.1627 37.9081 11.9463C36.3409 11.5545 34.7737 12.3381 34.7737 13.5135V19.3914C34.3811 20.5709 33.2057 20.5709 32.4221 20.5709V9.9873Z" fill="#05073C"/>
<path fill-rule="evenodd" clip-rule="evenodd" d="M42.2179 9.98833C46.1367 8.42112 50.0548 12.3392 49.2671 16.258C48.4793 20.1769 42.9974 22.1359 40.2507 19.3925C37.1162 16.6498 38.2916 10.7719 42.2097 9.98833H42.2179ZM43.3933 11.9474C42.7353 12.1229 42.1353 12.4689 41.6537 12.9504C41.1721 13.432 40.8262 14.032 40.6507 14.69C40.5703 15.137 40.5924 15.5966 40.7155 16.0338C40.8386 16.471 41.0594 16.8746 41.3613 17.214C41.6631 17.5534 42.0382 17.8199 42.458 17.9932C42.878 18.1666 43.3316 18.2422 43.7851 18.2146C45.3523 18.2146 46.9195 17.0392 46.9195 15.472C46.9195 13.5146 44.9613 11.5555 43.3949 11.9474H43.3933Z" fill="#05073C"/>
<path fill-rule="evenodd" clip-rule="evenodd" d="M50.8392 9.98727H53.1901V10.7709C54.2615 10.0279 55.5656 9.69801 56.8614 9.84205C58.1573 9.9861 59.3572 10.5944 60.2392 11.5545C60.7237 12.058 61.0996 12.6555 61.3441 13.3101C61.5884 13.9646 61.696 14.6624 61.66 15.3601C61.624 16.0579 61.4453 16.7408 61.135 17.3668C60.8246 17.9928 60.3892 18.5485 59.8556 18.9996C58.2884 20.9586 55.1532 20.9586 53.1941 19.7832V23.3078C52.8023 24.4832 51.6269 24.4832 50.8433 24.4832V9.98727H50.8392ZM55.9335 11.9463C53.5827 12.3381 52.4089 15.0807 53.5827 16.6488C54.7581 18.6078 57.8933 18.6078 58.6769 16.6488C60.2433 14.6889 58.2843 11.9463 55.9335 11.9463Z" fill="#05073C"/>
<path fill-rule="evenodd" clip-rule="evenodd" d="M65.7293 10.3799C66.721 9.8238 67.8647 9.59984 68.993 9.74084C70.1212 9.88186 71.1746 10.3804 71.999 11.1635C71.6072 11.5553 71.2154 12.3389 70.4318 12.7307C70.0665 12.4348 69.6374 12.2279 69.1785 12.1262C68.7196 12.0246 68.2433 12.031 67.7872 12.145C67.3312 12.259 66.9078 12.4774 66.5507 12.7831C66.1936 13.0887 65.9124 13.4732 65.7293 13.9061C65.559 14.3702 65.498 14.8671 65.551 15.3585C65.604 15.85 65.7696 16.3225 66.0349 16.7395C66.3002 17.1566 66.6581 17.5068 67.0808 17.763C67.5034 18.0192 67.9795 18.1745 68.4719 18.2168C69.2555 18.2168 70.0392 17.825 70.8228 17.825C71.5227 18.1332 72.0818 18.6923 72.39 19.3922C69.6474 21.743 64.9449 20.9594 63.7695 17.4332C62.2023 15.0816 63.3777 11.9455 65.7293 10.3799Z" fill="#05073C"/>
<path fill-rule="evenodd" clip-rule="evenodd" d="M72.3909 17.0407C71.2172 13.5145 73.9581 9.59569 77.4852 9.59569C78.8959 9.65726 80.2444 10.1941 81.3115 11.1189C82.3787 12.0438 83.1017 13.3023 83.3631 14.6899V20.5678C82.1877 20.5678 81.404 20.5678 80.6204 19.7842C77.8778 21.7432 73.5713 20.176 72.3917 17.0416L72.3909 17.0407ZM77.4852 11.9465C76.9455 12.048 76.4381 12.2772 76.0049 12.6148C75.5719 12.9524 75.2259 13.3887 74.9958 13.8873C74.7658 14.3859 74.6583 14.9323 74.6824 15.4808C74.7065 16.0294 74.8615 16.5643 75.1344 17.0407C76.7016 18.9998 79.8368 18.6079 80.6204 16.6489C80.8211 16.1323 80.8944 15.5748 80.8343 15.0238C80.7741 14.4728 80.5822 13.9443 80.2746 13.4831C79.9672 13.0219 79.5531 12.6415 79.0676 12.3741C78.5821 12.1066 78.0394 11.96 77.4852 11.9465Z" fill="#05073C"/>
<path fill-rule="evenodd" clip-rule="evenodd" d="M84.9303 9.98834H87.2811V10.7719C88.4565 9.20474 91.2 9.59654 92.7672 11.1638C94.7262 8.81293 98.6451 9.59654 99.4287 12.3392C99.8205 14.69 99.4287 17.4334 99.4287 19.7843C99.4287 20.5679 98.2532 20.5679 97.0778 20.5679C97.0778 18.217 97.4696 15.8654 97.0778 13.5187C97.0008 13.1073 96.7828 12.7357 96.4614 12.4682C96.1393 12.2008 95.7344 12.0544 95.3155 12.0544C94.8967 12.0544 94.4918 12.2008 94.1696 12.4682C93.8483 12.7357 93.6303 13.1073 93.5533 13.5187V20.5679H91.2024C91.2672 18.0798 91.136 15.5903 90.8106 13.1228C90.4188 11.5556 87.6762 11.9474 87.6762 13.5146C87.3508 15.8494 87.2196 18.2072 87.2844 20.5638H84.9303V9.98834Z" fill="#05073C"/>
</g>
</g>
<defs>
<clipPath id="clip0_2103_5091">
<rect width="100" height="30" fill="white"/>
</clipPath>
</defs>
</svg>
