<svg width="100" height="30" viewBox="0 0 100 30" fill="none" xmlns="http://www.w3.org/2000/svg">
<g clip-path="url(#clip0_2103_5107)">
<g clip-path="url(#clip1_2103_5107)">
<mask id="mask0_2103_5107" style="mask-type:luminance" maskUnits="userSpaceOnUse" x="2" y="0" width="96" height="30">
<path d="M97.1092 0.375786H2.69226V29.0431H97.1092V0.375786Z" fill="white"/>
</mask>
<g mask="url(#mask0_2103_5107)">
<path d="M2.69226 20.6489V0.795786H6.17918V20.6489H2.69226ZM15.1065 6.24655C14.1198 6.22433 13.1387 6.39975 12.2209 6.7625C11.303 7.12525 10.4671 7.668 9.76223 8.35877C9.05737 9.04954 8.49786 9.87437 8.11665 10.7847C7.73546 11.695 7.54026 12.6723 7.54257 13.6593C7.54488 14.6462 7.74464 15.6227 8.13011 16.5312C8.51557 17.4397 9.07894 18.2619 9.78702 18.9494C10.4951 19.6368 11.3336 20.1757 12.2531 20.5341C13.1726 20.8926 14.1546 21.0635 15.1411 21.0366C16.1199 21.0463 17.091 20.8615 17.998 20.4932C18.905 20.1248 19.7297 19.58 20.4246 18.8904C21.1193 18.2009 21.6704 17.3803 22.0456 16.4761C22.421 15.572 22.613 14.6024 22.6106 13.6235C22.6083 12.6445 22.4118 11.6759 22.0323 10.7735C21.6528 9.87112 21.098 9.05306 20.3999 8.36677C19.7019 7.68046 18.8745 7.13955 17.9658 6.77539C17.0572 6.41125 16.0853 6.23225 15.1065 6.24655ZM15.0661 9.60655C15.9899 9.60363 16.8861 9.92095 17.6021 10.5045C18.3182 11.088 18.81 11.9017 18.9936 12.807C19.1773 13.7123 19.0415 14.6533 18.6095 15.4697C18.1773 16.2861 17.4756 16.9276 16.6238 17.2848C15.7719 17.6422 14.8225 17.6932 13.9373 17.4292C13.0521 17.1653 12.2857 16.6027 11.7686 15.8372C11.2515 15.0718 11.0157 14.1508 11.1013 13.231C11.1869 12.3113 11.5886 11.4496 12.238 10.7927C12.9874 10.0399 14.0039 9.61358 15.0661 9.60655ZM31.4092 6.24655C30.4225 6.22433 29.4414 6.39975 28.5235 6.7625C27.6058 7.12525 26.7698 7.668 26.0649 8.35877C25.36 9.04954 24.8005 9.87437 24.4193 10.7847C24.0382 11.695 23.843 12.6723 23.8453 13.6593C23.8476 14.6462 24.0473 15.6227 24.4328 16.5312C24.8183 17.4397 25.3816 18.2619 26.0897 18.9494C26.7978 19.6368 27.6363 20.1757 28.5558 20.5341C29.4753 20.8926 30.4573 21.0635 31.4438 21.0366C32.4292 21.0606 33.4091 20.8854 34.3252 20.5216C35.2412 20.1578 36.0743 19.6127 36.7747 18.9193C37.475 18.2257 38.0281 17.3979 38.4008 16.4855C38.7735 15.573 38.9582 14.5948 38.9438 13.6093C39.0416 12.2496 38.6372 10.9014 37.8073 9.82001L38.7742 9.48886V6.65847H33.8276C33.0482 6.38838 32.2295 6.24919 31.4046 6.24655H31.4092ZM31.3688 9.60655C32.2925 9.60417 33.1884 9.92193 33.904 10.5058C34.6198 11.0896 35.1111 11.9034 35.2943 12.8087C35.4775 13.7139 35.3414 14.6548 34.9091 15.471C34.4768 16.2872 33.7749 16.9283 32.923 17.2853C32.0713 17.6423 31.122 17.6931 30.2369 17.429C29.3518 17.1648 28.5856 16.6022 28.0687 15.8368C27.5518 15.0713 27.316 14.1504 27.4018 13.2308C27.4874 12.3111 27.889 11.4495 28.5384 10.7927C29.2884 10.0393 30.3058 9.61297 31.3688 9.60655ZM35.4073 21.6158C35.4073 22.6832 34.9832 23.7068 34.2285 24.4617C33.4738 25.2164 32.4501 25.6404 31.3826 25.6404C30.3152 25.6404 29.2915 25.2164 28.5368 24.4617C27.7821 23.7068 27.358 22.6832 27.358 21.6158H23.8192C23.8027 22.6105 23.9894 23.5981 24.3681 24.5181C24.7466 25.438 25.3093 26.271 26.0212 26.9658C26.7331 27.6607 27.5795 28.2029 28.5083 28.5591C29.4371 28.9153 30.429 29.078 31.423 29.0373C32.4077 29.0625 33.3875 28.8884 34.3033 28.5256C35.2191 28.1628 36.0521 27.6188 36.7526 26.9262C37.453 26.2335 38.0063 25.4065 38.3792 24.4948C38.7523 23.583 38.9372 22.6053 38.923 21.6204L35.4073 21.6158ZM40.348 20.6454V6.65847H43.8361V20.6489L40.348 20.6454ZM47.2215 20.6454V9.79232H45.3511V6.65847H47.2215V2.3627H50.7084V6.65847H52.6296V9.79232H50.7084V20.6489L47.2215 20.6454ZM44.3934 2.68347C44.3934 3.1399 44.2581 3.58607 44.0045 3.96556C43.751 4.34506 43.3905 4.64085 42.9689 4.8155C42.5471 4.99017 42.0832 5.03587 41.6355 4.94682C41.1879 4.85778 40.7767 4.638 40.454 4.31527C40.1312 3.99252 39.9114 3.58134 39.8223 3.13368C39.7334 2.68603 39.7791 2.22204 39.9536 1.80037C40.1283 1.37868 40.4242 1.01827 40.8037 0.764701C41.1832 0.51113 41.6293 0.375786 42.0857 0.375786C42.6977 0.375786 43.2847 0.618916 43.7175 1.05169C44.1503 1.48447 44.3934 2.07144 44.3934 2.68347ZM60.47 6.23732C59.4841 6.21732 58.5046 6.39885 57.5913 6.77075C56.6781 7.14267 55.8504 7.69714 55.159 8.40019C54.4676 9.10325 53.9271 9.94008 53.5705 10.8594C53.214 11.7787 53.0489 12.7612 53.0853 13.7466C53.045 14.7299 53.2116 15.7108 53.5745 16.6257C53.9373 17.5404 54.4884 18.3689 55.1919 19.0571C55.8954 19.7454 56.7356 20.2782 57.6581 20.621C58.5808 20.9638 59.565 21.1089 60.5473 21.047C61.7325 21.0845 62.912 20.8668 64.0058 20.409C65.0998 19.9512 66.0825 19.2637 66.8876 18.3931L64.5569 16.0589C63.5111 17.1541 62.1011 17.8296 60.5923 17.9581C59.7172 17.9925 58.8575 17.7212 58.1605 17.1909C57.4636 16.6605 56.9731 15.9042 56.773 15.0516H67.64V14.0916C67.64 10.2596 65.4223 6.23847 60.4757 6.23847L60.47 6.23732ZM60.3546 9.3077C61.2112 9.25845 62.0557 9.52914 62.7241 10.0673C63.3924 10.6054 63.8371 11.3726 63.9719 12.22H56.668C56.8395 11.3763 57.3046 10.6206 57.9806 10.0874C58.6567 9.55417 59.4998 9.2779 60.3603 9.3077H60.3546ZM76.3573 21.0481C75.3845 21.049 74.421 20.8584 73.5219 20.4871C72.6227 20.1157 71.8056 19.571 71.1171 18.8837C69.7264 17.4959 68.944 15.6126 68.9421 13.6479C68.9401 11.6833 69.7186 9.7983 71.1065 8.40767C72.4942 7.01705 74.3776 6.2347 76.3423 6.2327C77.4845 6.22417 78.6142 6.47085 79.6488 6.95473C80.6835 7.43863 81.597 8.14752 82.3226 9.02963L79.8846 11.4527C79.449 10.9192 78.9074 10.482 78.294 10.1685C77.6807 9.85514 77.0091 9.67241 76.3215 9.63194C75.792 9.61876 75.2651 9.71296 74.773 9.90886C74.2808 10.1048 73.8335 10.3983 73.4578 10.7718C73.0822 11.1453 72.786 11.591 72.5873 12.082C72.3886 12.573 72.2913 13.0993 72.3015 13.6289C72.2881 14.1597 72.3818 14.6878 72.5769 15.1816C72.772 15.6756 73.0646 16.125 73.4372 16.5035C73.8097 16.8818 74.2547 17.1812 74.7455 17.3841C75.2362 17.5868 75.7628 17.6886 76.2938 17.6835C76.9865 17.6475 77.664 17.4667 78.2824 17.1526C78.9009 16.8386 79.4467 16.3983 79.8846 15.8604L82.3423 18.2835C81.6145 19.1627 80.6992 19.8678 79.6633 20.347C78.6273 20.8262 77.4974 21.0674 76.3561 21.0527L76.3573 21.0481ZM83.6126 20.6593V0.745017H87.0996V8.06155C87.6241 7.4585 88.2776 6.98112 89.0116 6.66476C89.7456 6.34839 90.5414 6.20112 91.34 6.23386C94.9919 6.23386 97.1092 8.94886 97.1092 12.4208V20.6593H93.6153V12.9527C93.6677 12.5272 93.6265 12.0954 93.4948 11.6875C93.3629 11.2796 93.1435 10.9054 92.852 10.5911C92.5604 10.2768 92.2037 10.0299 91.8068 9.86786C91.4099 9.70578 90.9824 9.63235 90.5542 9.6527C90.0885 9.61568 89.6204 9.68048 89.1823 9.84262C88.7441 10.0047 88.3465 10.2603 88.0171 10.5916C87.6878 10.9228 87.4344 11.3218 87.2748 11.7608C87.1151 12.1998 87.053 12.6684 87.0927 13.1339V20.665H83.6126V20.6593Z" fill="#05073C"/>
</g>
</g>
</g>
<defs>
<clipPath id="clip0_2103_5107">
<rect width="100" height="30" fill="white"/>
</clipPath>
<clipPath id="clip1_2103_5107">
<rect width="94.6154" height="30" fill="white" transform="translate(2.69226)"/>
</clipPath>
</defs>
</svg>
