<svg width="100" height="30" viewBox="0 0 100 30" fill="none" xmlns="http://www.w3.org/2000/svg">
<g clip-path="url(#clip0_2103_5116)">
<g clip-path="url(#clip1_2103_5116)">
<g clip-path="url(#clip2_2103_5116)">
<mask id="mask0_2103_5116" style="mask-type:luminance" maskUnits="userSpaceOnUse" x="0" y="0" width="99" height="30">
<path d="M98.9 0.325684H0.5V29.8377H98.9V0.325684Z" fill="white"/>
</mask>
<g mask="url(#mask0_2103_5116)">
<path d="M15.256 0.325684C12.3376 0.325881 9.48474 1.19147 7.05826 2.813C4.63178 4.43453 2.74062 6.73918 1.62393 9.4355C0.507236 12.1318 0.215161 15.0987 0.784638 17.961C1.35411 20.8234 2.75957 23.4525 4.82327 25.5161C6.88697 27.5797 9.51624 28.9849 12.3786 29.5542C15.241 30.1235 18.2078 29.8312 20.9041 28.7144C23.6003 27.5975 25.9049 25.7062 27.5262 23.2796C29.1476 20.853 30.013 18.0001 30.013 15.0817C30.013 13.1438 29.6313 11.2249 28.8897 9.43458C28.148 7.64423 27.061 6.0175 25.6907 4.64726C24.3204 3.27703 22.6936 2.19013 20.9032 1.44863C19.1128 0.707131 17.1939 0.325552 15.256 0.325684ZM22.023 21.6077C21.9596 21.7105 21.8767 21.7998 21.7788 21.8705C21.681 21.9412 21.5701 21.9919 21.4526 22.0198C21.3352 22.0477 21.2134 22.0521 21.0942 22.0329C20.975 22.0136 20.8607 21.9711 20.758 21.9077C17.293 19.7917 12.932 19.3077 7.79498 20.4857C7.55708 20.5399 7.30738 20.4974 7.10081 20.3676C6.89424 20.2377 6.74772 20.0311 6.69348 19.7932C6.63925 19.5553 6.68174 19.3056 6.8116 19.099C6.94147 18.8924 7.14808 18.7459 7.38598 18.6917C13.007 17.4077 17.829 17.9607 21.718 20.3377C21.8218 20.4007 21.912 20.4837 21.9836 20.5817C22.0552 20.6798 22.1066 20.7911 22.135 20.9092C22.1633 21.0272 22.168 21.1497 22.1488 21.2696C22.1296 21.3895 22.0868 21.5044 22.023 21.6077ZM23.829 17.5897C23.6695 17.8497 23.4133 18.0359 23.1166 18.1071C22.82 18.1784 22.5072 18.1289 22.247 17.9697C17.768 15.4726 12.4816 14.8537 7.54698 16.2487C7.25525 16.3379 6.94 16.3076 6.67061 16.1644C6.40121 16.0213 6.19973 15.7769 6.11048 15.4852C6.02124 15.1934 6.05154 14.8782 6.19472 14.6088C6.33791 14.3394 6.58224 14.1379 6.87398 14.0487C9.62784 13.2559 12.5123 13.0209 15.3581 13.3574C18.204 13.694 20.954 14.5954 23.447 16.0087C23.5758 16.0876 23.6877 16.1912 23.7765 16.3135C23.8653 16.4357 23.929 16.5742 23.9642 16.7212C23.9994 16.8681 24.0053 17.0205 23.9816 17.1697C23.9579 17.3189 23.905 17.4619 23.826 17.5907L23.829 17.5897ZM23.984 13.4057C19.228 10.5807 11.384 10.3207 6.84098 11.6997C6.66648 11.7562 6.48246 11.7773 6.2997 11.7618C6.11693 11.7464 5.93908 11.6946 5.77655 11.6096C5.61401 11.5246 5.47005 11.4081 5.35308 11.2668C5.2361 11.1255 5.14847 10.9624 5.09529 10.7868C5.04212 10.6113 5.02447 10.4269 5.04339 10.2445C5.0623 10.062 5.11739 9.88517 5.20544 9.72427C5.29349 9.56337 5.41273 9.42163 5.5562 9.30735C5.69966 9.19307 5.86447 9.10853 6.04098 9.05868C11.253 7.47668 19.918 7.78168 25.394 11.0327C25.5499 11.1251 25.686 11.2474 25.7946 11.3924C25.9033 11.5375 25.9823 11.7026 26.0271 11.8782C26.072 12.0537 26.0818 12.2365 26.056 12.4158C26.0303 12.5952 25.9694 12.7678 25.877 12.9237C25.7845 13.0796 25.6623 13.2157 25.5172 13.3243C25.3722 13.433 25.2071 13.512 25.0315 13.5568C24.8559 13.6017 24.6732 13.6115 24.4938 13.5857C24.3144 13.56 24.1419 13.4991 23.986 13.4067L23.984 13.4057ZM40.647 13.9487C38.099 13.3407 37.647 12.9147 37.647 12.0187C37.647 11.1717 38.447 10.6027 39.629 10.6027C40.9037 10.6482 42.1277 11.1133 43.111 11.9257C43.1289 11.9389 43.1492 11.9484 43.1708 11.9537C43.1923 11.9589 43.2148 11.9599 43.2367 11.9564C43.2587 11.953 43.2797 11.9452 43.2986 11.9336C43.3176 11.922 43.334 11.9067 43.347 11.8887L44.591 10.1347C44.6156 10.0999 44.626 10.057 44.6201 10.0148C44.6141 9.97262 44.5923 9.93429 44.559 9.90768C43.1804 8.78006 41.4467 8.17771 39.666 8.20768C36.915 8.20768 34.993 9.85868 34.993 12.2207C34.993 14.7537 36.651 15.6507 39.516 16.3427C41.953 16.9047 42.365 17.3747 42.365 18.2157C42.365 19.1477 41.533 19.7277 40.194 19.7277C38.6752 19.716 37.2203 19.1151 36.136 18.0517C36.1021 18.0228 36.0584 18.0082 36.014 18.0107C35.9919 18.0121 35.9703 18.018 35.9506 18.028C35.9308 18.038 35.9133 18.0518 35.899 18.0687L34.499 19.7287C34.4709 19.762 34.4569 19.8049 34.4599 19.8484C34.4629 19.8919 34.4826 19.9325 34.515 19.9617C36.0533 21.3554 38.0572 22.1234 40.133 22.1147C43.097 22.1147 45.012 20.4957 45.012 17.9877C45.017 15.8717 43.75 14.6997 40.647 13.9457H40.642L40.647 13.9487ZM51.723 11.4357C51.1053 11.4276 50.4941 11.5627 49.9373 11.8304C49.3806 12.0981 48.8934 12.4912 48.514 12.9787V11.8107C48.5141 11.7888 48.5099 11.7671 48.5016 11.7469C48.4934 11.7266 48.4811 11.7082 48.4657 11.6927C48.4503 11.6771 48.4319 11.6648 48.4117 11.6564C48.3915 11.648 48.3699 11.6437 48.348 11.6437H46.067C46.0451 11.6437 46.0234 11.648 46.0032 11.6564C45.983 11.6648 45.9647 11.6771 45.9492 11.6927C45.9338 11.7082 45.9216 11.7266 45.9133 11.7469C45.905 11.7671 45.9008 11.7888 45.901 11.8107V24.7797C45.901 24.8238 45.9184 24.8661 45.9495 24.8974C45.9806 24.9287 46.0229 24.9464 46.067 24.9467H48.347C48.3911 24.9464 48.4333 24.9287 48.4644 24.8974C48.4955 24.8661 48.513 24.8238 48.513 24.7797V20.6867C48.9064 21.1519 49.3985 21.5237 49.9536 21.7748C50.5087 22.026 51.1128 22.1503 51.722 22.1387C54.11 22.1387 56.527 20.3007 56.527 16.7877C56.527 13.2747 54.113 11.4347 51.727 11.4347L51.723 11.4357ZM53.875 16.7877C53.9149 17.1664 53.8758 17.5494 53.76 17.9122C53.6442 18.275 53.4544 18.6099 53.2024 18.8955C52.9505 19.1811 52.6419 19.4112 52.2964 19.5714C51.9508 19.7315 51.5758 19.8181 51.195 19.8257C50.8133 19.8135 50.438 19.7243 50.0916 19.5634C49.7453 19.4026 49.4349 19.1734 49.1793 18.8897C48.9237 18.606 48.7281 18.2735 48.6041 17.9123C48.4801 17.5511 48.4304 17.1686 48.458 16.7877C48.4303 16.4067 48.4799 16.0241 48.6038 15.6627C48.7277 15.3014 48.9233 14.9688 49.1789 14.685C49.4346 14.4012 49.7449 14.1719 50.0914 14.011C50.4378 13.8501 50.8132 13.7609 51.195 13.7487C51.5742 13.7607 51.947 13.8502 52.2904 14.0117C52.6337 14.1733 52.9404 14.4034 53.1915 14.6879C53.4425 14.9724 53.6327 15.3053 53.7503 15.6661C53.8678 16.0268 53.9102 16.4079 53.875 16.7857V16.7877ZM62.722 11.4357C61.6653 11.4556 60.6381 11.7872 59.7694 12.389C58.9006 12.9907 58.2289 13.8358 57.8388 14.8179C57.4487 15.8001 57.3574 16.8757 57.5765 17.9095C57.7956 18.9434 58.3153 19.8895 59.0702 20.629C59.8252 21.3685 60.7819 21.8685 61.8201 22.0661C62.8583 22.2638 63.9317 22.1502 64.9056 21.7399C65.8795 21.3295 66.7104 20.6405 67.294 19.7594C67.8777 18.8784 68.188 17.8445 68.186 16.7877C68.1824 16.0764 68.0378 15.3729 67.7605 14.7179C67.4832 14.0629 67.0788 13.4693 66.5707 12.9716C66.0626 12.4739 65.4608 12.0819 64.8001 11.8182C64.1395 11.5546 63.4332 11.4246 62.722 11.4357ZM62.722 19.8437C62.3303 19.8401 61.9434 19.7571 61.5846 19.5999C61.2258 19.4426 60.9026 19.2143 60.6345 18.9287C60.3664 18.6431 60.1589 18.3062 60.0246 17.9382C59.8903 17.5702 59.8319 17.1788 59.853 16.7877C59.8276 16.4004 59.8821 16.0121 60.013 15.6467C60.1439 15.2814 60.3485 14.9468 60.614 14.6638C60.8795 14.3807 61.2003 14.1552 61.5566 14.0013C61.9128 13.8473 62.2969 13.7681 62.685 13.7687C63.0778 13.7714 63.466 13.8537 63.8262 14.0104C64.1863 14.1672 64.5111 14.3953 64.7807 14.681C65.0504 14.9666 65.2594 15.3039 65.3952 15.6725C65.5311 16.0411 65.5908 16.4334 65.571 16.8257C65.5954 17.2141 65.5397 17.6034 65.4074 17.9694C65.275 18.3354 65.0689 18.6702 64.8017 18.9532C64.5346 19.2362 64.2121 19.4613 63.8544 19.6145C63.4966 19.7677 63.1112 19.8457 62.722 19.8437ZM74.752 11.6437H72.241V9.07668C72.2411 9.0548 72.2369 9.03311 72.2286 9.01285C72.2204 8.99259 72.2081 8.97418 72.1927 8.95866C72.1773 8.94314 72.1589 8.93082 72.1387 8.92241C72.1185 8.91401 72.0969 8.90968 72.075 8.90968H69.794C69.7498 8.90995 69.7075 8.92762 69.6762 8.95889C69.6449 8.99015 69.6272 9.03247 69.627 9.07668V11.6437H68.527C68.5051 11.6437 68.4834 11.648 68.4632 11.6564C68.443 11.6648 68.4247 11.6771 68.4092 11.6927C68.3938 11.7082 68.3816 11.7266 68.3733 11.7469C68.3651 11.7671 68.3609 11.7888 68.361 11.8107V13.7717C68.361 13.8158 68.3784 13.8581 68.4095 13.8894C68.4407 13.9207 68.4829 13.9384 68.527 13.9387H69.627V19.0127C69.627 21.0617 70.647 22.1017 72.661 22.1017C73.4079 22.1196 74.1457 21.9358 74.797 21.5697C74.8228 21.5556 74.8444 21.5348 74.8594 21.5094C74.8743 21.4841 74.8821 21.4551 74.882 21.4257V19.5567C74.8819 19.5284 74.8746 19.5006 74.8608 19.4759C74.847 19.4512 74.8271 19.4305 74.803 19.4157C74.779 19.4004 74.7514 19.3917 74.7229 19.3905C74.6945 19.3892 74.6662 19.3955 74.641 19.4087C74.2273 19.6227 73.7678 19.7332 73.302 19.7307C72.571 19.7307 72.243 19.3977 72.243 18.6537V13.9397H74.754C74.7759 13.9397 74.7975 13.9354 74.8177 13.927C74.8379 13.9185 74.8563 13.9062 74.8717 13.8907C74.8871 13.8752 74.8994 13.8568 74.9076 13.8365C74.9159 13.8163 74.9201 13.7946 74.92 13.7727V11.8127C74.9207 11.7908 74.9169 11.7691 74.9089 11.7487C74.901 11.7283 74.889 11.7098 74.8736 11.6942C74.8583 11.6786 74.84 11.6662 74.8198 11.6579C74.7996 11.6496 74.7779 11.6454 74.756 11.6457L74.752 11.6437ZM83.499 11.6537V11.3387C83.499 10.4117 83.855 9.99768 84.651 9.99768C85.09 10.0029 85.5249 10.083 85.937 10.2347C85.9621 10.2431 85.9889 10.2455 86.015 10.2415C86.0412 10.2375 86.0661 10.2273 86.0875 10.2117C86.109 10.1961 86.1264 10.1757 86.1383 10.152C86.1502 10.1283 86.1562 10.1022 86.156 10.0757V8.14868C86.1564 8.11281 86.1451 8.07779 86.1238 8.04892C86.1025 8.02005 86.0724 7.9989 86.038 7.98868C85.4224 7.80073 84.7815 7.70898 84.138 7.71668C82.032 7.71668 80.917 8.90368 80.917 11.1467V11.6297H79.817C79.7728 11.6299 79.7305 11.6476 79.6992 11.6789C79.6679 11.7101 79.6502 11.7525 79.65 11.7967V13.7677C79.6502 13.8119 79.6679 13.8542 79.6992 13.8855C79.7305 13.9167 79.7728 13.9344 79.817 13.9347H80.917V21.7597C80.917 21.804 80.9346 21.8465 80.9659 21.8778C80.9972 21.9091 81.0397 21.9267 81.084 21.9267H83.364C83.3859 21.9268 83.4077 21.9226 83.4281 21.9142C83.4484 21.9059 83.4668 21.8936 83.4824 21.8781C83.4979 21.8625 83.5102 21.8441 83.5185 21.8237C83.5269 21.8034 83.5311 21.7817 83.531 21.7597V13.9397H85.661L88.924 21.7637C88.554 22.5847 88.189 22.7487 87.692 22.7487C87.2491 22.7377 86.8163 22.6145 86.434 22.3907C86.3931 22.3702 86.3459 22.3659 86.302 22.3787C86.28 22.3859 86.2597 22.3976 86.2425 22.4131C86.2252 22.4286 86.2114 22.4475 86.202 22.4687L85.428 24.1687C85.4101 24.2072 85.4077 24.2511 85.421 24.2914C85.4344 24.3317 85.4626 24.3655 85.5 24.3857C86.2418 24.8063 87.0823 25.0217 87.935 25.0097C89.62 25.0097 90.552 24.2237 91.371 22.1097L95.337 11.8817C95.3468 11.8566 95.3505 11.8294 95.3475 11.8026C95.3446 11.7757 95.3352 11.75 95.3202 11.7276C95.3052 11.7052 95.2849 11.6868 95.2612 11.6739C95.2375 11.661 95.211 11.6541 95.184 11.6537H92.808C92.7731 11.6534 92.739 11.6641 92.7105 11.6841C92.682 11.7042 92.6605 11.7327 92.649 11.7657L90.216 18.7147L87.547 11.7617C87.535 11.7302 87.5138 11.7032 87.4861 11.6841C87.4585 11.665 87.4256 11.6547 87.392 11.6547H83.492L83.499 11.6537ZM78.428 11.6437H76.147C76.1028 11.6439 76.0605 11.6616 76.0292 11.6929C75.9979 11.7241 75.9802 11.7665 75.98 11.8107V21.7627C75.98 21.7846 75.9843 21.8063 75.9927 21.8266C76.0011 21.8469 76.0134 21.8653 76.0289 21.8808C76.0444 21.8963 76.0628 21.9086 76.0831 21.917C76.1033 21.9254 76.1251 21.9297 76.147 21.9297H78.429C78.4509 21.9297 78.4726 21.9254 78.4929 21.917C78.5132 21.9086 78.5316 21.8963 78.5471 21.8808C78.5626 21.8653 78.5749 21.8469 78.5833 21.8266C78.5917 21.8063 78.596 21.7846 78.596 21.7627V11.8117C78.596 11.7674 78.5784 11.7249 78.5471 11.6936C78.5158 11.6623 78.4733 11.6447 78.429 11.6447L78.428 11.6437ZM77.3 7.11168C76.9764 7.11149 76.6601 7.20724 76.3909 7.38684C76.1218 7.56645 75.9119 7.82183 75.7879 8.12069C75.6639 8.41955 75.6313 8.74848 75.6942 9.06587C75.7572 9.38326 75.9128 9.67486 76.1415 9.9038C76.3701 10.1327 76.6615 10.2887 76.9788 10.3521C77.2962 10.4154 77.6251 10.3832 77.9241 10.2595C78.2232 10.1359 78.4788 9.92636 78.6587 9.65743C78.8386 9.3885 78.9348 9.07225 78.935 8.74868C78.9351 8.53384 78.8929 8.32108 78.8108 8.12254C78.7287 7.924 78.6083 7.74357 78.4565 7.59156C78.3047 7.43955 78.1244 7.31894 77.926 7.2366C77.7275 7.15426 77.5148 7.11181 77.3 7.11168ZM97.286 14.8487C96.9679 14.8479 96.6573 14.7529 96.3931 14.5758C96.129 14.3986 95.9233 14.1472 95.8019 13.8532C95.6805 13.5592 95.6489 13.2359 95.7111 12.924C95.7732 12.6121 95.9264 12.3256 96.1512 12.1006C96.376 11.8756 96.6624 11.7223 96.9743 11.6599C97.2862 11.5976 97.6095 11.629 97.9036 11.7502C98.1976 11.8714 98.4492 12.077 98.6265 12.341C98.8038 12.605 98.899 12.9156 98.9 13.2337C98.902 13.4462 98.8616 13.6571 98.7812 13.8538C98.7008 14.0506 98.582 14.2294 98.4318 14.3798C98.2815 14.5301 98.1028 14.649 97.9061 14.7295C97.7093 14.81 97.4985 14.8506 97.286 14.8487ZM97.295 11.7887C97.0074 11.7859 96.7255 11.8687 96.4851 12.0266C96.2447 12.1844 96.0567 12.4102 95.9449 12.6752C95.8332 12.9402 95.8028 13.2324 95.8575 13.5147C95.9123 13.7971 96.0498 14.0567 96.2525 14.2607C96.4552 14.4647 96.714 14.6038 96.996 14.6603C97.278 14.7169 97.5704 14.6883 97.8361 14.5782C98.1018 14.4681 98.3287 14.2815 98.4881 14.0421C98.6474 13.8027 98.732 13.5213 98.731 13.2337C98.7322 13.0443 98.6959 12.8566 98.6243 12.6814C98.5526 12.5061 98.447 12.3468 98.3136 12.2125C98.1801 12.0782 98.0214 11.9716 97.8466 11.8988C97.6718 11.8261 97.4843 11.7887 97.295 11.7887ZM97.651 13.3987L98.106 14.0347H97.722L97.313 13.4517H96.962V14.0347H96.641V12.3487H97.392C97.785 12.3487 98.042 12.5487 98.042 12.8867C98.0477 13.0041 98.0118 13.1199 97.9407 13.2135C97.8696 13.3071 97.7677 13.3727 97.653 13.3987H97.651ZM97.38 12.6387H96.962V13.1717H97.38C97.588 13.1717 97.713 13.0717 97.713 12.9047C97.713 12.7377 97.587 12.6337 97.379 12.6337L97.38 12.6387Z" fill="#05073C"/>
</g>
</g>
</g>
</g>
<defs>
<clipPath id="clip0_2103_5116">
<rect width="100" height="30" fill="white"/>
</clipPath>
<clipPath id="clip1_2103_5116">
<rect width="100" height="30" fill="white"/>
</clipPath>
<clipPath id="clip2_2103_5116">
<rect width="99" height="30" fill="white" transform="translate(0.5)"/>
</clipPath>
</defs>
</svg>
